<?xml version="1.0" encoding="utf-8" standalone="no"?>
<!DOCTYPE svg PUBLIC "-//W3C//DTD SVG 1.1//EN"
  "http://www.w3.org/Graphics/SVG/1.1/DTD/svg11.dtd">
<!-- Created with matplotlib (https://matplotlib.org/) -->
<svg height="327.930058pt" version="1.1" viewBox="0 0 562.972375 327.930058" width="562.972375pt" xmlns="http://www.w3.org/2000/svg" xmlns:xlink="http://www.w3.org/1999/xlink">
 <metadata>
  <rdf:RDF xmlns:cc="http://creativecommons.org/ns#" xmlns:dc="http://purl.org/dc/elements/1.1/" xmlns:rdf="http://www.w3.org/1999/02/22-rdf-syntax-ns#">
   <cc:Work>
    <dc:type rdf:resource="http://purl.org/dc/dcmitype/StillImage"/>
    <dc:date>2022-01-18T07:38:25.672743</dc:date>
    <dc:format>image/svg+xml</dc:format>
    <dc:creator>
     <cc:Agent>
      <dc:title>Matplotlib v3.3.4, https://matplotlib.org/</dc:title>
     </cc:Agent>
    </dc:creator>
   </cc:Work>
  </rdf:RDF>
 </metadata>
 <defs>
  <style type="text/css">*{stroke-linecap:butt;stroke-linejoin:round;}</style>
 </defs>
 <g id="figure_1">
  <g id="patch_1">
   <path d="M 0 327.930058 
L 562.972375 327.930058 
L 562.972375 0 
L 0 0 
z
" style="fill:#ffffff;stroke:#ffffff;stroke-linejoin:miter;"/>
  </g>
  <g id="axes_1">
   <g id="patch_2">
    <path d="M 65.298938 292.217371 
L 422.418938 292.217371 
L 422.418938 26.105371 
L 65.298938 26.105371 
z
" style="fill:#ebebeb;"/>
   </g>
   <g id="matplotlib.axis_1">
    <g id="xtick_1">
     <g id="line2d_1">
      <path clip-path="url(#p3686143df9)" d="M 81.531665 292.217371 
L 81.531665 26.105371 
" style="fill:none;stroke:#ffffff;"/>
     </g>
     <g id="line2d_2">
      <path d="M 81.531665 292.217371 
" style="fill:none;stroke:#333333;stroke-width:1.5;"/>
      <defs>
       <path d="M 0 0 
L 0 2.75 
" id="mff0022aded" style="stroke:#000000;"/>
      </defs>
      <g>
       <use style="fill:#333333;stroke:#000000;" x="81.531665" xlink:href="#mff0022aded" y="292.217371"/>
      </g>
     </g>
     <g id="text_1">
      <!-- 0 -->
      <g style="fill:#4d4d4d;" transform="translate(78.732165 303.853996)scale(0.088 -0.088)">
       <defs>
        <path d="M 31.78125 66.40625 
Q 24.171875 66.40625 20.328125 58.90625 
Q 16.5 51.421875 16.5 36.375 
Q 16.5 21.390625 20.328125 13.890625 
Q 24.171875 6.390625 31.78125 6.390625 
Q 39.453125 6.390625 43.28125 13.890625 
Q 47.125 21.390625 47.125 36.375 
Q 47.125 51.421875 43.28125 58.90625 
Q 39.453125 66.40625 31.78125 66.40625 
z
M 31.78125 74.21875 
Q 44.046875 74.21875 50.515625 64.515625 
Q 56.984375 54.828125 56.984375 36.375 
Q 56.984375 17.96875 50.515625 8.265625 
Q 44.046875 -1.421875 31.78125 -1.421875 
Q 19.53125 -1.421875 13.0625 8.265625 
Q 6.59375 17.96875 6.59375 36.375 
Q 6.59375 54.828125 13.0625 64.515625 
Q 19.53125 74.21875 31.78125 74.21875 
z
" id="DejaVuSans-48"/>
       </defs>
       <use xlink:href="#DejaVuSans-48"/>
      </g>
     </g>
    </g>
    <g id="xtick_2">
     <g id="line2d_3">
      <path clip-path="url(#p3686143df9)" d="M 149.168028 292.217371 
L 149.168028 26.105371 
" style="fill:none;stroke:#ffffff;"/>
     </g>
     <g id="line2d_4">
      <path d="M 149.168028 292.217371 
" style="fill:none;stroke:#333333;stroke-width:1.5;"/>
      <g>
       <use style="fill:#333333;stroke:#000000;" x="149.168028" xlink:href="#mff0022aded" y="292.217371"/>
      </g>
     </g>
     <g id="text_2">
      <!-- 0.25 -->
      <g style="fill:#4d4d4d;" transform="translate(139.371153 303.853996)scale(0.088 -0.088)">
       <defs>
        <path d="M 10.6875 12.40625 
L 21 12.40625 
L 21 0 
L 10.6875 0 
z
" id="DejaVuSans-46"/>
        <path d="M 19.1875 8.296875 
L 53.609375 8.296875 
L 53.609375 0 
L 7.328125 0 
L 7.328125 8.296875 
Q 12.9375 14.109375 22.625 23.890625 
Q 32.328125 33.6875 34.8125 36.53125 
Q 39.546875 41.84375 41.421875 45.53125 
Q 43.3125 49.21875 43.3125 52.78125 
Q 43.3125 58.59375 39.234375 62.25 
Q 35.15625 65.921875 28.609375 65.921875 
Q 23.96875 65.921875 18.8125 64.3125 
Q 13.671875 62.703125 7.8125 59.421875 
L 7.8125 69.390625 
Q 13.765625 71.78125 18.9375 73 
Q 24.125 74.21875 28.421875 74.21875 
Q 39.75 74.21875 46.484375 68.546875 
Q 53.21875 62.890625 53.21875 53.421875 
Q 53.21875 48.921875 51.53125 44.890625 
Q 49.859375 40.875 45.40625 35.40625 
Q 44.1875 33.984375 37.640625 27.21875 
Q 31.109375 20.453125 19.1875 8.296875 
z
" id="DejaVuSans-50"/>
        <path d="M 10.796875 72.90625 
L 49.515625 72.90625 
L 49.515625 64.59375 
L 19.828125 64.59375 
L 19.828125 46.734375 
Q 21.96875 47.46875 24.109375 47.828125 
Q 26.265625 48.1875 28.421875 48.1875 
Q 40.625 48.1875 47.75 41.5 
Q 54.890625 34.8125 54.890625 23.390625 
Q 54.890625 11.625 47.5625 5.09375 
Q 40.234375 -1.421875 26.90625 -1.421875 
Q 22.3125 -1.421875 17.546875 -0.640625 
Q 12.796875 0.140625 7.71875 1.703125 
L 7.71875 11.625 
Q 12.109375 9.234375 16.796875 8.0625 
Q 21.484375 6.890625 26.703125 6.890625 
Q 35.15625 6.890625 40.078125 11.328125 
Q 45.015625 15.765625 45.015625 23.390625 
Q 45.015625 31 40.078125 35.4375 
Q 35.15625 39.890625 26.703125 39.890625 
Q 22.75 39.890625 18.8125 39.015625 
Q 14.890625 38.140625 10.796875 36.28125 
z
" id="DejaVuSans-53"/>
       </defs>
       <use xlink:href="#DejaVuSans-48"/>
       <use x="63.623047" xlink:href="#DejaVuSans-46"/>
       <use x="95.410156" xlink:href="#DejaVuSans-50"/>
       <use x="159.033203" xlink:href="#DejaVuSans-53"/>
      </g>
     </g>
    </g>
    <g id="xtick_3">
     <g id="line2d_5">
      <path clip-path="url(#p3686143df9)" d="M 216.804392 292.217371 
L 216.804392 26.105371 
" style="fill:none;stroke:#ffffff;"/>
     </g>
     <g id="line2d_6">
      <path d="M 216.804392 292.217371 
" style="fill:none;stroke:#333333;stroke-width:1.5;"/>
      <g>
       <use style="fill:#333333;stroke:#000000;" x="216.804392" xlink:href="#mff0022aded" y="292.217371"/>
      </g>
     </g>
     <g id="text_3">
      <!-- 0.50 -->
      <g style="fill:#4d4d4d;" transform="translate(207.007517 303.853996)scale(0.088 -0.088)">
       <use xlink:href="#DejaVuSans-48"/>
       <use x="63.623047" xlink:href="#DejaVuSans-46"/>
       <use x="95.410156" xlink:href="#DejaVuSans-53"/>
       <use x="159.033203" xlink:href="#DejaVuSans-48"/>
      </g>
     </g>
    </g>
    <g id="xtick_4">
     <g id="line2d_7">
      <path clip-path="url(#p3686143df9)" d="M 284.440756 292.217371 
L 284.440756 26.105371 
" style="fill:none;stroke:#ffffff;"/>
     </g>
     <g id="line2d_8">
      <path d="M 284.440756 292.217371 
" style="fill:none;stroke:#333333;stroke-width:1.5;"/>
      <g>
       <use style="fill:#333333;stroke:#000000;" x="284.440756" xlink:href="#mff0022aded" y="292.217371"/>
      </g>
     </g>
     <g id="text_4">
      <!-- 0.75 -->
      <g style="fill:#4d4d4d;" transform="translate(274.643881 303.853996)scale(0.088 -0.088)">
       <defs>
        <path d="M 8.203125 72.90625 
L 55.078125 72.90625 
L 55.078125 68.703125 
L 28.609375 0 
L 18.3125 0 
L 43.21875 64.59375 
L 8.203125 64.59375 
z
" id="DejaVuSans-55"/>
       </defs>
       <use xlink:href="#DejaVuSans-48"/>
       <use x="63.623047" xlink:href="#DejaVuSans-46"/>
       <use x="95.410156" xlink:href="#DejaVuSans-55"/>
       <use x="159.033203" xlink:href="#DejaVuSans-53"/>
      </g>
     </g>
    </g>
    <g id="xtick_5">
     <g id="line2d_9">
      <path clip-path="url(#p3686143df9)" d="M 352.077119 292.217371 
L 352.077119 26.105371 
" style="fill:none;stroke:#ffffff;"/>
     </g>
     <g id="line2d_10">
      <path d="M 352.077119 292.217371 
" style="fill:none;stroke:#333333;stroke-width:1.5;"/>
      <g>
       <use style="fill:#333333;stroke:#000000;" x="352.077119" xlink:href="#mff0022aded" y="292.217371"/>
      </g>
     </g>
     <g id="text_5">
      <!-- 1 -->
      <g style="fill:#4d4d4d;" transform="translate(349.277619 303.853996)scale(0.088 -0.088)">
       <defs>
        <path d="M 12.40625 8.296875 
L 28.515625 8.296875 
L 28.515625 63.921875 
L 10.984375 60.40625 
L 10.984375 69.390625 
L 28.421875 72.90625 
L 38.28125 72.90625 
L 38.28125 8.296875 
L 54.390625 8.296875 
L 54.390625 0 
L 12.40625 0 
z
" id="DejaVuSans-49"/>
       </defs>
       <use xlink:href="#DejaVuSans-49"/>
      </g>
     </g>
    </g>
    <g id="xtick_6">
     <g id="line2d_11">
      <path clip-path="url(#p3686143df9)" d="M 419.713483 292.217371 
L 419.713483 26.105371 
" style="fill:none;stroke:#ffffff;"/>
     </g>
     <g id="line2d_12">
      <path d="M 419.713483 292.217371 
" style="fill:none;stroke:#333333;stroke-width:1.5;"/>
      <g>
       <use style="fill:#333333;stroke:#000000;" x="419.713483" xlink:href="#mff0022aded" y="292.217371"/>
      </g>
     </g>
     <g id="text_6">
      <!-- 1.25 -->
      <g style="fill:#4d4d4d;" transform="translate(409.916608 303.853996)scale(0.088 -0.088)">
       <use xlink:href="#DejaVuSans-49"/>
       <use x="63.623047" xlink:href="#DejaVuSans-46"/>
       <use x="95.410156" xlink:href="#DejaVuSans-50"/>
       <use x="159.033203" xlink:href="#DejaVuSans-53"/>
      </g>
     </g>
    </g>
    <g id="xtick_7">
     <g id="line2d_13">
      <path clip-path="url(#p3686143df9)" d="M 115.349847 292.217371 
L 115.349847 26.105371 
" style="fill:none;stroke:#ffffff;stroke-width:0.5;"/>
     </g>
    </g>
    <g id="xtick_8">
     <g id="line2d_14">
      <path clip-path="url(#p3686143df9)" d="M 182.98621 292.217371 
L 182.98621 26.105371 
" style="fill:none;stroke:#ffffff;stroke-width:0.5;"/>
     </g>
    </g>
    <g id="xtick_9">
     <g id="line2d_15">
      <path clip-path="url(#p3686143df9)" d="M 250.622574 292.217371 
L 250.622574 26.105371 
" style="fill:none;stroke:#ffffff;stroke-width:0.5;"/>
     </g>
    </g>
    <g id="xtick_10">
     <g id="line2d_16">
      <path clip-path="url(#p3686143df9)" d="M 318.258938 292.217371 
L 318.258938 26.105371 
" style="fill:none;stroke:#ffffff;stroke-width:0.5;"/>
     </g>
    </g>
    <g id="xtick_11">
     <g id="line2d_17">
      <path clip-path="url(#p3686143df9)" d="M 385.895301 292.217371 
L 385.895301 26.105371 
" style="fill:none;stroke:#ffffff;stroke-width:0.5;"/>
     </g>
    </g>
    <g id="text_7">
     <!-- Euclidean Distance -->
     <g transform="translate(185.52925 318.442402)scale(0.11 -0.11)">
      <defs>
       <path d="M 9.8125 72.90625 
L 55.90625 72.90625 
L 55.90625 64.59375 
L 19.671875 64.59375 
L 19.671875 43.015625 
L 54.390625 43.015625 
L 54.390625 34.71875 
L 19.671875 34.71875 
L 19.671875 8.296875 
L 56.78125 8.296875 
L 56.78125 0 
L 9.8125 0 
z
" id="DejaVuSans-69"/>
       <path d="M 8.5 21.578125 
L 8.5 54.6875 
L 17.484375 54.6875 
L 17.484375 21.921875 
Q 17.484375 14.15625 20.5 10.265625 
Q 23.53125 6.390625 29.59375 6.390625 
Q 36.859375 6.390625 41.078125 11.03125 
Q 45.3125 15.671875 45.3125 23.6875 
L 45.3125 54.6875 
L 54.296875 54.6875 
L 54.296875 0 
L 45.3125 0 
L 45.3125 8.40625 
Q 42.046875 3.421875 37.71875 1 
Q 33.40625 -1.421875 27.6875 -1.421875 
Q 18.265625 -1.421875 13.375 4.4375 
Q 8.5 10.296875 8.5 21.578125 
z
M 31.109375 56 
z
" id="DejaVuSans-117"/>
       <path d="M 48.78125 52.59375 
L 48.78125 44.1875 
Q 44.96875 46.296875 41.140625 47.34375 
Q 37.3125 48.390625 33.40625 48.390625 
Q 24.65625 48.390625 19.8125 42.84375 
Q 14.984375 37.3125 14.984375 27.296875 
Q 14.984375 17.28125 19.8125 11.734375 
Q 24.65625 6.203125 33.40625 6.203125 
Q 37.3125 6.203125 41.140625 7.25 
Q 44.96875 8.296875 48.78125 10.40625 
L 48.78125 2.09375 
Q 45.015625 0.34375 40.984375 -0.53125 
Q 36.96875 -1.421875 32.421875 -1.421875 
Q 20.0625 -1.421875 12.78125 6.34375 
Q 5.515625 14.109375 5.515625 27.296875 
Q 5.515625 40.671875 12.859375 48.328125 
Q 20.21875 56 33.015625 56 
Q 37.15625 56 41.109375 55.140625 
Q 45.0625 54.296875 48.78125 52.59375 
z
" id="DejaVuSans-99"/>
       <path d="M 9.421875 75.984375 
L 18.40625 75.984375 
L 18.40625 0 
L 9.421875 0 
z
" id="DejaVuSans-108"/>
       <path d="M 9.421875 54.6875 
L 18.40625 54.6875 
L 18.40625 0 
L 9.421875 0 
z
M 9.421875 75.984375 
L 18.40625 75.984375 
L 18.40625 64.59375 
L 9.421875 64.59375 
z
" id="DejaVuSans-105"/>
       <path d="M 45.40625 46.390625 
L 45.40625 75.984375 
L 54.390625 75.984375 
L 54.390625 0 
L 45.40625 0 
L 45.40625 8.203125 
Q 42.578125 3.328125 38.25 0.953125 
Q 33.9375 -1.421875 27.875 -1.421875 
Q 17.96875 -1.421875 11.734375 6.484375 
Q 5.515625 14.40625 5.515625 27.296875 
Q 5.515625 40.1875 11.734375 48.09375 
Q 17.96875 56 27.875 56 
Q 33.9375 56 38.25 53.625 
Q 42.578125 51.265625 45.40625 46.390625 
z
M 14.796875 27.296875 
Q 14.796875 17.390625 18.875 11.75 
Q 22.953125 6.109375 30.078125 6.109375 
Q 37.203125 6.109375 41.296875 11.75 
Q 45.40625 17.390625 45.40625 27.296875 
Q 45.40625 37.203125 41.296875 42.84375 
Q 37.203125 48.484375 30.078125 48.484375 
Q 22.953125 48.484375 18.875 42.84375 
Q 14.796875 37.203125 14.796875 27.296875 
z
" id="DejaVuSans-100"/>
       <path d="M 56.203125 29.59375 
L 56.203125 25.203125 
L 14.890625 25.203125 
Q 15.484375 15.921875 20.484375 11.0625 
Q 25.484375 6.203125 34.421875 6.203125 
Q 39.59375 6.203125 44.453125 7.46875 
Q 49.3125 8.734375 54.109375 11.28125 
L 54.109375 2.78125 
Q 49.265625 0.734375 44.1875 -0.34375 
Q 39.109375 -1.421875 33.890625 -1.421875 
Q 20.796875 -1.421875 13.15625 6.1875 
Q 5.515625 13.8125 5.515625 26.8125 
Q 5.515625 40.234375 12.765625 48.109375 
Q 20.015625 56 32.328125 56 
Q 43.359375 56 49.78125 48.890625 
Q 56.203125 41.796875 56.203125 29.59375 
z
M 47.21875 32.234375 
Q 47.125 39.59375 43.09375 43.984375 
Q 39.0625 48.390625 32.421875 48.390625 
Q 24.90625 48.390625 20.390625 44.140625 
Q 15.875 39.890625 15.1875 32.171875 
z
" id="DejaVuSans-101"/>
       <path d="M 34.28125 27.484375 
Q 23.390625 27.484375 19.1875 25 
Q 14.984375 22.515625 14.984375 16.5 
Q 14.984375 11.71875 18.140625 8.90625 
Q 21.296875 6.109375 26.703125 6.109375 
Q 34.1875 6.109375 38.703125 11.40625 
Q 43.21875 16.703125 43.21875 25.484375 
L 43.21875 27.484375 
z
M 52.203125 31.203125 
L 52.203125 0 
L 43.21875 0 
L 43.21875 8.296875 
Q 40.140625 3.328125 35.546875 0.953125 
Q 30.953125 -1.421875 24.3125 -1.421875 
Q 15.921875 -1.421875 10.953125 3.296875 
Q 6 8.015625 6 15.921875 
Q 6 25.140625 12.171875 29.828125 
Q 18.359375 34.515625 30.609375 34.515625 
L 43.21875 34.515625 
L 43.21875 35.40625 
Q 43.21875 41.609375 39.140625 45 
Q 35.0625 48.390625 27.6875 48.390625 
Q 23 48.390625 18.546875 47.265625 
Q 14.109375 46.140625 10.015625 43.890625 
L 10.015625 52.203125 
Q 14.9375 54.109375 19.578125 55.046875 
Q 24.21875 56 28.609375 56 
Q 40.484375 56 46.34375 49.84375 
Q 52.203125 43.703125 52.203125 31.203125 
z
" id="DejaVuSans-97"/>
       <path d="M 54.890625 33.015625 
L 54.890625 0 
L 45.90625 0 
L 45.90625 32.71875 
Q 45.90625 40.484375 42.875 44.328125 
Q 39.84375 48.1875 33.796875 48.1875 
Q 26.515625 48.1875 22.3125 43.546875 
Q 18.109375 38.921875 18.109375 30.90625 
L 18.109375 0 
L 9.078125 0 
L 9.078125 54.6875 
L 18.109375 54.6875 
L 18.109375 46.1875 
Q 21.34375 51.125 25.703125 53.5625 
Q 30.078125 56 35.796875 56 
Q 45.21875 56 50.046875 50.171875 
Q 54.890625 44.34375 54.890625 33.015625 
z
" id="DejaVuSans-110"/>
       <path id="DejaVuSans-32"/>
       <path d="M 19.671875 64.796875 
L 19.671875 8.109375 
L 31.59375 8.109375 
Q 46.6875 8.109375 53.6875 14.9375 
Q 60.6875 21.78125 60.6875 36.53125 
Q 60.6875 51.171875 53.6875 57.984375 
Q 46.6875 64.796875 31.59375 64.796875 
z
M 9.8125 72.90625 
L 30.078125 72.90625 
Q 51.265625 72.90625 61.171875 64.09375 
Q 71.09375 55.28125 71.09375 36.53125 
Q 71.09375 17.671875 61.125 8.828125 
Q 51.171875 0 30.078125 0 
L 9.8125 0 
z
" id="DejaVuSans-68"/>
       <path d="M 44.28125 53.078125 
L 44.28125 44.578125 
Q 40.484375 46.53125 36.375 47.5 
Q 32.28125 48.484375 27.875 48.484375 
Q 21.1875 48.484375 17.84375 46.4375 
Q 14.5 44.390625 14.5 40.28125 
Q 14.5 37.15625 16.890625 35.375 
Q 19.28125 33.59375 26.515625 31.984375 
L 29.59375 31.296875 
Q 39.15625 29.25 43.1875 25.515625 
Q 47.21875 21.78125 47.21875 15.09375 
Q 47.21875 7.46875 41.1875 3.015625 
Q 35.15625 -1.421875 24.609375 -1.421875 
Q 20.21875 -1.421875 15.453125 -0.5625 
Q 10.6875 0.296875 5.421875 2 
L 5.421875 11.28125 
Q 10.40625 8.6875 15.234375 7.390625 
Q 20.0625 6.109375 24.8125 6.109375 
Q 31.15625 6.109375 34.5625 8.28125 
Q 37.984375 10.453125 37.984375 14.40625 
Q 37.984375 18.0625 35.515625 20.015625 
Q 33.0625 21.96875 24.703125 23.78125 
L 21.578125 24.515625 
Q 13.234375 26.265625 9.515625 29.90625 
Q 5.8125 33.546875 5.8125 39.890625 
Q 5.8125 47.609375 11.28125 51.796875 
Q 16.75 56 26.8125 56 
Q 31.78125 56 36.171875 55.265625 
Q 40.578125 54.546875 44.28125 53.078125 
z
" id="DejaVuSans-115"/>
       <path d="M 18.3125 70.21875 
L 18.3125 54.6875 
L 36.8125 54.6875 
L 36.8125 47.703125 
L 18.3125 47.703125 
L 18.3125 18.015625 
Q 18.3125 11.328125 20.140625 9.421875 
Q 21.96875 7.515625 27.59375 7.515625 
L 36.8125 7.515625 
L 36.8125 0 
L 27.59375 0 
Q 17.1875 0 13.234375 3.875 
Q 9.28125 7.765625 9.28125 18.015625 
L 9.28125 47.703125 
L 2.6875 47.703125 
L 2.6875 54.6875 
L 9.28125 54.6875 
L 9.28125 70.21875 
z
" id="DejaVuSans-116"/>
      </defs>
      <use xlink:href="#DejaVuSans-69"/>
      <use x="63.183594" xlink:href="#DejaVuSans-117"/>
      <use x="126.5625" xlink:href="#DejaVuSans-99"/>
      <use x="181.542969" xlink:href="#DejaVuSans-108"/>
      <use x="209.326172" xlink:href="#DejaVuSans-105"/>
      <use x="237.109375" xlink:href="#DejaVuSans-100"/>
      <use x="300.585938" xlink:href="#DejaVuSans-101"/>
      <use x="362.109375" xlink:href="#DejaVuSans-97"/>
      <use x="423.388672" xlink:href="#DejaVuSans-110"/>
      <use x="486.767578" xlink:href="#DejaVuSans-32"/>
      <use x="518.554688" xlink:href="#DejaVuSans-68"/>
      <use x="595.556641" xlink:href="#DejaVuSans-105"/>
      <use x="623.339844" xlink:href="#DejaVuSans-115"/>
      <use x="675.439453" xlink:href="#DejaVuSans-116"/>
      <use x="714.648438" xlink:href="#DejaVuSans-97"/>
      <use x="775.927734" xlink:href="#DejaVuSans-110"/>
      <use x="839.306641" xlink:href="#DejaVuSans-99"/>
      <use x="894.287109" xlink:href="#DejaVuSans-101"/>
     </g>
    </g>
   </g>
   <g id="matplotlib.axis_2">
    <g id="ytick_1">
     <g id="line2d_18">
      <path clip-path="url(#p3686143df9)" d="M 65.298938 245.561371 
L 422.418938 245.561371 
" style="fill:none;stroke:#ffffff;"/>
     </g>
     <g id="line2d_19">
      <path d="M 65.298938 245.561371 
" style="fill:none;stroke:#333333;stroke-width:1.5;"/>
      <defs>
       <path d="M 0 0 
L -2.75 0 
" id="m60e8c723fb" style="stroke:#000000;"/>
      </defs>
      <g>
       <use style="fill:#333333;stroke:#000000;" x="65.298938" xlink:href="#m60e8c723fb" y="245.561371"/>
      </g>
     </g>
     <g id="text_8">
      <!-- 0.4 -->
      <g style="fill:#4d4d4d;" transform="translate(46.354188 247.989621)scale(0.088 -0.088)">
       <defs>
        <path d="M 37.796875 64.3125 
L 12.890625 25.390625 
L 37.796875 25.390625 
z
M 35.203125 72.90625 
L 47.609375 72.90625 
L 47.609375 25.390625 
L 58.015625 25.390625 
L 58.015625 17.1875 
L 47.609375 17.1875 
L 47.609375 0 
L 37.796875 0 
L 37.796875 17.1875 
L 4.890625 17.1875 
L 4.890625 26.703125 
z
" id="DejaVuSans-52"/>
       </defs>
       <use xlink:href="#DejaVuSans-48"/>
       <use x="63.623047" xlink:href="#DejaVuSans-46"/>
       <use x="95.410156" xlink:href="#DejaVuSans-52"/>
      </g>
     </g>
    </g>
    <g id="ytick_2">
     <g id="line2d_20">
      <path clip-path="url(#p3686143df9)" d="M 65.298938 176.441371 
L 422.418938 176.441371 
" style="fill:none;stroke:#ffffff;"/>
     </g>
     <g id="line2d_21">
      <path d="M 65.298938 176.441371 
" style="fill:none;stroke:#333333;stroke-width:1.5;"/>
      <g>
       <use style="fill:#333333;stroke:#000000;" x="65.298938" xlink:href="#m60e8c723fb" y="176.441371"/>
      </g>
     </g>
     <g id="text_9">
      <!-- 0.6 -->
      <g style="fill:#4d4d4d;" transform="translate(46.354188 178.869621)scale(0.088 -0.088)">
       <defs>
        <path d="M 33.015625 40.375 
Q 26.375 40.375 22.484375 35.828125 
Q 18.609375 31.296875 18.609375 23.390625 
Q 18.609375 15.53125 22.484375 10.953125 
Q 26.375 6.390625 33.015625 6.390625 
Q 39.65625 6.390625 43.53125 10.953125 
Q 47.40625 15.53125 47.40625 23.390625 
Q 47.40625 31.296875 43.53125 35.828125 
Q 39.65625 40.375 33.015625 40.375 
z
M 52.59375 71.296875 
L 52.59375 62.3125 
Q 48.875 64.0625 45.09375 64.984375 
Q 41.3125 65.921875 37.59375 65.921875 
Q 27.828125 65.921875 22.671875 59.328125 
Q 17.53125 52.734375 16.796875 39.40625 
Q 19.671875 43.65625 24.015625 45.921875 
Q 28.375 48.1875 33.59375 48.1875 
Q 44.578125 48.1875 50.953125 41.515625 
Q 57.328125 34.859375 57.328125 23.390625 
Q 57.328125 12.15625 50.6875 5.359375 
Q 44.046875 -1.421875 33.015625 -1.421875 
Q 20.359375 -1.421875 13.671875 8.265625 
Q 6.984375 17.96875 6.984375 36.375 
Q 6.984375 53.65625 15.1875 63.9375 
Q 23.390625 74.21875 37.203125 74.21875 
Q 40.921875 74.21875 44.703125 73.484375 
Q 48.484375 72.75 52.59375 71.296875 
z
" id="DejaVuSans-54"/>
       </defs>
       <use xlink:href="#DejaVuSans-48"/>
       <use x="63.623047" xlink:href="#DejaVuSans-46"/>
       <use x="95.410156" xlink:href="#DejaVuSans-54"/>
      </g>
     </g>
    </g>
    <g id="ytick_3">
     <g id="line2d_22">
      <path clip-path="url(#p3686143df9)" d="M 65.298938 107.321371 
L 422.418938 107.321371 
" style="fill:none;stroke:#ffffff;"/>
     </g>
     <g id="line2d_23">
      <path d="M 65.298938 107.321371 
" style="fill:none;stroke:#333333;stroke-width:1.5;"/>
      <g>
       <use style="fill:#333333;stroke:#000000;" x="65.298938" xlink:href="#m60e8c723fb" y="107.321371"/>
      </g>
     </g>
     <g id="text_10">
      <!-- 0.8 -->
      <g style="fill:#4d4d4d;" transform="translate(46.354188 109.749621)scale(0.088 -0.088)">
       <defs>
        <path d="M 31.78125 34.625 
Q 24.75 34.625 20.71875 30.859375 
Q 16.703125 27.09375 16.703125 20.515625 
Q 16.703125 13.921875 20.71875 10.15625 
Q 24.75 6.390625 31.78125 6.390625 
Q 38.8125 6.390625 42.859375 10.171875 
Q 46.921875 13.96875 46.921875 20.515625 
Q 46.921875 27.09375 42.890625 30.859375 
Q 38.875 34.625 31.78125 34.625 
z
M 21.921875 38.8125 
Q 15.578125 40.375 12.03125 44.71875 
Q 8.5 49.078125 8.5 55.328125 
Q 8.5 64.0625 14.71875 69.140625 
Q 20.953125 74.21875 31.78125 74.21875 
Q 42.671875 74.21875 48.875 69.140625 
Q 55.078125 64.0625 55.078125 55.328125 
Q 55.078125 49.078125 51.53125 44.71875 
Q 48 40.375 41.703125 38.8125 
Q 48.828125 37.15625 52.796875 32.3125 
Q 56.78125 27.484375 56.78125 20.515625 
Q 56.78125 9.90625 50.3125 4.234375 
Q 43.84375 -1.421875 31.78125 -1.421875 
Q 19.734375 -1.421875 13.25 4.234375 
Q 6.78125 9.90625 6.78125 20.515625 
Q 6.78125 27.484375 10.78125 32.3125 
Q 14.796875 37.15625 21.921875 38.8125 
z
M 18.3125 54.390625 
Q 18.3125 48.734375 21.84375 45.5625 
Q 25.390625 42.390625 31.78125 42.390625 
Q 38.140625 42.390625 41.71875 45.5625 
Q 45.3125 48.734375 45.3125 54.390625 
Q 45.3125 60.0625 41.71875 63.234375 
Q 38.140625 66.40625 31.78125 66.40625 
Q 25.390625 66.40625 21.84375 63.234375 
Q 18.3125 60.0625 18.3125 54.390625 
z
" id="DejaVuSans-56"/>
       </defs>
       <use xlink:href="#DejaVuSans-48"/>
       <use x="63.623047" xlink:href="#DejaVuSans-46"/>
       <use x="95.410156" xlink:href="#DejaVuSans-56"/>
      </g>
     </g>
    </g>
    <g id="ytick_4">
     <g id="line2d_24">
      <path clip-path="url(#p3686143df9)" d="M 65.298938 38.201371 
L 422.418938 38.201371 
" style="fill:none;stroke:#ffffff;"/>
     </g>
     <g id="line2d_25">
      <path d="M 65.298938 38.201371 
" style="fill:none;stroke:#333333;stroke-width:1.5;"/>
      <g>
       <use style="fill:#333333;stroke:#000000;" x="65.298938" xlink:href="#m60e8c723fb" y="38.201371"/>
      </g>
     </g>
     <g id="text_11">
      <!-- 1 -->
      <g style="fill:#4d4d4d;" transform="translate(54.749938 40.629621)scale(0.088 -0.088)">
       <use xlink:href="#DejaVuSans-49"/>
      </g>
     </g>
    </g>
    <g id="ytick_5">
     <g id="line2d_26">
      <path clip-path="url(#p3686143df9)" d="M 65.298938 280.121371 
L 422.418938 280.121371 
" style="fill:none;stroke:#ffffff;stroke-width:0.5;"/>
     </g>
    </g>
    <g id="ytick_6">
     <g id="line2d_27">
      <path clip-path="url(#p3686143df9)" d="M 65.298938 211.001371 
L 422.418938 211.001371 
" style="fill:none;stroke:#ffffff;stroke-width:0.5;"/>
     </g>
    </g>
    <g id="ytick_7">
     <g id="line2d_28">
      <path clip-path="url(#p3686143df9)" d="M 65.298938 141.881371 
L 422.418938 141.881371 
" style="fill:none;stroke:#ffffff;stroke-width:0.5;"/>
     </g>
    </g>
    <g id="ytick_8">
     <g id="line2d_29">
      <path clip-path="url(#p3686143df9)" d="M 65.298938 72.761371 
L 422.418938 72.761371 
" style="fill:none;stroke:#ffffff;stroke-width:0.5;"/>
     </g>
    </g>
    <g id="text_12">
     <!-- Accuracy -->
     <g transform="translate(39.666531 182.544308)rotate(-90)scale(0.11 -0.11)">
      <defs>
       <path d="M 34.1875 63.1875 
L 20.796875 26.90625 
L 47.609375 26.90625 
z
M 28.609375 72.90625 
L 39.796875 72.90625 
L 67.578125 0 
L 57.328125 0 
L 50.6875 18.703125 
L 17.828125 18.703125 
L 11.1875 0 
L 0.78125 0 
z
" id="DejaVuSans-65"/>
       <path d="M 41.109375 46.296875 
Q 39.59375 47.171875 37.8125 47.578125 
Q 36.03125 48 33.890625 48 
Q 26.265625 48 22.1875 43.046875 
Q 18.109375 38.09375 18.109375 28.8125 
L 18.109375 0 
L 9.078125 0 
L 9.078125 54.6875 
L 18.109375 54.6875 
L 18.109375 46.1875 
Q 20.953125 51.171875 25.484375 53.578125 
Q 30.03125 56 36.53125 56 
Q 37.453125 56 38.578125 55.875 
Q 39.703125 55.765625 41.0625 55.515625 
z
" id="DejaVuSans-114"/>
       <path d="M 32.171875 -5.078125 
Q 28.375 -14.84375 24.75 -17.8125 
Q 21.140625 -20.796875 15.09375 -20.796875 
L 7.90625 -20.796875 
L 7.90625 -13.28125 
L 13.1875 -13.28125 
Q 16.890625 -13.28125 18.9375 -11.515625 
Q 21 -9.765625 23.484375 -3.21875 
L 25.09375 0.875 
L 2.984375 54.6875 
L 12.5 54.6875 
L 29.59375 11.921875 
L 46.6875 54.6875 
L 56.203125 54.6875 
z
" id="DejaVuSans-121"/>
      </defs>
      <use xlink:href="#DejaVuSans-65"/>
      <use x="66.658203" xlink:href="#DejaVuSans-99"/>
      <use x="121.638672" xlink:href="#DejaVuSans-99"/>
      <use x="176.619141" xlink:href="#DejaVuSans-117"/>
      <use x="239.998047" xlink:href="#DejaVuSans-114"/>
      <use x="281.111328" xlink:href="#DejaVuSans-97"/>
      <use x="342.390625" xlink:href="#DejaVuSans-99"/>
      <use x="397.371094" xlink:href="#DejaVuSans-121"/>
     </g>
    </g>
   </g>
   <g id="line2d_30">
    <path clip-path="url(#p3686143df9)" d="M 81.531665 269.407771 
L 107.03869 266.124571 
L 132.545716 209.273371 
L 158.052741 120.626971 
L 183.559767 66.713371 
L 209.066792 53.062171 
L 234.576523 44.767771 
L 260.083548 38.892571 
L 285.590574 38.892571 
L 311.097599 39.583771 
L 336.604625 38.201371 
L 362.11165 50.642971 
" style="fill:none;stroke:#db5f57;stroke-width:0.886227;"/>
   </g>
   <g id="line2d_31">
    <path clip-path="url(#p3686143df9)" d="M 81.531665 272.172571 
L 107.03869 264.914971 
L 132.545716 222.924571 
L 158.052741 125.292571 
L 183.559767 71.551771 
L 209.066792 55.826971 
L 234.576523 42.348571 
L 260.083548 64.812571 
L 285.590574 39.929371 
L 311.097599 38.201371 
L 336.604625 38.201371 
L 362.11165 38.201371 
" style="fill:none;stroke:#91db57;stroke-width:0.886227;"/>
   </g>
   <g id="line2d_32">
    <path clip-path="url(#p3686143df9)" d="M 81.531665 272.172571 
L 107.03869 264.223771 
L 132.545716 250.226971 
L 158.052741 217.913371 
L 183.559767 169.874971 
L 209.066792 139.807771 
L 234.576523 89.350171 
L 260.083548 52.716571 
L 285.590574 64.812571 
L 311.097599 51.334171 
L 336.604625 46.841371 
L 362.11165 44.422171 
" style="fill:none;stroke:#57d3db;stroke-width:0.886227;"/>
   </g>
   <g id="line2d_33">
    <path clip-path="url(#p3686143df9)" d="M 81.531665 268.716571 
L 107.03869 270.271771 
L 132.545716 268.716571 
L 158.052741 262.322971 
L 183.559767 253.164571 
L 209.066792 223.442971 
L 234.576523 211.001371 
L 260.083548 179.897371 
L 285.590574 168.146971 
L 311.097599 139.462171 
L 336.604625 98.335771 
L 362.11165 98.681371 
" style="fill:none;stroke:#a157db;stroke-width:0.886227;"/>
   </g>
   <g id="PathCollection_1">
    <path clip-path="url(#p3686143df9)" d="M 81.531665 271.180225 
C 82.001725 271.180225 82.452596 270.993468 82.784979 270.661085 
C 83.117362 270.328702 83.304119 269.877831 83.304119 269.407771 
C 83.304119 268.93771 83.117362 268.486839 82.784979 268.154457 
C 82.452596 267.822074 82.001725 267.635317 81.531665 267.635317 
C 81.061605 267.635317 80.610733 267.822074 80.278351 268.154457 
C 79.945968 268.486839 79.759211 268.93771 79.759211 269.407771 
C 79.759211 269.877831 79.945968 270.328702 80.278351 270.661085 
C 80.610733 270.993468 81.061605 271.180225 81.531665 271.180225 
z
" style="stroke:#000000;stroke-width:0.886227;"/>
    <path clip-path="url(#p3686143df9)" d="M 81.531665 273.945025 
C 82.001725 273.945025 82.452596 273.758268 82.784979 273.425885 
C 83.117362 273.093502 83.304119 272.642631 83.304119 272.172571 
C 83.304119 271.70251 83.117362 271.251639 82.784979 270.919257 
C 82.452596 270.586874 82.001725 270.400117 81.531665 270.400117 
C 81.061605 270.400117 80.610733 270.586874 80.278351 270.919257 
C 79.945968 271.251639 79.759211 271.70251 79.759211 272.172571 
C 79.759211 272.642631 79.945968 273.093502 80.278351 273.425885 
C 80.610733 273.758268 81.061605 273.945025 81.531665 273.945025 
z
" style="stroke:#000000;stroke-width:0.886227;"/>
    <path clip-path="url(#p3686143df9)" d="M 81.531665 273.945025 
C 82.001725 273.945025 82.452596 273.758268 82.784979 273.425885 
C 83.117362 273.093502 83.304119 272.642631 83.304119 272.172571 
C 83.304119 271.70251 83.117362 271.251639 82.784979 270.919257 
C 82.452596 270.586874 82.001725 270.400117 81.531665 270.400117 
C 81.061605 270.400117 80.610733 270.586874 80.278351 270.919257 
C 79.945968 271.251639 79.759211 271.70251 79.759211 272.172571 
C 79.759211 272.642631 79.945968 273.093502 80.278351 273.425885 
C 80.610733 273.758268 81.061605 273.945025 81.531665 273.945025 
z
" style="stroke:#000000;stroke-width:0.886227;"/>
    <path clip-path="url(#p3686143df9)" d="M 81.531665 270.489025 
C 82.001725 270.489025 82.452596 270.302268 82.784979 269.969885 
C 83.117362 269.637502 83.304119 269.186631 83.304119 268.716571 
C 83.304119 268.24651 83.117362 267.795639 82.784979 267.463257 
C 82.452596 267.130874 82.001725 266.944117 81.531665 266.944117 
C 81.061605 266.944117 80.610733 267.130874 80.278351 267.463257 
C 79.945968 267.795639 79.759211 268.24651 79.759211 268.716571 
C 79.759211 269.186631 79.945968 269.637502 80.278351 269.969885 
C 80.610733 270.302268 81.061605 270.489025 81.531665 270.489025 
z
" style="stroke:#000000;stroke-width:0.886227;"/>
    <path clip-path="url(#p3686143df9)" d="M 107.03869 267.897025 
C 107.50875 267.897025 107.959622 267.710268 108.292004 267.377885 
C 108.624387 267.045502 108.811144 266.594631 108.811144 266.124571 
C 108.811144 265.65451 108.624387 265.203639 108.292004 264.871257 
C 107.959622 264.538874 107.50875 264.352117 107.03869 264.352117 
C 106.56863 264.352117 106.117759 264.538874 105.785376 264.871257 
C 105.452993 265.203639 105.266236 265.65451 105.266236 266.124571 
C 105.266236 266.594631 105.452993 267.045502 105.785376 267.377885 
C 106.117759 267.710268 106.56863 267.897025 107.03869 267.897025 
z
" style="stroke:#000000;stroke-width:0.886227;"/>
    <path clip-path="url(#p3686143df9)" d="M 107.03869 266.687425 
C 107.50875 266.687425 107.959622 266.500668 108.292004 266.168285 
C 108.624387 265.835902 108.811144 265.385031 108.811144 264.914971 
C 108.811144 264.44491 108.624387 263.994039 108.292004 263.661657 
C 107.959622 263.329274 107.50875 263.142517 107.03869 263.142517 
C 106.56863 263.142517 106.117759 263.329274 105.785376 263.661657 
C 105.452993 263.994039 105.266236 264.44491 105.266236 264.914971 
C 105.266236 265.385031 105.452993 265.835902 105.785376 266.168285 
C 106.117759 266.500668 106.56863 266.687425 107.03869 266.687425 
z
" style="stroke:#000000;stroke-width:0.886227;"/>
    <path clip-path="url(#p3686143df9)" d="M 107.03869 265.996225 
C 107.50875 265.996225 107.959622 265.809468 108.292004 265.477085 
C 108.624387 265.144702 108.811144 264.693831 108.811144 264.223771 
C 108.811144 263.75371 108.624387 263.302839 108.292004 262.970457 
C 107.959622 262.638074 107.50875 262.451317 107.03869 262.451317 
C 106.56863 262.451317 106.117759 262.638074 105.785376 262.970457 
C 105.452993 263.302839 105.266236 263.75371 105.266236 264.223771 
C 105.266236 264.693831 105.452993 265.144702 105.785376 265.477085 
C 106.117759 265.809468 106.56863 265.996225 107.03869 265.996225 
z
" style="stroke:#000000;stroke-width:0.886227;"/>
    <path clip-path="url(#p3686143df9)" d="M 107.03869 272.044225 
C 107.50875 272.044225 107.959622 271.857468 108.292004 271.525085 
C 108.624387 271.192702 108.811144 270.741831 108.811144 270.271771 
C 108.811144 269.80171 108.624387 269.350839 108.292004 269.018457 
C 107.959622 268.686074 107.50875 268.499317 107.03869 268.499317 
C 106.56863 268.499317 106.117759 268.686074 105.785376 269.018457 
C 105.452993 269.350839 105.266236 269.80171 105.266236 270.271771 
C 105.266236 270.741831 105.452993 271.192702 105.785376 271.525085 
C 106.117759 271.857468 106.56863 272.044225 107.03869 272.044225 
z
" style="stroke:#000000;stroke-width:0.886227;"/>
    <path clip-path="url(#p3686143df9)" d="M 132.545716 211.045825 
C 133.015776 211.045825 133.466647 210.859068 133.79903 210.526685 
C 134.131413 210.194302 134.31817 209.743431 134.31817 209.273371 
C 134.31817 208.80331 134.131413 208.352439 133.79903 208.020057 
C 133.466647 207.687674 133.015776 207.500917 132.545716 207.500917 
C 132.075655 207.500917 131.624784 207.687674 131.292402 208.020057 
C 130.960019 208.352439 130.773262 208.80331 130.773262 209.273371 
C 130.773262 209.743431 130.960019 210.194302 131.292402 210.526685 
C 131.624784 210.859068 132.075655 211.045825 132.545716 211.045825 
z
" style="stroke:#000000;stroke-width:0.886227;"/>
    <path clip-path="url(#p3686143df9)" d="M 132.545716 224.697025 
C 133.015776 224.697025 133.466647 224.510268 133.79903 224.177885 
C 134.131413 223.845502 134.31817 223.394631 134.31817 222.924571 
C 134.31817 222.45451 134.131413 222.003639 133.79903 221.671257 
C 133.466647 221.338874 133.015776 221.152117 132.545716 221.152117 
C 132.075655 221.152117 131.624784 221.338874 131.292402 221.671257 
C 130.960019 222.003639 130.773262 222.45451 130.773262 222.924571 
C 130.773262 223.394631 130.960019 223.845502 131.292402 224.177885 
C 131.624784 224.510268 132.075655 224.697025 132.545716 224.697025 
z
" style="stroke:#000000;stroke-width:0.886227;"/>
    <path clip-path="url(#p3686143df9)" d="M 132.545716 251.999425 
C 133.015776 251.999425 133.466647 251.812668 133.79903 251.480285 
C 134.131413 251.147902 134.31817 250.697031 134.31817 250.226971 
C 134.31817 249.75691 134.131413 249.306039 133.79903 248.973657 
C 133.466647 248.641274 133.015776 248.454517 132.545716 248.454517 
C 132.075655 248.454517 131.624784 248.641274 131.292402 248.973657 
C 130.960019 249.306039 130.773262 249.75691 130.773262 250.226971 
C 130.773262 250.697031 130.960019 251.147902 131.292402 251.480285 
C 131.624784 251.812668 132.075655 251.999425 132.545716 251.999425 
z
" style="stroke:#000000;stroke-width:0.886227;"/>
    <path clip-path="url(#p3686143df9)" d="M 132.545716 270.489025 
C 133.015776 270.489025 133.466647 270.302268 133.79903 269.969885 
C 134.131413 269.637502 134.31817 269.186631 134.31817 268.716571 
C 134.31817 268.24651 134.131413 267.795639 133.79903 267.463257 
C 133.466647 267.130874 133.015776 266.944117 132.545716 266.944117 
C 132.075655 266.944117 131.624784 267.130874 131.292402 267.463257 
C 130.960019 267.795639 130.773262 268.24651 130.773262 268.716571 
C 130.773262 269.186631 130.960019 269.637502 131.292402 269.969885 
C 131.624784 270.302268 132.075655 270.489025 132.545716 270.489025 
z
" style="stroke:#000000;stroke-width:0.886227;"/>
    <path clip-path="url(#p3686143df9)" d="M 158.052741 122.399425 
C 158.522801 122.399425 158.973672 122.212668 159.306055 121.880285 
C 159.638438 121.547902 159.825195 121.097031 159.825195 120.626971 
C 159.825195 120.15691 159.638438 119.706039 159.306055 119.373657 
C 158.973672 119.041274 158.522801 118.854517 158.052741 118.854517 
C 157.582681 118.854517 157.13181 119.041274 156.799427 119.373657 
C 156.467044 119.706039 156.280287 120.15691 156.280287 120.626971 
C 156.280287 121.097031 156.467044 121.547902 156.799427 121.880285 
C 157.13181 122.212668 157.582681 122.399425 158.052741 122.399425 
z
" style="stroke:#000000;stroke-width:0.886227;"/>
    <path clip-path="url(#p3686143df9)" d="M 158.052741 127.065025 
C 158.522801 127.065025 158.973672 126.878268 159.306055 126.545885 
C 159.638438 126.213502 159.825195 125.762631 159.825195 125.292571 
C 159.825195 124.82251 159.638438 124.371639 159.306055 124.039257 
C 158.973672 123.706874 158.522801 123.520117 158.052741 123.520117 
C 157.582681 123.520117 157.13181 123.706874 156.799427 124.039257 
C 156.467044 124.371639 156.280287 124.82251 156.280287 125.292571 
C 156.280287 125.762631 156.467044 126.213502 156.799427 126.545885 
C 157.13181 126.878268 157.582681 127.065025 158.052741 127.065025 
z
" style="stroke:#000000;stroke-width:0.886227;"/>
    <path clip-path="url(#p3686143df9)" d="M 158.052741 219.685825 
C 158.522801 219.685825 158.973672 219.499068 159.306055 219.166685 
C 159.638438 218.834302 159.825195 218.383431 159.825195 217.913371 
C 159.825195 217.44331 159.638438 216.992439 159.306055 216.660057 
C 158.973672 216.327674 158.522801 216.140917 158.052741 216.140917 
C 157.582681 216.140917 157.13181 216.327674 156.799427 216.660057 
C 156.467044 216.992439 156.280287 217.44331 156.280287 217.913371 
C 156.280287 218.383431 156.467044 218.834302 156.799427 219.166685 
C 157.13181 219.499068 157.582681 219.685825 158.052741 219.685825 
z
" style="stroke:#000000;stroke-width:0.886227;"/>
    <path clip-path="url(#p3686143df9)" d="M 158.052741 264.095425 
C 158.522801 264.095425 158.973672 263.908668 159.306055 263.576285 
C 159.638438 263.243902 159.825195 262.793031 159.825195 262.322971 
C 159.825195 261.85291 159.638438 261.402039 159.306055 261.069657 
C 158.973672 260.737274 158.522801 260.550517 158.052741 260.550517 
C 157.582681 260.550517 157.13181 260.737274 156.799427 261.069657 
C 156.467044 261.402039 156.280287 261.85291 156.280287 262.322971 
C 156.280287 262.793031 156.467044 263.243902 156.799427 263.576285 
C 157.13181 263.908668 157.582681 264.095425 158.052741 264.095425 
z
" style="stroke:#000000;stroke-width:0.886227;"/>
    <path clip-path="url(#p3686143df9)" d="M 183.559767 68.485825 
C 184.029827 68.485825 184.480698 68.299068 184.813081 67.966685 
C 185.145464 67.634302 185.33222 67.183431 185.33222 66.713371 
C 185.33222 66.24331 185.145464 65.792439 184.813081 65.460057 
C 184.480698 65.127674 184.029827 64.940917 183.559767 64.940917 
C 183.089706 64.940917 182.638835 65.127674 182.306452 65.460057 
C 181.97407 65.792439 181.787313 66.24331 181.787313 66.713371 
C 181.787313 67.183431 181.97407 67.634302 182.306452 67.966685 
C 182.638835 68.299068 183.089706 68.485825 183.559767 68.485825 
z
" style="stroke:#000000;stroke-width:0.886227;"/>
    <path clip-path="url(#p3686143df9)" d="M 183.559767 73.324225 
C 184.029827 73.324225 184.480698 73.137468 184.813081 72.805085 
C 185.145464 72.472702 185.33222 72.021831 185.33222 71.551771 
C 185.33222 71.08171 185.145464 70.630839 184.813081 70.298457 
C 184.480698 69.966074 184.029827 69.779317 183.559767 69.779317 
C 183.089706 69.779317 182.638835 69.966074 182.306452 70.298457 
C 181.97407 70.630839 181.787313 71.08171 181.787313 71.551771 
C 181.787313 72.021831 181.97407 72.472702 182.306452 72.805085 
C 182.638835 73.137468 183.089706 73.324225 183.559767 73.324225 
z
" style="stroke:#000000;stroke-width:0.886227;"/>
    <path clip-path="url(#p3686143df9)" d="M 183.559767 171.647425 
C 184.029827 171.647425 184.480698 171.460668 184.813081 171.128285 
C 185.145464 170.795902 185.33222 170.345031 185.33222 169.874971 
C 185.33222 169.40491 185.145464 168.954039 184.813081 168.621657 
C 184.480698 168.289274 184.029827 168.102517 183.559767 168.102517 
C 183.089706 168.102517 182.638835 168.289274 182.306452 168.621657 
C 181.97407 168.954039 181.787313 169.40491 181.787313 169.874971 
C 181.787313 170.345031 181.97407 170.795902 182.306452 171.128285 
C 182.638835 171.460668 183.089706 171.647425 183.559767 171.647425 
z
" style="stroke:#000000;stroke-width:0.886227;"/>
    <path clip-path="url(#p3686143df9)" d="M 183.559767 254.937025 
C 184.029827 254.937025 184.480698 254.750268 184.813081 254.417885 
C 185.145464 254.085502 185.33222 253.634631 185.33222 253.164571 
C 185.33222 252.69451 185.145464 252.243639 184.813081 251.911257 
C 184.480698 251.578874 184.029827 251.392117 183.559767 251.392117 
C 183.089706 251.392117 182.638835 251.578874 182.306452 251.911257 
C 181.97407 252.243639 181.787313 252.69451 181.787313 253.164571 
C 181.787313 253.634631 181.97407 254.085502 182.306452 254.417885 
C 182.638835 254.750268 183.089706 254.937025 183.559767 254.937025 
z
" style="stroke:#000000;stroke-width:0.886227;"/>
    <path clip-path="url(#p3686143df9)" d="M 209.066792 54.834625 
C 209.536852 54.834625 209.987723 54.647868 210.320106 54.315485 
C 210.652489 53.983102 210.839246 53.532231 210.839246 53.062171 
C 210.839246 52.59211 210.652489 52.141239 210.320106 51.808857 
C 209.987723 51.476474 209.536852 51.289717 209.066792 51.289717 
C 208.596732 51.289717 208.145861 51.476474 207.813478 51.808857 
C 207.481095 52.141239 207.294338 52.59211 207.294338 53.062171 
C 207.294338 53.532231 207.481095 53.983102 207.813478 54.315485 
C 208.145861 54.647868 208.596732 54.834625 209.066792 54.834625 
z
" style="stroke:#000000;stroke-width:0.886227;"/>
    <path clip-path="url(#p3686143df9)" d="M 209.066792 57.599425 
C 209.536852 57.599425 209.987723 57.412668 210.320106 57.080285 
C 210.652489 56.747902 210.839246 56.297031 210.839246 55.826971 
C 210.839246 55.35691 210.652489 54.906039 210.320106 54.573657 
C 209.987723 54.241274 209.536852 54.054517 209.066792 54.054517 
C 208.596732 54.054517 208.145861 54.241274 207.813478 54.573657 
C 207.481095 54.906039 207.294338 55.35691 207.294338 55.826971 
C 207.294338 56.297031 207.481095 56.747902 207.813478 57.080285 
C 208.145861 57.412668 208.596732 57.599425 209.066792 57.599425 
z
" style="stroke:#000000;stroke-width:0.886227;"/>
    <path clip-path="url(#p3686143df9)" d="M 209.066792 141.580225 
C 209.536852 141.580225 209.987723 141.393468 210.320106 141.061085 
C 210.652489 140.728702 210.839246 140.277831 210.839246 139.807771 
C 210.839246 139.33771 210.652489 138.886839 210.320106 138.554457 
C 209.987723 138.222074 209.536852 138.035317 209.066792 138.035317 
C 208.596732 138.035317 208.145861 138.222074 207.813478 138.554457 
C 207.481095 138.886839 207.294338 139.33771 207.294338 139.807771 
C 207.294338 140.277831 207.481095 140.728702 207.813478 141.061085 
C 208.145861 141.393468 208.596732 141.580225 209.066792 141.580225 
z
" style="stroke:#000000;stroke-width:0.886227;"/>
    <path clip-path="url(#p3686143df9)" d="M 209.066792 225.215425 
C 209.536852 225.215425 209.987723 225.028668 210.320106 224.696285 
C 210.652489 224.363902 210.839246 223.913031 210.839246 223.442971 
C 210.839246 222.97291 210.652489 222.522039 210.320106 222.189657 
C 209.987723 221.857274 209.536852 221.670517 209.066792 221.670517 
C 208.596732 221.670517 208.145861 221.857274 207.813478 222.189657 
C 207.481095 222.522039 207.294338 222.97291 207.294338 223.442971 
C 207.294338 223.913031 207.481095 224.363902 207.813478 224.696285 
C 208.145861 225.028668 208.596732 225.215425 209.066792 225.215425 
z
" style="stroke:#000000;stroke-width:0.886227;"/>
    <path clip-path="url(#p3686143df9)" d="M 234.576523 46.540225 
C 235.046583 46.540225 235.497454 46.353468 235.829837 46.021085 
C 236.16222 45.688702 236.348977 45.237831 236.348977 44.767771 
C 236.348977 44.29771 236.16222 43.846839 235.829837 43.514457 
C 235.497454 43.182074 235.046583 42.995317 234.576523 42.995317 
C 234.106463 42.995317 233.655592 43.182074 233.323209 43.514457 
C 232.990826 43.846839 232.804069 44.29771 232.804069 44.767771 
C 232.804069 45.237831 232.990826 45.688702 233.323209 46.021085 
C 233.655592 46.353468 234.106463 46.540225 234.576523 46.540225 
z
" style="stroke:#000000;stroke-width:0.886227;"/>
    <path clip-path="url(#p3686143df9)" d="M 234.576523 44.121025 
C 235.046583 44.121025 235.497454 43.934268 235.829837 43.601885 
C 236.16222 43.269502 236.348977 42.818631 236.348977 42.348571 
C 236.348977 41.87851 236.16222 41.427639 235.829837 41.095257 
C 235.497454 40.762874 235.046583 40.576117 234.576523 40.576117 
C 234.106463 40.576117 233.655592 40.762874 233.323209 41.095257 
C 232.990826 41.427639 232.804069 41.87851 232.804069 42.348571 
C 232.804069 42.818631 232.990826 43.269502 233.323209 43.601885 
C 233.655592 43.934268 234.106463 44.121025 234.576523 44.121025 
z
" style="stroke:#000000;stroke-width:0.886227;"/>
    <path clip-path="url(#p3686143df9)" d="M 234.576523 91.122625 
C 235.046583 91.122625 235.497454 90.935868 235.829837 90.603485 
C 236.16222 90.271102 236.348977 89.820231 236.348977 89.350171 
C 236.348977 88.88011 236.16222 88.429239 235.829837 88.096857 
C 235.497454 87.764474 235.046583 87.577717 234.576523 87.577717 
C 234.106463 87.577717 233.655592 87.764474 233.323209 88.096857 
C 232.990826 88.429239 232.804069 88.88011 232.804069 89.350171 
C 232.804069 89.820231 232.990826 90.271102 233.323209 90.603485 
C 233.655592 90.935868 234.106463 91.122625 234.576523 91.122625 
z
" style="stroke:#000000;stroke-width:0.886227;"/>
    <path clip-path="url(#p3686143df9)" d="M 234.576523 212.773825 
C 235.046583 212.773825 235.497454 212.587068 235.829837 212.254685 
C 236.16222 211.922302 236.348977 211.471431 236.348977 211.001371 
C 236.348977 210.53131 236.16222 210.080439 235.829837 209.748057 
C 235.497454 209.415674 235.046583 209.228917 234.576523 209.228917 
C 234.106463 209.228917 233.655592 209.415674 233.323209 209.748057 
C 232.990826 210.080439 232.804069 210.53131 232.804069 211.001371 
C 232.804069 211.471431 232.990826 211.922302 233.323209 212.254685 
C 233.655592 212.587068 234.106463 212.773825 234.576523 212.773825 
z
" style="stroke:#000000;stroke-width:0.886227;"/>
    <path clip-path="url(#p3686143df9)" d="M 260.083548 40.665025 
C 260.553609 40.665025 261.00448 40.478268 261.336863 40.145885 
C 261.669245 39.813502 261.856002 39.362631 261.856002 38.892571 
C 261.856002 38.42251 261.669245 37.971639 261.336863 37.639257 
C 261.00448 37.306874 260.553609 37.120117 260.083548 37.120117 
C 259.613488 37.120117 259.162617 37.306874 258.830234 37.639257 
C 258.497851 37.971639 258.311095 38.42251 258.311095 38.892571 
C 258.311095 39.362631 258.497851 39.813502 258.830234 40.145885 
C 259.162617 40.478268 259.613488 40.665025 260.083548 40.665025 
z
" style="stroke:#000000;stroke-width:0.886227;"/>
    <path clip-path="url(#p3686143df9)" d="M 260.083548 66.585025 
C 260.553609 66.585025 261.00448 66.398268 261.336863 66.065885 
C 261.669245 65.733502 261.856002 65.282631 261.856002 64.812571 
C 261.856002 64.34251 261.669245 63.891639 261.336863 63.559257 
C 261.00448 63.226874 260.553609 63.040117 260.083548 63.040117 
C 259.613488 63.040117 259.162617 63.226874 258.830234 63.559257 
C 258.497851 63.891639 258.311095 64.34251 258.311095 64.812571 
C 258.311095 65.282631 258.497851 65.733502 258.830234 66.065885 
C 259.162617 66.398268 259.613488 66.585025 260.083548 66.585025 
z
" style="stroke:#000000;stroke-width:0.886227;"/>
    <path clip-path="url(#p3686143df9)" d="M 260.083548 54.489025 
C 260.553609 54.489025 261.00448 54.302268 261.336863 53.969885 
C 261.669245 53.637502 261.856002 53.186631 261.856002 52.716571 
C 261.856002 52.24651 261.669245 51.795639 261.336863 51.463257 
C 261.00448 51.130874 260.553609 50.944117 260.083548 50.944117 
C 259.613488 50.944117 259.162617 51.130874 258.830234 51.463257 
C 258.497851 51.795639 258.311095 52.24651 258.311095 52.716571 
C 258.311095 53.186631 258.497851 53.637502 258.830234 53.969885 
C 259.162617 54.302268 259.613488 54.489025 260.083548 54.489025 
z
" style="stroke:#000000;stroke-width:0.886227;"/>
    <path clip-path="url(#p3686143df9)" d="M 260.083548 181.669825 
C 260.553609 181.669825 261.00448 181.483068 261.336863 181.150685 
C 261.669245 180.818302 261.856002 180.367431 261.856002 179.897371 
C 261.856002 179.42731 261.669245 178.976439 261.336863 178.644057 
C 261.00448 178.311674 260.553609 178.124917 260.083548 178.124917 
C 259.613488 178.124917 259.162617 178.311674 258.830234 178.644057 
C 258.497851 178.976439 258.311095 179.42731 258.311095 179.897371 
C 258.311095 180.367431 258.497851 180.818302 258.830234 181.150685 
C 259.162617 181.483068 259.613488 181.669825 260.083548 181.669825 
z
" style="stroke:#000000;stroke-width:0.886227;"/>
    <path clip-path="url(#p3686143df9)" d="M 285.590574 40.665025 
C 286.060634 40.665025 286.511505 40.478268 286.843888 40.145885 
C 287.176271 39.813502 287.363028 39.362631 287.363028 38.892571 
C 287.363028 38.42251 287.176271 37.971639 286.843888 37.639257 
C 286.511505 37.306874 286.060634 37.120117 285.590574 37.120117 
C 285.120514 37.120117 284.669643 37.306874 284.33726 37.639257 
C 284.004877 37.971639 283.81812 38.42251 283.81812 38.892571 
C 283.81812 39.362631 284.004877 39.813502 284.33726 40.145885 
C 284.669643 40.478268 285.120514 40.665025 285.590574 40.665025 
z
" style="stroke:#000000;stroke-width:0.886227;"/>
    <path clip-path="url(#p3686143df9)" d="M 285.590574 41.701825 
C 286.060634 41.701825 286.511505 41.515068 286.843888 41.182685 
C 287.176271 40.850302 287.363028 40.399431 287.363028 39.929371 
C 287.363028 39.45931 287.176271 39.008439 286.843888 38.676057 
C 286.511505 38.343674 286.060634 38.156917 285.590574 38.156917 
C 285.120514 38.156917 284.669643 38.343674 284.33726 38.676057 
C 284.004877 39.008439 283.81812 39.45931 283.81812 39.929371 
C 283.81812 40.399431 284.004877 40.850302 284.33726 41.182685 
C 284.669643 41.515068 285.120514 41.701825 285.590574 41.701825 
z
" style="stroke:#000000;stroke-width:0.886227;"/>
    <path clip-path="url(#p3686143df9)" d="M 285.590574 66.585025 
C 286.060634 66.585025 286.511505 66.398268 286.843888 66.065885 
C 287.176271 65.733502 287.363028 65.282631 287.363028 64.812571 
C 287.363028 64.34251 287.176271 63.891639 286.843888 63.559257 
C 286.511505 63.226874 286.060634 63.040117 285.590574 63.040117 
C 285.120514 63.040117 284.669643 63.226874 284.33726 63.559257 
C 284.004877 63.891639 283.81812 64.34251 283.81812 64.812571 
C 283.81812 65.282631 284.004877 65.733502 284.33726 66.065885 
C 284.669643 66.398268 285.120514 66.585025 285.590574 66.585025 
z
" style="stroke:#000000;stroke-width:0.886227;"/>
    <path clip-path="url(#p3686143df9)" d="M 285.590574 169.919425 
C 286.060634 169.919425 286.511505 169.732668 286.843888 169.400285 
C 287.176271 169.067902 287.363028 168.617031 287.363028 168.146971 
C 287.363028 167.67691 287.176271 167.226039 286.843888 166.893657 
C 286.511505 166.561274 286.060634 166.374517 285.590574 166.374517 
C 285.120514 166.374517 284.669643 166.561274 284.33726 166.893657 
C 284.004877 167.226039 283.81812 167.67691 283.81812 168.146971 
C 283.81812 168.617031 284.004877 169.067902 284.33726 169.400285 
C 284.669643 169.732668 285.120514 169.919425 285.590574 169.919425 
z
" style="stroke:#000000;stroke-width:0.886227;"/>
    <path clip-path="url(#p3686143df9)" d="M 311.097599 41.356225 
C 311.56766 41.356225 312.018531 41.169468 312.350913 40.837085 
C 312.683296 40.504702 312.870053 40.053831 312.870053 39.583771 
C 312.870053 39.11371 312.683296 38.662839 312.350913 38.330457 
C 312.018531 37.998074 311.56766 37.811317 311.097599 37.811317 
C 310.627539 37.811317 310.176668 37.998074 309.844285 38.330457 
C 309.511902 38.662839 309.325145 39.11371 309.325145 39.583771 
C 309.325145 40.053831 309.511902 40.504702 309.844285 40.837085 
C 310.176668 41.169468 310.627539 41.356225 311.097599 41.356225 
z
" style="stroke:#000000;stroke-width:0.886227;"/>
    <path clip-path="url(#p3686143df9)" d="M 311.097599 39.973825 
C 311.56766 39.973825 312.018531 39.787068 312.350913 39.454685 
C 312.683296 39.122302 312.870053 38.671431 312.870053 38.201371 
C 312.870053 37.73131 312.683296 37.280439 312.350913 36.948057 
C 312.018531 36.615674 311.56766 36.428917 311.097599 36.428917 
C 310.627539 36.428917 310.176668 36.615674 309.844285 36.948057 
C 309.511902 37.280439 309.325145 37.73131 309.325145 38.201371 
C 309.325145 38.671431 309.511902 39.122302 309.844285 39.454685 
C 310.176668 39.787068 310.627539 39.973825 311.097599 39.973825 
z
" style="stroke:#000000;stroke-width:0.886227;"/>
    <path clip-path="url(#p3686143df9)" d="M 311.097599 53.106625 
C 311.56766 53.106625 312.018531 52.919868 312.350913 52.587485 
C 312.683296 52.255102 312.870053 51.804231 312.870053 51.334171 
C 312.870053 50.86411 312.683296 50.413239 312.350913 50.080857 
C 312.018531 49.748474 311.56766 49.561717 311.097599 49.561717 
C 310.627539 49.561717 310.176668 49.748474 309.844285 50.080857 
C 309.511902 50.413239 309.325145 50.86411 309.325145 51.334171 
C 309.325145 51.804231 309.511902 52.255102 309.844285 52.587485 
C 310.176668 52.919868 310.627539 53.106625 311.097599 53.106625 
z
" style="stroke:#000000;stroke-width:0.886227;"/>
    <path clip-path="url(#p3686143df9)" d="M 311.097599 141.234625 
C 311.56766 141.234625 312.018531 141.047868 312.350913 140.715485 
C 312.683296 140.383102 312.870053 139.932231 312.870053 139.462171 
C 312.870053 138.99211 312.683296 138.541239 312.350913 138.208857 
C 312.018531 137.876474 311.56766 137.689717 311.097599 137.689717 
C 310.627539 137.689717 310.176668 137.876474 309.844285 138.208857 
C 309.511902 138.541239 309.325145 138.99211 309.325145 139.462171 
C 309.325145 139.932231 309.511902 140.383102 309.844285 140.715485 
C 310.176668 141.047868 310.627539 141.234625 311.097599 141.234625 
z
" style="stroke:#000000;stroke-width:0.886227;"/>
    <path clip-path="url(#p3686143df9)" d="M 336.604625 39.973825 
C 337.074685 39.973825 337.525556 39.787068 337.857939 39.454685 
C 338.190322 39.122302 338.377079 38.671431 338.377079 38.201371 
C 338.377079 37.73131 338.190322 37.280439 337.857939 36.948057 
C 337.525556 36.615674 337.074685 36.428917 336.604625 36.428917 
C 336.134565 36.428917 335.683693 36.615674 335.351311 36.948057 
C 335.018928 37.280439 334.832171 37.73131 334.832171 38.201371 
C 334.832171 38.671431 335.018928 39.122302 335.351311 39.454685 
C 335.683693 39.787068 336.134565 39.973825 336.604625 39.973825 
z
" style="stroke:#000000;stroke-width:0.886227;"/>
    <path clip-path="url(#p3686143df9)" d="M 336.604625 39.973825 
C 337.074685 39.973825 337.525556 39.787068 337.857939 39.454685 
C 338.190322 39.122302 338.377079 38.671431 338.377079 38.201371 
C 338.377079 37.73131 338.190322 37.280439 337.857939 36.948057 
C 337.525556 36.615674 337.074685 36.428917 336.604625 36.428917 
C 336.134565 36.428917 335.683693 36.615674 335.351311 36.948057 
C 335.018928 37.280439 334.832171 37.73131 334.832171 38.201371 
C 334.832171 38.671431 335.018928 39.122302 335.351311 39.454685 
C 335.683693 39.787068 336.134565 39.973825 336.604625 39.973825 
z
" style="stroke:#000000;stroke-width:0.886227;"/>
    <path clip-path="url(#p3686143df9)" d="M 336.604625 48.613825 
C 337.074685 48.613825 337.525556 48.427068 337.857939 48.094685 
C 338.190322 47.762302 338.377079 47.311431 338.377079 46.841371 
C 338.377079 46.37131 338.190322 45.920439 337.857939 45.588057 
C 337.525556 45.255674 337.074685 45.068917 336.604625 45.068917 
C 336.134565 45.068917 335.683693 45.255674 335.351311 45.588057 
C 335.018928 45.920439 334.832171 46.37131 334.832171 46.841371 
C 334.832171 47.311431 335.018928 47.762302 335.351311 48.094685 
C 335.683693 48.427068 336.134565 48.613825 336.604625 48.613825 
z
" style="stroke:#000000;stroke-width:0.886227;"/>
    <path clip-path="url(#p3686143df9)" d="M 336.604625 100.108225 
C 337.074685 100.108225 337.525556 99.921468 337.857939 99.589085 
C 338.190322 99.256702 338.377079 98.805831 338.377079 98.335771 
C 338.377079 97.86571 338.190322 97.414839 337.857939 97.082457 
C 337.525556 96.750074 337.074685 96.563317 336.604625 96.563317 
C 336.134565 96.563317 335.683693 96.750074 335.351311 97.082457 
C 335.018928 97.414839 334.832171 97.86571 334.832171 98.335771 
C 334.832171 98.805831 335.018928 99.256702 335.351311 99.589085 
C 335.683693 99.921468 336.134565 100.108225 336.604625 100.108225 
z
" style="stroke:#000000;stroke-width:0.886227;"/>
    <path clip-path="url(#p3686143df9)" d="M 362.11165 52.415425 
C 362.58171 52.415425 363.032582 52.228668 363.364964 51.896285 
C 363.697347 51.563902 363.884104 51.113031 363.884104 50.642971 
C 363.884104 50.17291 363.697347 49.722039 363.364964 49.389657 
C 363.032582 49.057274 362.58171 48.870517 362.11165 48.870517 
C 361.64159 48.870517 361.190719 49.057274 360.858336 49.389657 
C 360.525953 49.722039 360.339196 50.17291 360.339196 50.642971 
C 360.339196 51.113031 360.525953 51.563902 360.858336 51.896285 
C 361.190719 52.228668 361.64159 52.415425 362.11165 52.415425 
z
" style="stroke:#000000;stroke-width:0.886227;"/>
    <path clip-path="url(#p3686143df9)" d="M 362.11165 39.973825 
C 362.58171 39.973825 363.032582 39.787068 363.364964 39.454685 
C 363.697347 39.122302 363.884104 38.671431 363.884104 38.201371 
C 363.884104 37.73131 363.697347 37.280439 363.364964 36.948057 
C 363.032582 36.615674 362.58171 36.428917 362.11165 36.428917 
C 361.64159 36.428917 361.190719 36.615674 360.858336 36.948057 
C 360.525953 37.280439 360.339196 37.73131 360.339196 38.201371 
C 360.339196 38.671431 360.525953 39.122302 360.858336 39.454685 
C 361.190719 39.787068 361.64159 39.973825 362.11165 39.973825 
z
" style="stroke:#000000;stroke-width:0.886227;"/>
    <path clip-path="url(#p3686143df9)" d="M 362.11165 46.194625 
C 362.58171 46.194625 363.032582 46.007868 363.364964 45.675485 
C 363.697347 45.343102 363.884104 44.892231 363.884104 44.422171 
C 363.884104 43.95211 363.697347 43.501239 363.364964 43.168857 
C 363.032582 42.836474 362.58171 42.649717 362.11165 42.649717 
C 361.64159 42.649717 361.190719 42.836474 360.858336 43.168857 
C 360.525953 43.501239 360.339196 43.95211 360.339196 44.422171 
C 360.339196 44.892231 360.525953 45.343102 360.858336 45.675485 
C 361.190719 46.007868 361.64159 46.194625 362.11165 46.194625 
z
" style="stroke:#000000;stroke-width:0.886227;"/>
    <path clip-path="url(#p3686143df9)" d="M 362.11165 100.453825 
C 362.58171 100.453825 363.032582 100.267068 363.364964 99.934685 
C 363.697347 99.602302 363.884104 99.151431 363.884104 98.681371 
C 363.884104 98.21131 363.697347 97.760439 363.364964 97.428057 
C 363.032582 97.095674 362.58171 96.908917 362.11165 96.908917 
C 361.64159 96.908917 361.190719 97.095674 360.858336 97.428057 
C 360.525953 97.760439 360.339196 98.21131 360.339196 98.681371 
C 360.339196 99.151431 360.525953 99.602302 360.858336 99.934685 
C 361.190719 100.267068 361.64159 100.453825 362.11165 100.453825 
z
" style="stroke:#000000;stroke-width:0.886227;"/>
   </g>
   <g id="LineCollection_1">
    <path clip-path="url(#p3686143df9)" d="M 83.019665 272.560549 
" style="fill:none;stroke:#db5f57;stroke-width:0.886227;"/>
    <path clip-path="url(#p3686143df9)" d="M 105.55069 269.106771 
L 108.52669 269.106771 
" style="fill:none;stroke:#db5f57;stroke-width:0.886227;"/>
    <path clip-path="url(#p3686143df9)" d="M 131.057716 216.068423 
L 134.033716 216.068423 
" style="fill:none;stroke:#db5f57;stroke-width:0.886227;"/>
    <path clip-path="url(#p3686143df9)" d="M 156.564741 130.221159 
L 159.540741 130.221159 
" style="fill:none;stroke:#db5f57;stroke-width:0.886227;"/>
    <path clip-path="url(#p3686143df9)" d="M 182.071767 72.007609 
L 185.047767 72.007609 
" style="fill:none;stroke:#db5f57;stroke-width:0.886227;"/>
    <path clip-path="url(#p3686143df9)" d="M 207.578792 57.054478 
L 210.554792 57.054478 
" style="fill:none;stroke:#db5f57;stroke-width:0.886227;"/>
    <path clip-path="url(#p3686143df9)" d="M 233.088523 48.390623 
L 236.064523 48.390623 
" style="fill:none;stroke:#db5f57;stroke-width:0.886227;"/>
    <path clip-path="url(#p3686143df9)" d="M 258.595548 39.583771 
L 261.571548 39.583771 
" style="fill:none;stroke:#db5f57;stroke-width:0.886227;"/>
    <path clip-path="url(#p3686143df9)" d="M 284.102574 39.353371 
L 287.078574 39.353371 
" style="fill:none;stroke:#db5f57;stroke-width:0.886227;"/>
    <path clip-path="url(#p3686143df9)" d="M 309.609599 40.639596 
L 312.585599 40.639596 
" style="fill:none;stroke:#db5f57;stroke-width:0.886227;"/>
    <path clip-path="url(#p3686143df9)" d="M 335.116625 38.201371 
L 338.092625 38.201371 
" style="fill:none;stroke:#db5f57;stroke-width:0.886227;"/>
    <path clip-path="url(#p3686143df9)" d="M 360.62365 63.084571 
L 363.59965 63.084571 
" style="fill:none;stroke:#db5f57;stroke-width:0.886227;"/>
    <path clip-path="url(#p3686143df9)" d="M 83.019665 266.254993 
" style="fill:none;stroke:#db5f57;stroke-width:0.886227;"/>
    <path clip-path="url(#p3686143df9)" d="M 105.55069 263.142371 
L 108.52669 263.142371 
" style="fill:none;stroke:#db5f57;stroke-width:0.886227;"/>
    <path clip-path="url(#p3686143df9)" d="M 131.057716 202.478318 
L 134.033716 202.478318 
" style="fill:none;stroke:#db5f57;stroke-width:0.886227;"/>
    <path clip-path="url(#p3686143df9)" d="M 156.564741 111.032782 
L 159.540741 111.032782 
" style="fill:none;stroke:#db5f57;stroke-width:0.886227;"/>
    <path clip-path="url(#p3686143df9)" d="M 182.071767 61.419132 
L 185.047767 61.419132 
" style="fill:none;stroke:#db5f57;stroke-width:0.886227;"/>
    <path clip-path="url(#p3686143df9)" d="M 207.578792 49.069863 
L 210.554792 49.069863 
" style="fill:none;stroke:#db5f57;stroke-width:0.886227;"/>
    <path clip-path="url(#p3686143df9)" d="M 233.088523 41.144918 
L 236.064523 41.144918 
" style="fill:none;stroke:#db5f57;stroke-width:0.886227;"/>
    <path clip-path="url(#p3686143df9)" d="M 258.595548 38.201371 
L 261.571548 38.201371 
" style="fill:none;stroke:#db5f57;stroke-width:0.886227;"/>
    <path clip-path="url(#p3686143df9)" d="M 284.102574 38.431771 
L 287.078574 38.431771 
" style="fill:none;stroke:#db5f57;stroke-width:0.886227;"/>
    <path clip-path="url(#p3686143df9)" d="M 309.609599 38.527945 
L 312.585599 38.527945 
" style="fill:none;stroke:#db5f57;stroke-width:0.886227;"/>
    <path clip-path="url(#p3686143df9)" d="M 335.116625 38.201371 
L 338.092625 38.201371 
" style="fill:none;stroke:#db5f57;stroke-width:0.886227;"/>
    <path clip-path="url(#p3686143df9)" d="M 360.62365 38.201371 
L 363.59965 38.201371 
" style="fill:none;stroke:#db5f57;stroke-width:0.886227;"/>
    <path clip-path="url(#p3686143df9)" d="M 81.531665 266.254993 
L 81.531665 272.560549 
" style="fill:none;stroke:#db5f57;stroke-width:0.886227;"/>
    <path clip-path="url(#p3686143df9)" d="M 107.03869 263.142371 
L 107.03869 269.106771 
" style="fill:none;stroke:#db5f57;stroke-width:0.886227;"/>
    <path clip-path="url(#p3686143df9)" d="M 132.545716 202.478318 
L 132.545716 216.068423 
" style="fill:none;stroke:#db5f57;stroke-width:0.886227;"/>
    <path clip-path="url(#p3686143df9)" d="M 158.052741 111.032782 
L 158.052741 130.221159 
" style="fill:none;stroke:#db5f57;stroke-width:0.886227;"/>
    <path clip-path="url(#p3686143df9)" d="M 183.559767 61.419132 
L 183.559767 72.007609 
" style="fill:none;stroke:#db5f57;stroke-width:0.886227;"/>
    <path clip-path="url(#p3686143df9)" d="M 209.066792 49.069863 
L 209.066792 57.054478 
" style="fill:none;stroke:#db5f57;stroke-width:0.886227;"/>
    <path clip-path="url(#p3686143df9)" d="M 234.576523 41.144918 
L 234.576523 48.390623 
" style="fill:none;stroke:#db5f57;stroke-width:0.886227;"/>
    <path clip-path="url(#p3686143df9)" d="M 260.083548 38.201371 
L 260.083548 39.583771 
" style="fill:none;stroke:#db5f57;stroke-width:0.886227;"/>
    <path clip-path="url(#p3686143df9)" d="M 285.590574 38.431771 
L 285.590574 39.353371 
" style="fill:none;stroke:#db5f57;stroke-width:0.886227;"/>
    <path clip-path="url(#p3686143df9)" d="M 311.097599 38.527945 
L 311.097599 40.639596 
" style="fill:none;stroke:#db5f57;stroke-width:0.886227;"/>
    <path clip-path="url(#p3686143df9)" d="M 336.604625 38.201371 
L 336.604625 38.201371 
" style="fill:none;stroke:#db5f57;stroke-width:0.886227;"/>
    <path clip-path="url(#p3686143df9)" d="M 362.11165 38.201371 
L 362.11165 63.084571 
" style="fill:none;stroke:#db5f57;stroke-width:0.886227;"/>
   </g>
   <g id="LineCollection_2">
    <path clip-path="url(#p3686143df9)" d="M 83.019665 274.699104 
" style="fill:none;stroke:#91db57;stroke-width:0.886227;"/>
    <path clip-path="url(#p3686143df9)" d="M 105.55069 267.643149 
L 108.52669 267.643149 
" style="fill:none;stroke:#91db57;stroke-width:0.886227;"/>
    <path clip-path="url(#p3686143df9)" d="M 131.057716 230.123795 
L 134.033716 230.123795 
" style="fill:none;stroke:#91db57;stroke-width:0.886227;"/>
    <path clip-path="url(#p3686143df9)" d="M 156.564741 132.920534 
L 159.540741 132.920534 
" style="fill:none;stroke:#91db57;stroke-width:0.886227;"/>
    <path clip-path="url(#p3686143df9)" d="M 182.071767 78.219702 
L 185.047767 78.219702 
" style="fill:none;stroke:#91db57;stroke-width:0.886227;"/>
    <path clip-path="url(#p3686143df9)" d="M 207.578792 62.167158 
L 210.554792 62.167158 
" style="fill:none;stroke:#91db57;stroke-width:0.886227;"/>
    <path clip-path="url(#p3686143df9)" d="M 233.088523 43.352861 
L 236.064523 43.352861 
" style="fill:none;stroke:#91db57;stroke-width:0.886227;"/>
    <path clip-path="url(#p3686143df9)" d="M 258.595548 80.591607 
L 261.571548 80.591607 
" style="fill:none;stroke:#91db57;stroke-width:0.886227;"/>
    <path clip-path="url(#p3686143df9)" d="M 284.102574 40.991462 
L 287.078574 40.991462 
" style="fill:none;stroke:#91db57;stroke-width:0.886227;"/>
    <path clip-path="url(#p3686143df9)" d="M 309.609599 38.201371 
L 312.585599 38.201371 
" style="fill:none;stroke:#91db57;stroke-width:0.886227;"/>
    <path clip-path="url(#p3686143df9)" d="M 335.116625 38.201371 
L 338.092625 38.201371 
" style="fill:none;stroke:#91db57;stroke-width:0.886227;"/>
    <path clip-path="url(#p3686143df9)" d="M 360.62365 38.201371 
L 363.59965 38.201371 
" style="fill:none;stroke:#91db57;stroke-width:0.886227;"/>
    <path clip-path="url(#p3686143df9)" d="M 83.019665 269.646037 
" style="fill:none;stroke:#91db57;stroke-width:0.886227;"/>
    <path clip-path="url(#p3686143df9)" d="M 105.55069 262.186792 
L 108.52669 262.186792 
" style="fill:none;stroke:#91db57;stroke-width:0.886227;"/>
    <path clip-path="url(#p3686143df9)" d="M 131.057716 215.725347 
L 134.033716 215.725347 
" style="fill:none;stroke:#91db57;stroke-width:0.886227;"/>
    <path clip-path="url(#p3686143df9)" d="M 156.564741 117.664607 
L 159.540741 117.664607 
" style="fill:none;stroke:#91db57;stroke-width:0.886227;"/>
    <path clip-path="url(#p3686143df9)" d="M 182.071767 64.88384 
L 185.047767 64.88384 
" style="fill:none;stroke:#91db57;stroke-width:0.886227;"/>
    <path clip-path="url(#p3686143df9)" d="M 207.578792 49.486783 
L 210.554792 49.486783 
" style="fill:none;stroke:#91db57;stroke-width:0.886227;"/>
    <path clip-path="url(#p3686143df9)" d="M 233.088523 41.34428 
L 236.064523 41.34428 
" style="fill:none;stroke:#91db57;stroke-width:0.886227;"/>
    <path clip-path="url(#p3686143df9)" d="M 258.595548 49.033535 
L 261.571548 49.033535 
" style="fill:none;stroke:#91db57;stroke-width:0.886227;"/>
    <path clip-path="url(#p3686143df9)" d="M 284.102574 38.867279 
L 287.078574 38.867279 
" style="fill:none;stroke:#91db57;stroke-width:0.886227;"/>
    <path clip-path="url(#p3686143df9)" d="M 309.609599 38.201371 
L 312.585599 38.201371 
" style="fill:none;stroke:#91db57;stroke-width:0.886227;"/>
    <path clip-path="url(#p3686143df9)" d="M 335.116625 38.201371 
L 338.092625 38.201371 
" style="fill:none;stroke:#91db57;stroke-width:0.886227;"/>
    <path clip-path="url(#p3686143df9)" d="M 360.62365 38.201371 
L 363.59965 38.201371 
" style="fill:none;stroke:#91db57;stroke-width:0.886227;"/>
    <path clip-path="url(#p3686143df9)" d="M 81.531665 269.646037 
L 81.531665 274.699104 
" style="fill:none;stroke:#91db57;stroke-width:0.886227;"/>
    <path clip-path="url(#p3686143df9)" d="M 107.03869 262.186792 
L 107.03869 267.643149 
" style="fill:none;stroke:#91db57;stroke-width:0.886227;"/>
    <path clip-path="url(#p3686143df9)" d="M 132.545716 215.725347 
L 132.545716 230.123795 
" style="fill:none;stroke:#91db57;stroke-width:0.886227;"/>
    <path clip-path="url(#p3686143df9)" d="M 158.052741 117.664607 
L 158.052741 132.920534 
" style="fill:none;stroke:#91db57;stroke-width:0.886227;"/>
    <path clip-path="url(#p3686143df9)" d="M 183.559767 64.88384 
L 183.559767 78.219702 
" style="fill:none;stroke:#91db57;stroke-width:0.886227;"/>
    <path clip-path="url(#p3686143df9)" d="M 209.066792 49.486783 
L 209.066792 62.167158 
" style="fill:none;stroke:#91db57;stroke-width:0.886227;"/>
    <path clip-path="url(#p3686143df9)" d="M 234.576523 41.34428 
L 234.576523 43.352861 
" style="fill:none;stroke:#91db57;stroke-width:0.886227;"/>
    <path clip-path="url(#p3686143df9)" d="M 260.083548 49.033535 
L 260.083548 80.591607 
" style="fill:none;stroke:#91db57;stroke-width:0.886227;"/>
    <path clip-path="url(#p3686143df9)" d="M 285.590574 38.867279 
L 285.590574 40.991462 
" style="fill:none;stroke:#91db57;stroke-width:0.886227;"/>
    <path clip-path="url(#p3686143df9)" d="M 311.097599 38.201371 
L 311.097599 38.201371 
" style="fill:none;stroke:#91db57;stroke-width:0.886227;"/>
    <path clip-path="url(#p3686143df9)" d="M 336.604625 38.201371 
L 336.604625 38.201371 
" style="fill:none;stroke:#91db57;stroke-width:0.886227;"/>
    <path clip-path="url(#p3686143df9)" d="M 362.11165 38.201371 
L 362.11165 38.201371 
" style="fill:none;stroke:#91db57;stroke-width:0.886227;"/>
   </g>
   <g id="LineCollection_3">
    <path clip-path="url(#p3686143df9)" d="M 83.019665 275.089202 
" style="fill:none;stroke:#57d3db;stroke-width:0.886227;"/>
    <path clip-path="url(#p3686143df9)" d="M 105.55069 266.235826 
L 108.52669 266.235826 
" style="fill:none;stroke:#57d3db;stroke-width:0.886227;"/>
    <path clip-path="url(#p3686143df9)" d="M 131.057716 253.479392 
L 134.033716 253.479392 
" style="fill:none;stroke:#57d3db;stroke-width:0.886227;"/>
    <path clip-path="url(#p3686143df9)" d="M 156.564741 223.669125 
L 159.540741 223.669125 
" style="fill:none;stroke:#57d3db;stroke-width:0.886227;"/>
    <path clip-path="url(#p3686143df9)" d="M 182.071767 177.286841 
L 185.047767 177.286841 
" style="fill:none;stroke:#57d3db;stroke-width:0.886227;"/>
    <path clip-path="url(#p3686143df9)" d="M 207.578792 156.535192 
L 210.554792 156.535192 
" style="fill:none;stroke:#57d3db;stroke-width:0.886227;"/>
    <path clip-path="url(#p3686143df9)" d="M 233.088523 102.113998 
L 236.064523 102.113998 
" style="fill:none;stroke:#57d3db;stroke-width:0.886227;"/>
    <path clip-path="url(#p3686143df9)" d="M 258.595548 55.66713 
L 261.571548 55.66713 
" style="fill:none;stroke:#57d3db;stroke-width:0.886227;"/>
    <path clip-path="url(#p3686143df9)" d="M 284.102574 77.123889 
L 287.078574 77.123889 
" style="fill:none;stroke:#57d3db;stroke-width:0.886227;"/>
    <path clip-path="url(#p3686143df9)" d="M 309.609599 55.182609 
L 312.585599 55.182609 
" style="fill:none;stroke:#57d3db;stroke-width:0.886227;"/>
    <path clip-path="url(#p3686143df9)" d="M 335.116625 51.369478 
L 338.092625 51.369478 
" style="fill:none;stroke:#57d3db;stroke-width:0.886227;"/>
    <path clip-path="url(#p3686143df9)" d="M 360.62365 49.517085 
L 363.59965 49.517085 
" style="fill:none;stroke:#57d3db;stroke-width:0.886227;"/>
    <path clip-path="url(#p3686143df9)" d="M 83.019665 269.25594 
" style="fill:none;stroke:#57d3db;stroke-width:0.886227;"/>
    <path clip-path="url(#p3686143df9)" d="M 105.55069 262.211716 
L 108.52669 262.211716 
" style="fill:none;stroke:#57d3db;stroke-width:0.886227;"/>
    <path clip-path="url(#p3686143df9)" d="M 131.057716 246.97455 
L 134.033716 246.97455 
" style="fill:none;stroke:#57d3db;stroke-width:0.886227;"/>
    <path clip-path="url(#p3686143df9)" d="M 156.564741 212.157616 
L 159.540741 212.157616 
" style="fill:none;stroke:#57d3db;stroke-width:0.886227;"/>
    <path clip-path="url(#p3686143df9)" d="M 182.071767 162.463101 
L 185.047767 162.463101 
" style="fill:none;stroke:#57d3db;stroke-width:0.886227;"/>
    <path clip-path="url(#p3686143df9)" d="M 207.578792 123.08035 
L 210.554792 123.08035 
" style="fill:none;stroke:#57d3db;stroke-width:0.886227;"/>
    <path clip-path="url(#p3686143df9)" d="M 233.088523 76.586343 
L 236.064523 76.586343 
" style="fill:none;stroke:#57d3db;stroke-width:0.886227;"/>
    <path clip-path="url(#p3686143df9)" d="M 258.595548 49.766011 
L 261.571548 49.766011 
" style="fill:none;stroke:#57d3db;stroke-width:0.886227;"/>
    <path clip-path="url(#p3686143df9)" d="M 284.102574 52.501253 
L 287.078574 52.501253 
" style="fill:none;stroke:#57d3db;stroke-width:0.886227;"/>
    <path clip-path="url(#p3686143df9)" d="M 309.609599 47.485732 
L 312.585599 47.485732 
" style="fill:none;stroke:#57d3db;stroke-width:0.886227;"/>
    <path clip-path="url(#p3686143df9)" d="M 335.116625 42.313263 
L 338.092625 42.313263 
" style="fill:none;stroke:#57d3db;stroke-width:0.886227;"/>
    <path clip-path="url(#p3686143df9)" d="M 360.62365 39.327256 
L 363.59965 39.327256 
" style="fill:none;stroke:#57d3db;stroke-width:0.886227;"/>
    <path clip-path="url(#p3686143df9)" d="M 81.531665 269.25594 
L 81.531665 275.089202 
" style="fill:none;stroke:#57d3db;stroke-width:0.886227;"/>
    <path clip-path="url(#p3686143df9)" d="M 107.03869 262.211716 
L 107.03869 266.235826 
" style="fill:none;stroke:#57d3db;stroke-width:0.886227;"/>
    <path clip-path="url(#p3686143df9)" d="M 132.545716 246.97455 
L 132.545716 253.479392 
" style="fill:none;stroke:#57d3db;stroke-width:0.886227;"/>
    <path clip-path="url(#p3686143df9)" d="M 158.052741 212.157616 
L 158.052741 223.669125 
" style="fill:none;stroke:#57d3db;stroke-width:0.886227;"/>
    <path clip-path="url(#p3686143df9)" d="M 183.559767 162.463101 
L 183.559767 177.286841 
" style="fill:none;stroke:#57d3db;stroke-width:0.886227;"/>
    <path clip-path="url(#p3686143df9)" d="M 209.066792 123.08035 
L 209.066792 156.535192 
" style="fill:none;stroke:#57d3db;stroke-width:0.886227;"/>
    <path clip-path="url(#p3686143df9)" d="M 234.576523 76.586343 
L 234.576523 102.113998 
" style="fill:none;stroke:#57d3db;stroke-width:0.886227;"/>
    <path clip-path="url(#p3686143df9)" d="M 260.083548 49.766011 
L 260.083548 55.66713 
" style="fill:none;stroke:#57d3db;stroke-width:0.886227;"/>
    <path clip-path="url(#p3686143df9)" d="M 285.590574 52.501253 
L 285.590574 77.123889 
" style="fill:none;stroke:#57d3db;stroke-width:0.886227;"/>
    <path clip-path="url(#p3686143df9)" d="M 311.097599 47.485732 
L 311.097599 55.182609 
" style="fill:none;stroke:#57d3db;stroke-width:0.886227;"/>
    <path clip-path="url(#p3686143df9)" d="M 336.604625 42.313263 
L 336.604625 51.369478 
" style="fill:none;stroke:#57d3db;stroke-width:0.886227;"/>
    <path clip-path="url(#p3686143df9)" d="M 362.11165 39.327256 
L 362.11165 49.517085 
" style="fill:none;stroke:#57d3db;stroke-width:0.886227;"/>
   </g>
   <g id="LineCollection_4">
    <path clip-path="url(#p3686143df9)" d="M 83.019665 271.243104 
" style="fill:none;stroke:#a157db;stroke-width:0.886227;"/>
    <path clip-path="url(#p3686143df9)" d="M 105.55069 272.475795 
L 108.52669 272.475795 
" style="fill:none;stroke:#a157db;stroke-width:0.886227;"/>
    <path clip-path="url(#p3686143df9)" d="M 131.057716 270.770371 
L 134.033716 270.770371 
" style="fill:none;stroke:#a157db;stroke-width:0.886227;"/>
    <path clip-path="url(#p3686143df9)" d="M 156.564741 265.763247 
L 159.540741 265.763247 
" style="fill:none;stroke:#a157db;stroke-width:0.886227;"/>
    <path clip-path="url(#p3686143df9)" d="M 182.071767 256.322108 
L 185.047767 256.322108 
" style="fill:none;stroke:#a157db;stroke-width:0.886227;"/>
    <path clip-path="url(#p3686143df9)" d="M 207.578792 229.819684 
L 210.554792 229.819684 
" style="fill:none;stroke:#a157db;stroke-width:0.886227;"/>
    <path clip-path="url(#p3686143df9)" d="M 233.088523 218.831582 
L 236.064523 218.831582 
" style="fill:none;stroke:#a157db;stroke-width:0.886227;"/>
    <path clip-path="url(#p3686143df9)" d="M 258.595548 193.440109 
L 261.571548 193.440109 
" style="fill:none;stroke:#a157db;stroke-width:0.886227;"/>
    <path clip-path="url(#p3686143df9)" d="M 284.102574 177.635423 
L 287.078574 177.635423 
" style="fill:none;stroke:#a157db;stroke-width:0.886227;"/>
    <path clip-path="url(#p3686143df9)" d="M 309.609599 150.195572 
L 312.585599 150.195572 
" style="fill:none;stroke:#a157db;stroke-width:0.886227;"/>
    <path clip-path="url(#p3686143df9)" d="M 335.116625 109.625371 
L 338.092625 109.625371 
" style="fill:none;stroke:#a157db;stroke-width:0.886227;"/>
    <path clip-path="url(#p3686143df9)" d="M 360.62365 106.912328 
L 363.59965 106.912328 
" style="fill:none;stroke:#a157db;stroke-width:0.886227;"/>
    <path clip-path="url(#p3686143df9)" d="M 83.019665 266.190037 
" style="fill:none;stroke:#a157db;stroke-width:0.886227;"/>
    <path clip-path="url(#p3686143df9)" d="M 105.55069 268.067746 
L 108.52669 268.067746 
" style="fill:none;stroke:#a157db;stroke-width:0.886227;"/>
    <path clip-path="url(#p3686143df9)" d="M 131.057716 266.662771 
L 134.033716 266.662771 
" style="fill:none;stroke:#a157db;stroke-width:0.886227;"/>
    <path clip-path="url(#p3686143df9)" d="M 156.564741 258.882695 
L 159.540741 258.882695 
" style="fill:none;stroke:#a157db;stroke-width:0.886227;"/>
    <path clip-path="url(#p3686143df9)" d="M 182.071767 250.007033 
L 185.047767 250.007033 
" style="fill:none;stroke:#a157db;stroke-width:0.886227;"/>
    <path clip-path="url(#p3686143df9)" d="M 207.578792 217.066258 
L 210.554792 217.066258 
" style="fill:none;stroke:#a157db;stroke-width:0.886227;"/>
    <path clip-path="url(#p3686143df9)" d="M 233.088523 203.17116 
L 236.064523 203.17116 
" style="fill:none;stroke:#a157db;stroke-width:0.886227;"/>
    <path clip-path="url(#p3686143df9)" d="M 258.595548 166.354632 
L 261.571548 166.354632 
" style="fill:none;stroke:#a157db;stroke-width:0.886227;"/>
    <path clip-path="url(#p3686143df9)" d="M 284.102574 158.658518 
L 287.078574 158.658518 
" style="fill:none;stroke:#a157db;stroke-width:0.886227;"/>
    <path clip-path="url(#p3686143df9)" d="M 309.609599 128.72877 
L 312.585599 128.72877 
" style="fill:none;stroke:#a157db;stroke-width:0.886227;"/>
    <path clip-path="url(#p3686143df9)" d="M 335.116625 87.046171 
L 338.092625 87.046171 
" style="fill:none;stroke:#a157db;stroke-width:0.886227;"/>
    <path clip-path="url(#p3686143df9)" d="M 360.62365 90.450413 
L 363.59965 90.450413 
" style="fill:none;stroke:#a157db;stroke-width:0.886227;"/>
    <path clip-path="url(#p3686143df9)" d="M 81.531665 266.190037 
L 81.531665 271.243104 
" style="fill:none;stroke:#a157db;stroke-width:0.886227;"/>
    <path clip-path="url(#p3686143df9)" d="M 107.03869 268.067746 
L 107.03869 272.475795 
" style="fill:none;stroke:#a157db;stroke-width:0.886227;"/>
    <path clip-path="url(#p3686143df9)" d="M 132.545716 266.662771 
L 132.545716 270.770371 
" style="fill:none;stroke:#a157db;stroke-width:0.886227;"/>
    <path clip-path="url(#p3686143df9)" d="M 158.052741 258.882695 
L 158.052741 265.763247 
" style="fill:none;stroke:#a157db;stroke-width:0.886227;"/>
    <path clip-path="url(#p3686143df9)" d="M 183.559767 250.007033 
L 183.559767 256.322108 
" style="fill:none;stroke:#a157db;stroke-width:0.886227;"/>
    <path clip-path="url(#p3686143df9)" d="M 209.066792 217.066258 
L 209.066792 229.819684 
" style="fill:none;stroke:#a157db;stroke-width:0.886227;"/>
    <path clip-path="url(#p3686143df9)" d="M 234.576523 203.17116 
L 234.576523 218.831582 
" style="fill:none;stroke:#a157db;stroke-width:0.886227;"/>
    <path clip-path="url(#p3686143df9)" d="M 260.083548 166.354632 
L 260.083548 193.440109 
" style="fill:none;stroke:#a157db;stroke-width:0.886227;"/>
    <path clip-path="url(#p3686143df9)" d="M 285.590574 158.658518 
L 285.590574 177.635423 
" style="fill:none;stroke:#a157db;stroke-width:0.886227;"/>
    <path clip-path="url(#p3686143df9)" d="M 311.097599 128.72877 
L 311.097599 150.195572 
" style="fill:none;stroke:#a157db;stroke-width:0.886227;"/>
    <path clip-path="url(#p3686143df9)" d="M 336.604625 87.046171 
L 336.604625 109.625371 
" style="fill:none;stroke:#a157db;stroke-width:0.886227;"/>
    <path clip-path="url(#p3686143df9)" d="M 362.11165 90.450413 
L 362.11165 106.912328 
" style="fill:none;stroke:#a157db;stroke-width:0.886227;"/>
   </g>
   <g id="patch_3">
    <path d="M 429.618938 211.836339 
L 555.772375 211.836339 
L 555.772375 103.030402 
L 429.618938 103.030402 
z
" style="fill:#ffffff;"/>
   </g>
   <g id="text_13">
    <!-- Std value selected -->
    <g transform="translate(441.818938 126.623996)scale(0.11 -0.11)">
     <defs>
      <path d="M 53.515625 70.515625 
L 53.515625 60.890625 
Q 47.90625 63.578125 42.921875 64.890625 
Q 37.9375 66.21875 33.296875 66.21875 
Q 25.25 66.21875 20.875 63.09375 
Q 16.5 59.96875 16.5 54.203125 
Q 16.5 49.359375 19.40625 46.890625 
Q 22.3125 44.4375 30.421875 42.921875 
L 36.375 41.703125 
Q 47.40625 39.59375 52.65625 34.296875 
Q 57.90625 29 57.90625 20.125 
Q 57.90625 9.515625 50.796875 4.046875 
Q 43.703125 -1.421875 29.984375 -1.421875 
Q 24.8125 -1.421875 18.96875 -0.25 
Q 13.140625 0.921875 6.890625 3.21875 
L 6.890625 13.375 
Q 12.890625 10.015625 18.65625 8.296875 
Q 24.421875 6.59375 29.984375 6.59375 
Q 38.421875 6.59375 43.015625 9.90625 
Q 47.609375 13.234375 47.609375 19.390625 
Q 47.609375 24.75 44.3125 27.78125 
Q 41.015625 30.8125 33.5 32.328125 
L 27.484375 33.5 
Q 16.453125 35.6875 11.515625 40.375 
Q 6.59375 45.0625 6.59375 53.421875 
Q 6.59375 63.09375 13.40625 68.65625 
Q 20.21875 74.21875 32.171875 74.21875 
Q 37.3125 74.21875 42.625 73.28125 
Q 47.953125 72.359375 53.515625 70.515625 
z
" id="DejaVuSans-83"/>
      <path d="M 2.984375 54.6875 
L 12.5 54.6875 
L 29.59375 8.796875 
L 46.6875 54.6875 
L 56.203125 54.6875 
L 35.6875 0 
L 23.484375 0 
z
" id="DejaVuSans-118"/>
     </defs>
     <use xlink:href="#DejaVuSans-83"/>
     <use x="63.476562" xlink:href="#DejaVuSans-116"/>
     <use x="102.685547" xlink:href="#DejaVuSans-100"/>
     <use x="166.162109" xlink:href="#DejaVuSans-32"/>
     <use x="197.949219" xlink:href="#DejaVuSans-118"/>
     <use x="257.128906" xlink:href="#DejaVuSans-97"/>
     <use x="318.408203" xlink:href="#DejaVuSans-108"/>
     <use x="346.191406" xlink:href="#DejaVuSans-117"/>
     <use x="409.570312" xlink:href="#DejaVuSans-101"/>
     <use x="471.09375" xlink:href="#DejaVuSans-32"/>
     <use x="502.880859" xlink:href="#DejaVuSans-115"/>
     <use x="554.980469" xlink:href="#DejaVuSans-101"/>
     <use x="616.503906" xlink:href="#DejaVuSans-108"/>
     <use x="644.287109" xlink:href="#DejaVuSans-101"/>
     <use x="705.810547" xlink:href="#DejaVuSans-99"/>
     <use x="760.791016" xlink:href="#DejaVuSans-116"/>
     <use x="800" xlink:href="#DejaVuSans-101"/>
     <use x="861.523438" xlink:href="#DejaVuSans-100"/>
    </g>
   </g>
   <g id="patch_4">
    <path clip-path="url(#p312eba722c)" d="M 441.818938 146.116339 
L 457.658937 146.116339 
L 457.658937 130.276339 
L 441.818938 130.276339 
z
" style="fill:#f2f2f2;"/>
   </g>
   <g id="line2d_34">
    <path clip-path="url(#p312eba722c)" d="M 441.818938 138.196339 
L 457.658937 138.196339 
" style="fill:none;stroke:#db5f57;stroke-width:0.886227;"/>
   </g>
   <g id="line2d_35">
    <path clip-path="url(#p312eba722c)" d="M 441.818938 138.196339 
L 457.658937 138.196339 
" style="fill:none;stroke:#db5f57;stroke-width:0.886227;"/>
   </g>
   <g id="text_14">
    <!-- std =0.01 -->
    <g transform="translate(460.658937 140.624589)scale(0.088 -0.088)">
     <defs>
      <path d="M 10.59375 45.40625 
L 73.1875 45.40625 
L 73.1875 37.203125 
L 10.59375 37.203125 
z
M 10.59375 25.484375 
L 73.1875 25.484375 
L 73.1875 17.1875 
L 10.59375 17.1875 
z
" id="DejaVuSans-61"/>
     </defs>
     <use xlink:href="#DejaVuSans-115"/>
     <use x="52.099609" xlink:href="#DejaVuSans-116"/>
     <use x="91.308594" xlink:href="#DejaVuSans-100"/>
     <use x="154.785156" xlink:href="#DejaVuSans-32"/>
     <use x="186.572266" xlink:href="#DejaVuSans-61"/>
     <use x="270.361328" xlink:href="#DejaVuSans-48"/>
     <use x="333.984375" xlink:href="#DejaVuSans-46"/>
     <use x="365.771484" xlink:href="#DejaVuSans-48"/>
     <use x="429.394531" xlink:href="#DejaVuSans-49"/>
    </g>
   </g>
   <g id="patch_5">
    <path clip-path="url(#p8f009dbb90)" d="M 441.818938 163.956339 
L 457.658937 163.956339 
L 457.658937 148.116339 
L 441.818938 148.116339 
z
" style="fill:#f2f2f2;"/>
   </g>
   <g id="line2d_36">
    <path clip-path="url(#p8f009dbb90)" d="M 441.818938 156.036339 
L 457.658937 156.036339 
" style="fill:none;stroke:#91db57;stroke-width:0.886227;"/>
   </g>
   <g id="line2d_37">
    <path clip-path="url(#p8f009dbb90)" d="M 441.818938 156.036339 
L 457.658937 156.036339 
" style="fill:none;stroke:#91db57;stroke-width:0.886227;"/>
   </g>
   <g id="text_15">
    <!-- std =0.5 -->
    <g transform="translate(460.658937 158.464589)scale(0.088 -0.088)">
     <use xlink:href="#DejaVuSans-115"/>
     <use x="52.099609" xlink:href="#DejaVuSans-116"/>
     <use x="91.308594" xlink:href="#DejaVuSans-100"/>
     <use x="154.785156" xlink:href="#DejaVuSans-32"/>
     <use x="186.572266" xlink:href="#DejaVuSans-61"/>
     <use x="270.361328" xlink:href="#DejaVuSans-48"/>
     <use x="333.984375" xlink:href="#DejaVuSans-46"/>
     <use x="365.771484" xlink:href="#DejaVuSans-53"/>
    </g>
   </g>
   <g id="patch_6">
    <path clip-path="url(#p4cf0f964bc)" d="M 441.818938 181.796339 
L 457.658937 181.796339 
L 457.658937 165.956339 
L 441.818938 165.956339 
z
" style="fill:#f2f2f2;"/>
   </g>
   <g id="line2d_38">
    <path clip-path="url(#p4cf0f964bc)" d="M 441.818938 173.876339 
L 457.658937 173.876339 
" style="fill:none;stroke:#57d3db;stroke-width:0.886227;"/>
   </g>
   <g id="line2d_39">
    <path clip-path="url(#p4cf0f964bc)" d="M 441.818938 173.876339 
L 457.658937 173.876339 
" style="fill:none;stroke:#57d3db;stroke-width:0.886227;"/>
   </g>
   <g id="text_16">
    <!-- std =1.0 -->
    <g transform="translate(460.658937 176.304589)scale(0.088 -0.088)">
     <use xlink:href="#DejaVuSans-115"/>
     <use x="52.099609" xlink:href="#DejaVuSans-116"/>
     <use x="91.308594" xlink:href="#DejaVuSans-100"/>
     <use x="154.785156" xlink:href="#DejaVuSans-32"/>
     <use x="186.572266" xlink:href="#DejaVuSans-61"/>
     <use x="270.361328" xlink:href="#DejaVuSans-49"/>
     <use x="333.984375" xlink:href="#DejaVuSans-46"/>
     <use x="365.771484" xlink:href="#DejaVuSans-48"/>
    </g>
   </g>
   <g id="patch_7">
    <path clip-path="url(#p4ff64de81b)" d="M 441.818938 199.636339 
L 457.658937 199.636339 
L 457.658937 183.796339 
L 441.818938 183.796339 
z
" style="fill:#f2f2f2;"/>
   </g>
   <g id="line2d_40">
    <path clip-path="url(#p4ff64de81b)" d="M 441.818938 191.716339 
L 457.658937 191.716339 
" style="fill:none;stroke:#a157db;stroke-width:0.886227;"/>
   </g>
   <g id="line2d_41">
    <path clip-path="url(#p4ff64de81b)" d="M 441.818938 191.716339 
L 457.658937 191.716339 
" style="fill:none;stroke:#a157db;stroke-width:0.886227;"/>
   </g>
   <g id="text_17">
    <!-- std =2.0 -->
    <g transform="translate(460.658937 194.144589)scale(0.088 -0.088)">
     <use xlink:href="#DejaVuSans-115"/>
     <use x="52.099609" xlink:href="#DejaVuSans-116"/>
     <use x="91.308594" xlink:href="#DejaVuSans-100"/>
     <use x="154.785156" xlink:href="#DejaVuSans-32"/>
     <use x="186.572266" xlink:href="#DejaVuSans-61"/>
     <use x="270.361328" xlink:href="#DejaVuSans-50"/>
     <use x="333.984375" xlink:href="#DejaVuSans-46"/>
     <use x="365.771484" xlink:href="#DejaVuSans-48"/>
    </g>
   </g>
  </g>
  <g id="text_18">
   <!-- Accuracy plot for multiple Euclidean Distance and different std values -->
   <g transform="translate(7.2 17.229938)scale(0.132 -0.132)">
    <defs>
     <path d="M 18.109375 8.203125 
L 18.109375 -20.796875 
L 9.078125 -20.796875 
L 9.078125 54.6875 
L 18.109375 54.6875 
L 18.109375 46.390625 
Q 20.953125 51.265625 25.265625 53.625 
Q 29.59375 56 35.59375 56 
Q 45.5625 56 51.78125 48.09375 
Q 58.015625 40.1875 58.015625 27.296875 
Q 58.015625 14.40625 51.78125 6.484375 
Q 45.5625 -1.421875 35.59375 -1.421875 
Q 29.59375 -1.421875 25.265625 0.953125 
Q 20.953125 3.328125 18.109375 8.203125 
z
M 48.6875 27.296875 
Q 48.6875 37.203125 44.609375 42.84375 
Q 40.53125 48.484375 33.40625 48.484375 
Q 26.265625 48.484375 22.1875 42.84375 
Q 18.109375 37.203125 18.109375 27.296875 
Q 18.109375 17.390625 22.1875 11.75 
Q 26.265625 6.109375 33.40625 6.109375 
Q 40.53125 6.109375 44.609375 11.75 
Q 48.6875 17.390625 48.6875 27.296875 
z
" id="DejaVuSans-112"/>
     <path d="M 30.609375 48.390625 
Q 23.390625 48.390625 19.1875 42.75 
Q 14.984375 37.109375 14.984375 27.296875 
Q 14.984375 17.484375 19.15625 11.84375 
Q 23.34375 6.203125 30.609375 6.203125 
Q 37.796875 6.203125 41.984375 11.859375 
Q 46.1875 17.53125 46.1875 27.296875 
Q 46.1875 37.015625 41.984375 42.703125 
Q 37.796875 48.390625 30.609375 48.390625 
z
M 30.609375 56 
Q 42.328125 56 49.015625 48.375 
Q 55.71875 40.765625 55.71875 27.296875 
Q 55.71875 13.875 49.015625 6.21875 
Q 42.328125 -1.421875 30.609375 -1.421875 
Q 18.84375 -1.421875 12.171875 6.21875 
Q 5.515625 13.875 5.515625 27.296875 
Q 5.515625 40.765625 12.171875 48.375 
Q 18.84375 56 30.609375 56 
z
" id="DejaVuSans-111"/>
     <path d="M 37.109375 75.984375 
L 37.109375 68.5 
L 28.515625 68.5 
Q 23.6875 68.5 21.796875 66.546875 
Q 19.921875 64.59375 19.921875 59.515625 
L 19.921875 54.6875 
L 34.71875 54.6875 
L 34.71875 47.703125 
L 19.921875 47.703125 
L 19.921875 0 
L 10.890625 0 
L 10.890625 47.703125 
L 2.296875 47.703125 
L 2.296875 54.6875 
L 10.890625 54.6875 
L 10.890625 58.5 
Q 10.890625 67.625 15.140625 71.796875 
Q 19.390625 75.984375 28.609375 75.984375 
z
" id="DejaVuSans-102"/>
     <path d="M 52 44.1875 
Q 55.375 50.25 60.0625 53.125 
Q 64.75 56 71.09375 56 
Q 79.640625 56 84.28125 50.015625 
Q 88.921875 44.046875 88.921875 33.015625 
L 88.921875 0 
L 79.890625 0 
L 79.890625 32.71875 
Q 79.890625 40.578125 77.09375 44.375 
Q 74.3125 48.1875 68.609375 48.1875 
Q 61.625 48.1875 57.5625 43.546875 
Q 53.515625 38.921875 53.515625 30.90625 
L 53.515625 0 
L 44.484375 0 
L 44.484375 32.71875 
Q 44.484375 40.625 41.703125 44.40625 
Q 38.921875 48.1875 33.109375 48.1875 
Q 26.21875 48.1875 22.15625 43.53125 
Q 18.109375 38.875 18.109375 30.90625 
L 18.109375 0 
L 9.078125 0 
L 9.078125 54.6875 
L 18.109375 54.6875 
L 18.109375 46.1875 
Q 21.1875 51.21875 25.484375 53.609375 
Q 29.78125 56 35.6875 56 
Q 41.65625 56 45.828125 52.96875 
Q 50 49.953125 52 44.1875 
z
" id="DejaVuSans-109"/>
    </defs>
    <use xlink:href="#DejaVuSans-65"/>
    <use x="66.658203" xlink:href="#DejaVuSans-99"/>
    <use x="121.638672" xlink:href="#DejaVuSans-99"/>
    <use x="176.619141" xlink:href="#DejaVuSans-117"/>
    <use x="239.998047" xlink:href="#DejaVuSans-114"/>
    <use x="281.111328" xlink:href="#DejaVuSans-97"/>
    <use x="342.390625" xlink:href="#DejaVuSans-99"/>
    <use x="397.371094" xlink:href="#DejaVuSans-121"/>
    <use x="456.550781" xlink:href="#DejaVuSans-32"/>
    <use x="488.337891" xlink:href="#DejaVuSans-112"/>
    <use x="551.814453" xlink:href="#DejaVuSans-108"/>
    <use x="579.597656" xlink:href="#DejaVuSans-111"/>
    <use x="640.779297" xlink:href="#DejaVuSans-116"/>
    <use x="679.988281" xlink:href="#DejaVuSans-32"/>
    <use x="711.775391" xlink:href="#DejaVuSans-102"/>
    <use x="746.980469" xlink:href="#DejaVuSans-111"/>
    <use x="808.162109" xlink:href="#DejaVuSans-114"/>
    <use x="849.275391" xlink:href="#DejaVuSans-32"/>
    <use x="881.0625" xlink:href="#DejaVuSans-109"/>
    <use x="978.474609" xlink:href="#DejaVuSans-117"/>
    <use x="1041.853516" xlink:href="#DejaVuSans-108"/>
    <use x="1069.636719" xlink:href="#DejaVuSans-116"/>
    <use x="1108.845703" xlink:href="#DejaVuSans-105"/>
    <use x="1136.628906" xlink:href="#DejaVuSans-112"/>
    <use x="1200.105469" xlink:href="#DejaVuSans-108"/>
    <use x="1227.888672" xlink:href="#DejaVuSans-101"/>
    <use x="1289.412109" xlink:href="#DejaVuSans-32"/>
    <use x="1321.199219" xlink:href="#DejaVuSans-69"/>
    <use x="1384.382812" xlink:href="#DejaVuSans-117"/>
    <use x="1447.761719" xlink:href="#DejaVuSans-99"/>
    <use x="1502.742188" xlink:href="#DejaVuSans-108"/>
    <use x="1530.525391" xlink:href="#DejaVuSans-105"/>
    <use x="1558.308594" xlink:href="#DejaVuSans-100"/>
    <use x="1621.785156" xlink:href="#DejaVuSans-101"/>
    <use x="1683.308594" xlink:href="#DejaVuSans-97"/>
    <use x="1744.587891" xlink:href="#DejaVuSans-110"/>
    <use x="1807.966797" xlink:href="#DejaVuSans-32"/>
    <use x="1839.753906" xlink:href="#DejaVuSans-68"/>
    <use x="1916.755859" xlink:href="#DejaVuSans-105"/>
    <use x="1944.539062" xlink:href="#DejaVuSans-115"/>
    <use x="1996.638672" xlink:href="#DejaVuSans-116"/>
    <use x="2035.847656" xlink:href="#DejaVuSans-97"/>
    <use x="2097.126953" xlink:href="#DejaVuSans-110"/>
    <use x="2160.505859" xlink:href="#DejaVuSans-99"/>
    <use x="2215.486328" xlink:href="#DejaVuSans-101"/>
    <use x="2277.009766" xlink:href="#DejaVuSans-32"/>
    <use x="2308.796875" xlink:href="#DejaVuSans-97"/>
    <use x="2370.076172" xlink:href="#DejaVuSans-110"/>
    <use x="2433.455078" xlink:href="#DejaVuSans-100"/>
    <use x="2496.931641" xlink:href="#DejaVuSans-32"/>
    <use x="2528.71875" xlink:href="#DejaVuSans-100"/>
    <use x="2592.195312" xlink:href="#DejaVuSans-105"/>
    <use x="2619.978516" xlink:href="#DejaVuSans-102"/>
    <use x="2655.183594" xlink:href="#DejaVuSans-102"/>
    <use x="2690.388672" xlink:href="#DejaVuSans-101"/>
    <use x="2751.912109" xlink:href="#DejaVuSans-114"/>
    <use x="2790.775391" xlink:href="#DejaVuSans-101"/>
    <use x="2852.298828" xlink:href="#DejaVuSans-110"/>
    <use x="2915.677734" xlink:href="#DejaVuSans-116"/>
    <use x="2954.886719" xlink:href="#DejaVuSans-32"/>
    <use x="2986.673828" xlink:href="#DejaVuSans-115"/>
    <use x="3038.773438" xlink:href="#DejaVuSans-116"/>
    <use x="3077.982422" xlink:href="#DejaVuSans-100"/>
    <use x="3141.458984" xlink:href="#DejaVuSans-32"/>
    <use x="3173.246094" xlink:href="#DejaVuSans-118"/>
    <use x="3232.425781" xlink:href="#DejaVuSans-97"/>
    <use x="3293.705078" xlink:href="#DejaVuSans-108"/>
    <use x="3321.488281" xlink:href="#DejaVuSans-117"/>
    <use x="3384.867188" xlink:href="#DejaVuSans-101"/>
    <use x="3446.390625" xlink:href="#DejaVuSans-115"/>
   </g>
  </g>
 </g>
 <defs>
  <clipPath id="p3686143df9">
   <rect height="266.112" width="357.12" x="65.298938" y="26.105371"/>
  </clipPath>
  <clipPath id="p312eba722c">
   <path d="M 441.818938 146.116339 
L 441.818938 130.276339 
L 457.658937 130.276339 
L 457.658937 146.116339 
"/>
  </clipPath>
  <clipPath id="p8f009dbb90">
   <path d="M 441.818938 163.956339 
L 441.818938 148.116339 
L 457.658937 148.116339 
L 457.658937 163.956339 
"/>
  </clipPath>
  <clipPath id="p4cf0f964bc">
   <path d="M 441.818938 181.796339 
L 441.818938 165.956339 
L 457.658937 165.956339 
L 457.658937 181.796339 
"/>
  </clipPath>
  <clipPath id="p4ff64de81b">
   <path d="M 441.818938 199.636339 
L 441.818938 183.796339 
L 457.658937 183.796339 
L 457.658937 199.636339 
"/>
  </clipPath>
 </defs>
</svg>
