<?xml version="1.0" encoding="utf-8" standalone="no"?>
<!DOCTYPE svg PUBLIC "-//W3C//DTD SVG 1.1//EN"
  "http://www.w3.org/Graphics/SVG/1.1/DTD/svg11.dtd">
<!-- Created with matplotlib (https://matplotlib.org/) -->
<svg height="327.930058pt" version="1.1" viewBox="0 0 562.972375 327.930058" width="562.972375pt" xmlns="http://www.w3.org/2000/svg" xmlns:xlink="http://www.w3.org/1999/xlink">
 <metadata>
  <rdf:RDF xmlns:cc="http://creativecommons.org/ns#" xmlns:dc="http://purl.org/dc/elements/1.1/" xmlns:rdf="http://www.w3.org/1999/02/22-rdf-syntax-ns#">
   <cc:Work>
    <dc:type rdf:resource="http://purl.org/dc/dcmitype/StillImage"/>
    <dc:date>2022-01-17T16:40:24.089193</dc:date>
    <dc:format>image/svg+xml</dc:format>
    <dc:creator>
     <cc:Agent>
      <dc:title>Matplotlib v3.3.4, https://matplotlib.org/</dc:title>
     </cc:Agent>
    </dc:creator>
   </cc:Work>
  </rdf:RDF>
 </metadata>
 <defs>
  <style type="text/css">*{stroke-linecap:butt;stroke-linejoin:round;}</style>
 </defs>
 <g id="figure_1">
  <g id="patch_1">
   <path d="M 0 327.930058 
L 562.972375 327.930058 
L 562.972375 0 
L 0 0 
z
" style="fill:#ffffff;stroke:#ffffff;stroke-linejoin:miter;"/>
  </g>
  <g id="axes_1">
   <g id="patch_2">
    <path d="M 65.298938 292.217371 
L 422.418938 292.217371 
L 422.418938 26.105371 
L 65.298938 26.105371 
z
" style="fill:#ebebeb;"/>
   </g>
   <g id="matplotlib.axis_1">
    <g id="xtick_1">
     <g id="line2d_1">
      <path clip-path="url(#p7fe43a0870)" d="M 81.531665 292.217371 
L 81.531665 26.105371 
" style="fill:none;stroke:#ffffff;"/>
     </g>
     <g id="line2d_2">
      <path d="M 81.531665 292.217371 
" style="fill:none;stroke:#333333;stroke-width:1.5;"/>
      <defs>
       <path d="M 0 0 
L 0 2.75 
" id="m454d24586b" style="stroke:#000000;"/>
      </defs>
      <g>
       <use style="fill:#333333;stroke:#000000;" x="81.531665" xlink:href="#m454d24586b" y="292.217371"/>
      </g>
     </g>
     <g id="text_1">
      <!-- 0 -->
      <g style="fill:#4d4d4d;" transform="translate(78.732165 303.853996)scale(0.088 -0.088)">
       <defs>
        <path d="M 31.78125 66.40625 
Q 24.171875 66.40625 20.328125 58.90625 
Q 16.5 51.421875 16.5 36.375 
Q 16.5 21.390625 20.328125 13.890625 
Q 24.171875 6.390625 31.78125 6.390625 
Q 39.453125 6.390625 43.28125 13.890625 
Q 47.125 21.390625 47.125 36.375 
Q 47.125 51.421875 43.28125 58.90625 
Q 39.453125 66.40625 31.78125 66.40625 
z
M 31.78125 74.21875 
Q 44.046875 74.21875 50.515625 64.515625 
Q 56.984375 54.828125 56.984375 36.375 
Q 56.984375 17.96875 50.515625 8.265625 
Q 44.046875 -1.421875 31.78125 -1.421875 
Q 19.53125 -1.421875 13.0625 8.265625 
Q 6.59375 17.96875 6.59375 36.375 
Q 6.59375 54.828125 13.0625 64.515625 
Q 19.53125 74.21875 31.78125 74.21875 
z
" id="DejaVuSans-48"/>
       </defs>
       <use xlink:href="#DejaVuSans-48"/>
      </g>
     </g>
    </g>
    <g id="xtick_2">
     <g id="line2d_3">
      <path clip-path="url(#p7fe43a0870)" d="M 149.168028 292.217371 
L 149.168028 26.105371 
" style="fill:none;stroke:#ffffff;"/>
     </g>
     <g id="line2d_4">
      <path d="M 149.168028 292.217371 
" style="fill:none;stroke:#333333;stroke-width:1.5;"/>
      <g>
       <use style="fill:#333333;stroke:#000000;" x="149.168028" xlink:href="#m454d24586b" y="292.217371"/>
      </g>
     </g>
     <g id="text_2">
      <!-- 0.25 -->
      <g style="fill:#4d4d4d;" transform="translate(139.371153 303.853996)scale(0.088 -0.088)">
       <defs>
        <path d="M 10.6875 12.40625 
L 21 12.40625 
L 21 0 
L 10.6875 0 
z
" id="DejaVuSans-46"/>
        <path d="M 19.1875 8.296875 
L 53.609375 8.296875 
L 53.609375 0 
L 7.328125 0 
L 7.328125 8.296875 
Q 12.9375 14.109375 22.625 23.890625 
Q 32.328125 33.6875 34.8125 36.53125 
Q 39.546875 41.84375 41.421875 45.53125 
Q 43.3125 49.21875 43.3125 52.78125 
Q 43.3125 58.59375 39.234375 62.25 
Q 35.15625 65.921875 28.609375 65.921875 
Q 23.96875 65.921875 18.8125 64.3125 
Q 13.671875 62.703125 7.8125 59.421875 
L 7.8125 69.390625 
Q 13.765625 71.78125 18.9375 73 
Q 24.125 74.21875 28.421875 74.21875 
Q 39.75 74.21875 46.484375 68.546875 
Q 53.21875 62.890625 53.21875 53.421875 
Q 53.21875 48.921875 51.53125 44.890625 
Q 49.859375 40.875 45.40625 35.40625 
Q 44.1875 33.984375 37.640625 27.21875 
Q 31.109375 20.453125 19.1875 8.296875 
z
" id="DejaVuSans-50"/>
        <path d="M 10.796875 72.90625 
L 49.515625 72.90625 
L 49.515625 64.59375 
L 19.828125 64.59375 
L 19.828125 46.734375 
Q 21.96875 47.46875 24.109375 47.828125 
Q 26.265625 48.1875 28.421875 48.1875 
Q 40.625 48.1875 47.75 41.5 
Q 54.890625 34.8125 54.890625 23.390625 
Q 54.890625 11.625 47.5625 5.09375 
Q 40.234375 -1.421875 26.90625 -1.421875 
Q 22.3125 -1.421875 17.546875 -0.640625 
Q 12.796875 0.140625 7.71875 1.703125 
L 7.71875 11.625 
Q 12.109375 9.234375 16.796875 8.0625 
Q 21.484375 6.890625 26.703125 6.890625 
Q 35.15625 6.890625 40.078125 11.328125 
Q 45.015625 15.765625 45.015625 23.390625 
Q 45.015625 31 40.078125 35.4375 
Q 35.15625 39.890625 26.703125 39.890625 
Q 22.75 39.890625 18.8125 39.015625 
Q 14.890625 38.140625 10.796875 36.28125 
z
" id="DejaVuSans-53"/>
       </defs>
       <use xlink:href="#DejaVuSans-48"/>
       <use x="63.623047" xlink:href="#DejaVuSans-46"/>
       <use x="95.410156" xlink:href="#DejaVuSans-50"/>
       <use x="159.033203" xlink:href="#DejaVuSans-53"/>
      </g>
     </g>
    </g>
    <g id="xtick_3">
     <g id="line2d_5">
      <path clip-path="url(#p7fe43a0870)" d="M 216.804392 292.217371 
L 216.804392 26.105371 
" style="fill:none;stroke:#ffffff;"/>
     </g>
     <g id="line2d_6">
      <path d="M 216.804392 292.217371 
" style="fill:none;stroke:#333333;stroke-width:1.5;"/>
      <g>
       <use style="fill:#333333;stroke:#000000;" x="216.804392" xlink:href="#m454d24586b" y="292.217371"/>
      </g>
     </g>
     <g id="text_3">
      <!-- 0.50 -->
      <g style="fill:#4d4d4d;" transform="translate(207.007517 303.853996)scale(0.088 -0.088)">
       <use xlink:href="#DejaVuSans-48"/>
       <use x="63.623047" xlink:href="#DejaVuSans-46"/>
       <use x="95.410156" xlink:href="#DejaVuSans-53"/>
       <use x="159.033203" xlink:href="#DejaVuSans-48"/>
      </g>
     </g>
    </g>
    <g id="xtick_4">
     <g id="line2d_7">
      <path clip-path="url(#p7fe43a0870)" d="M 284.440756 292.217371 
L 284.440756 26.105371 
" style="fill:none;stroke:#ffffff;"/>
     </g>
     <g id="line2d_8">
      <path d="M 284.440756 292.217371 
" style="fill:none;stroke:#333333;stroke-width:1.5;"/>
      <g>
       <use style="fill:#333333;stroke:#000000;" x="284.440756" xlink:href="#m454d24586b" y="292.217371"/>
      </g>
     </g>
     <g id="text_4">
      <!-- 0.75 -->
      <g style="fill:#4d4d4d;" transform="translate(274.643881 303.853996)scale(0.088 -0.088)">
       <defs>
        <path d="M 8.203125 72.90625 
L 55.078125 72.90625 
L 55.078125 68.703125 
L 28.609375 0 
L 18.3125 0 
L 43.21875 64.59375 
L 8.203125 64.59375 
z
" id="DejaVuSans-55"/>
       </defs>
       <use xlink:href="#DejaVuSans-48"/>
       <use x="63.623047" xlink:href="#DejaVuSans-46"/>
       <use x="95.410156" xlink:href="#DejaVuSans-55"/>
       <use x="159.033203" xlink:href="#DejaVuSans-53"/>
      </g>
     </g>
    </g>
    <g id="xtick_5">
     <g id="line2d_9">
      <path clip-path="url(#p7fe43a0870)" d="M 352.077119 292.217371 
L 352.077119 26.105371 
" style="fill:none;stroke:#ffffff;"/>
     </g>
     <g id="line2d_10">
      <path d="M 352.077119 292.217371 
" style="fill:none;stroke:#333333;stroke-width:1.5;"/>
      <g>
       <use style="fill:#333333;stroke:#000000;" x="352.077119" xlink:href="#m454d24586b" y="292.217371"/>
      </g>
     </g>
     <g id="text_5">
      <!-- 1 -->
      <g style="fill:#4d4d4d;" transform="translate(349.277619 303.853996)scale(0.088 -0.088)">
       <defs>
        <path d="M 12.40625 8.296875 
L 28.515625 8.296875 
L 28.515625 63.921875 
L 10.984375 60.40625 
L 10.984375 69.390625 
L 28.421875 72.90625 
L 38.28125 72.90625 
L 38.28125 8.296875 
L 54.390625 8.296875 
L 54.390625 0 
L 12.40625 0 
z
" id="DejaVuSans-49"/>
       </defs>
       <use xlink:href="#DejaVuSans-49"/>
      </g>
     </g>
    </g>
    <g id="xtick_6">
     <g id="line2d_11">
      <path clip-path="url(#p7fe43a0870)" d="M 419.713483 292.217371 
L 419.713483 26.105371 
" style="fill:none;stroke:#ffffff;"/>
     </g>
     <g id="line2d_12">
      <path d="M 419.713483 292.217371 
" style="fill:none;stroke:#333333;stroke-width:1.5;"/>
      <g>
       <use style="fill:#333333;stroke:#000000;" x="419.713483" xlink:href="#m454d24586b" y="292.217371"/>
      </g>
     </g>
     <g id="text_6">
      <!-- 1.25 -->
      <g style="fill:#4d4d4d;" transform="translate(409.916608 303.853996)scale(0.088 -0.088)">
       <use xlink:href="#DejaVuSans-49"/>
       <use x="63.623047" xlink:href="#DejaVuSans-46"/>
       <use x="95.410156" xlink:href="#DejaVuSans-50"/>
       <use x="159.033203" xlink:href="#DejaVuSans-53"/>
      </g>
     </g>
    </g>
    <g id="xtick_7">
     <g id="line2d_13">
      <path clip-path="url(#p7fe43a0870)" d="M 115.349847 292.217371 
L 115.349847 26.105371 
" style="fill:none;stroke:#ffffff;stroke-width:0.5;"/>
     </g>
    </g>
    <g id="xtick_8">
     <g id="line2d_14">
      <path clip-path="url(#p7fe43a0870)" d="M 182.98621 292.217371 
L 182.98621 26.105371 
" style="fill:none;stroke:#ffffff;stroke-width:0.5;"/>
     </g>
    </g>
    <g id="xtick_9">
     <g id="line2d_15">
      <path clip-path="url(#p7fe43a0870)" d="M 250.622574 292.217371 
L 250.622574 26.105371 
" style="fill:none;stroke:#ffffff;stroke-width:0.5;"/>
     </g>
    </g>
    <g id="xtick_10">
     <g id="line2d_16">
      <path clip-path="url(#p7fe43a0870)" d="M 318.258938 292.217371 
L 318.258938 26.105371 
" style="fill:none;stroke:#ffffff;stroke-width:0.5;"/>
     </g>
    </g>
    <g id="xtick_11">
     <g id="line2d_17">
      <path clip-path="url(#p7fe43a0870)" d="M 385.895301 292.217371 
L 385.895301 26.105371 
" style="fill:none;stroke:#ffffff;stroke-width:0.5;"/>
     </g>
    </g>
    <g id="text_7">
     <!-- Euclidean Distance -->
     <g transform="translate(185.52925 318.442402)scale(0.11 -0.11)">
      <defs>
       <path d="M 9.8125 72.90625 
L 55.90625 72.90625 
L 55.90625 64.59375 
L 19.671875 64.59375 
L 19.671875 43.015625 
L 54.390625 43.015625 
L 54.390625 34.71875 
L 19.671875 34.71875 
L 19.671875 8.296875 
L 56.78125 8.296875 
L 56.78125 0 
L 9.8125 0 
z
" id="DejaVuSans-69"/>
       <path d="M 8.5 21.578125 
L 8.5 54.6875 
L 17.484375 54.6875 
L 17.484375 21.921875 
Q 17.484375 14.15625 20.5 10.265625 
Q 23.53125 6.390625 29.59375 6.390625 
Q 36.859375 6.390625 41.078125 11.03125 
Q 45.3125 15.671875 45.3125 23.6875 
L 45.3125 54.6875 
L 54.296875 54.6875 
L 54.296875 0 
L 45.3125 0 
L 45.3125 8.40625 
Q 42.046875 3.421875 37.71875 1 
Q 33.40625 -1.421875 27.6875 -1.421875 
Q 18.265625 -1.421875 13.375 4.4375 
Q 8.5 10.296875 8.5 21.578125 
z
M 31.109375 56 
z
" id="DejaVuSans-117"/>
       <path d="M 48.78125 52.59375 
L 48.78125 44.1875 
Q 44.96875 46.296875 41.140625 47.34375 
Q 37.3125 48.390625 33.40625 48.390625 
Q 24.65625 48.390625 19.8125 42.84375 
Q 14.984375 37.3125 14.984375 27.296875 
Q 14.984375 17.28125 19.8125 11.734375 
Q 24.65625 6.203125 33.40625 6.203125 
Q 37.3125 6.203125 41.140625 7.25 
Q 44.96875 8.296875 48.78125 10.40625 
L 48.78125 2.09375 
Q 45.015625 0.34375 40.984375 -0.53125 
Q 36.96875 -1.421875 32.421875 -1.421875 
Q 20.0625 -1.421875 12.78125 6.34375 
Q 5.515625 14.109375 5.515625 27.296875 
Q 5.515625 40.671875 12.859375 48.328125 
Q 20.21875 56 33.015625 56 
Q 37.15625 56 41.109375 55.140625 
Q 45.0625 54.296875 48.78125 52.59375 
z
" id="DejaVuSans-99"/>
       <path d="M 9.421875 75.984375 
L 18.40625 75.984375 
L 18.40625 0 
L 9.421875 0 
z
" id="DejaVuSans-108"/>
       <path d="M 9.421875 54.6875 
L 18.40625 54.6875 
L 18.40625 0 
L 9.421875 0 
z
M 9.421875 75.984375 
L 18.40625 75.984375 
L 18.40625 64.59375 
L 9.421875 64.59375 
z
" id="DejaVuSans-105"/>
       <path d="M 45.40625 46.390625 
L 45.40625 75.984375 
L 54.390625 75.984375 
L 54.390625 0 
L 45.40625 0 
L 45.40625 8.203125 
Q 42.578125 3.328125 38.25 0.953125 
Q 33.9375 -1.421875 27.875 -1.421875 
Q 17.96875 -1.421875 11.734375 6.484375 
Q 5.515625 14.40625 5.515625 27.296875 
Q 5.515625 40.1875 11.734375 48.09375 
Q 17.96875 56 27.875 56 
Q 33.9375 56 38.25 53.625 
Q 42.578125 51.265625 45.40625 46.390625 
z
M 14.796875 27.296875 
Q 14.796875 17.390625 18.875 11.75 
Q 22.953125 6.109375 30.078125 6.109375 
Q 37.203125 6.109375 41.296875 11.75 
Q 45.40625 17.390625 45.40625 27.296875 
Q 45.40625 37.203125 41.296875 42.84375 
Q 37.203125 48.484375 30.078125 48.484375 
Q 22.953125 48.484375 18.875 42.84375 
Q 14.796875 37.203125 14.796875 27.296875 
z
" id="DejaVuSans-100"/>
       <path d="M 56.203125 29.59375 
L 56.203125 25.203125 
L 14.890625 25.203125 
Q 15.484375 15.921875 20.484375 11.0625 
Q 25.484375 6.203125 34.421875 6.203125 
Q 39.59375 6.203125 44.453125 7.46875 
Q 49.3125 8.734375 54.109375 11.28125 
L 54.109375 2.78125 
Q 49.265625 0.734375 44.1875 -0.34375 
Q 39.109375 -1.421875 33.890625 -1.421875 
Q 20.796875 -1.421875 13.15625 6.1875 
Q 5.515625 13.8125 5.515625 26.8125 
Q 5.515625 40.234375 12.765625 48.109375 
Q 20.015625 56 32.328125 56 
Q 43.359375 56 49.78125 48.890625 
Q 56.203125 41.796875 56.203125 29.59375 
z
M 47.21875 32.234375 
Q 47.125 39.59375 43.09375 43.984375 
Q 39.0625 48.390625 32.421875 48.390625 
Q 24.90625 48.390625 20.390625 44.140625 
Q 15.875 39.890625 15.1875 32.171875 
z
" id="DejaVuSans-101"/>
       <path d="M 34.28125 27.484375 
Q 23.390625 27.484375 19.1875 25 
Q 14.984375 22.515625 14.984375 16.5 
Q 14.984375 11.71875 18.140625 8.90625 
Q 21.296875 6.109375 26.703125 6.109375 
Q 34.1875 6.109375 38.703125 11.40625 
Q 43.21875 16.703125 43.21875 25.484375 
L 43.21875 27.484375 
z
M 52.203125 31.203125 
L 52.203125 0 
L 43.21875 0 
L 43.21875 8.296875 
Q 40.140625 3.328125 35.546875 0.953125 
Q 30.953125 -1.421875 24.3125 -1.421875 
Q 15.921875 -1.421875 10.953125 3.296875 
Q 6 8.015625 6 15.921875 
Q 6 25.140625 12.171875 29.828125 
Q 18.359375 34.515625 30.609375 34.515625 
L 43.21875 34.515625 
L 43.21875 35.40625 
Q 43.21875 41.609375 39.140625 45 
Q 35.0625 48.390625 27.6875 48.390625 
Q 23 48.390625 18.546875 47.265625 
Q 14.109375 46.140625 10.015625 43.890625 
L 10.015625 52.203125 
Q 14.9375 54.109375 19.578125 55.046875 
Q 24.21875 56 28.609375 56 
Q 40.484375 56 46.34375 49.84375 
Q 52.203125 43.703125 52.203125 31.203125 
z
" id="DejaVuSans-97"/>
       <path d="M 54.890625 33.015625 
L 54.890625 0 
L 45.90625 0 
L 45.90625 32.71875 
Q 45.90625 40.484375 42.875 44.328125 
Q 39.84375 48.1875 33.796875 48.1875 
Q 26.515625 48.1875 22.3125 43.546875 
Q 18.109375 38.921875 18.109375 30.90625 
L 18.109375 0 
L 9.078125 0 
L 9.078125 54.6875 
L 18.109375 54.6875 
L 18.109375 46.1875 
Q 21.34375 51.125 25.703125 53.5625 
Q 30.078125 56 35.796875 56 
Q 45.21875 56 50.046875 50.171875 
Q 54.890625 44.34375 54.890625 33.015625 
z
" id="DejaVuSans-110"/>
       <path id="DejaVuSans-32"/>
       <path d="M 19.671875 64.796875 
L 19.671875 8.109375 
L 31.59375 8.109375 
Q 46.6875 8.109375 53.6875 14.9375 
Q 60.6875 21.78125 60.6875 36.53125 
Q 60.6875 51.171875 53.6875 57.984375 
Q 46.6875 64.796875 31.59375 64.796875 
z
M 9.8125 72.90625 
L 30.078125 72.90625 
Q 51.265625 72.90625 61.171875 64.09375 
Q 71.09375 55.28125 71.09375 36.53125 
Q 71.09375 17.671875 61.125 8.828125 
Q 51.171875 0 30.078125 0 
L 9.8125 0 
z
" id="DejaVuSans-68"/>
       <path d="M 44.28125 53.078125 
L 44.28125 44.578125 
Q 40.484375 46.53125 36.375 47.5 
Q 32.28125 48.484375 27.875 48.484375 
Q 21.1875 48.484375 17.84375 46.4375 
Q 14.5 44.390625 14.5 40.28125 
Q 14.5 37.15625 16.890625 35.375 
Q 19.28125 33.59375 26.515625 31.984375 
L 29.59375 31.296875 
Q 39.15625 29.25 43.1875 25.515625 
Q 47.21875 21.78125 47.21875 15.09375 
Q 47.21875 7.46875 41.1875 3.015625 
Q 35.15625 -1.421875 24.609375 -1.421875 
Q 20.21875 -1.421875 15.453125 -0.5625 
Q 10.6875 0.296875 5.421875 2 
L 5.421875 11.28125 
Q 10.40625 8.6875 15.234375 7.390625 
Q 20.0625 6.109375 24.8125 6.109375 
Q 31.15625 6.109375 34.5625 8.28125 
Q 37.984375 10.453125 37.984375 14.40625 
Q 37.984375 18.0625 35.515625 20.015625 
Q 33.0625 21.96875 24.703125 23.78125 
L 21.578125 24.515625 
Q 13.234375 26.265625 9.515625 29.90625 
Q 5.8125 33.546875 5.8125 39.890625 
Q 5.8125 47.609375 11.28125 51.796875 
Q 16.75 56 26.8125 56 
Q 31.78125 56 36.171875 55.265625 
Q 40.578125 54.546875 44.28125 53.078125 
z
" id="DejaVuSans-115"/>
       <path d="M 18.3125 70.21875 
L 18.3125 54.6875 
L 36.8125 54.6875 
L 36.8125 47.703125 
L 18.3125 47.703125 
L 18.3125 18.015625 
Q 18.3125 11.328125 20.140625 9.421875 
Q 21.96875 7.515625 27.59375 7.515625 
L 36.8125 7.515625 
L 36.8125 0 
L 27.59375 0 
Q 17.1875 0 13.234375 3.875 
Q 9.28125 7.765625 9.28125 18.015625 
L 9.28125 47.703125 
L 2.6875 47.703125 
L 2.6875 54.6875 
L 9.28125 54.6875 
L 9.28125 70.21875 
z
" id="DejaVuSans-116"/>
      </defs>
      <use xlink:href="#DejaVuSans-69"/>
      <use x="63.183594" xlink:href="#DejaVuSans-117"/>
      <use x="126.5625" xlink:href="#DejaVuSans-99"/>
      <use x="181.542969" xlink:href="#DejaVuSans-108"/>
      <use x="209.326172" xlink:href="#DejaVuSans-105"/>
      <use x="237.109375" xlink:href="#DejaVuSans-100"/>
      <use x="300.585938" xlink:href="#DejaVuSans-101"/>
      <use x="362.109375" xlink:href="#DejaVuSans-97"/>
      <use x="423.388672" xlink:href="#DejaVuSans-110"/>
      <use x="486.767578" xlink:href="#DejaVuSans-32"/>
      <use x="518.554688" xlink:href="#DejaVuSans-68"/>
      <use x="595.556641" xlink:href="#DejaVuSans-105"/>
      <use x="623.339844" xlink:href="#DejaVuSans-115"/>
      <use x="675.439453" xlink:href="#DejaVuSans-116"/>
      <use x="714.648438" xlink:href="#DejaVuSans-97"/>
      <use x="775.927734" xlink:href="#DejaVuSans-110"/>
      <use x="839.306641" xlink:href="#DejaVuSans-99"/>
      <use x="894.287109" xlink:href="#DejaVuSans-101"/>
     </g>
    </g>
   </g>
   <g id="matplotlib.axis_2">
    <g id="ytick_1">
     <g id="line2d_18">
      <path clip-path="url(#p7fe43a0870)" d="M 65.298938 280.121371 
L 422.418938 280.121371 
" style="fill:none;stroke:#ffffff;"/>
     </g>
     <g id="line2d_19">
      <path d="M 65.298938 280.121371 
" style="fill:none;stroke:#333333;stroke-width:1.5;"/>
      <defs>
       <path d="M 0 0 
L -2.75 0 
" id="mde60518e3f" style="stroke:#000000;"/>
      </defs>
      <g>
       <use style="fill:#333333;stroke:#000000;" x="65.298938" xlink:href="#mde60518e3f" y="280.121371"/>
      </g>
     </g>
     <g id="text_8">
      <!-- 0.4 -->
      <g style="fill:#4d4d4d;" transform="translate(46.354188 282.549621)scale(0.088 -0.088)">
       <defs>
        <path d="M 37.796875 64.3125 
L 12.890625 25.390625 
L 37.796875 25.390625 
z
M 35.203125 72.90625 
L 47.609375 72.90625 
L 47.609375 25.390625 
L 58.015625 25.390625 
L 58.015625 17.1875 
L 47.609375 17.1875 
L 47.609375 0 
L 37.796875 0 
L 37.796875 17.1875 
L 4.890625 17.1875 
L 4.890625 26.703125 
z
" id="DejaVuSans-52"/>
       </defs>
       <use xlink:href="#DejaVuSans-48"/>
       <use x="63.623047" xlink:href="#DejaVuSans-46"/>
       <use x="95.410156" xlink:href="#DejaVuSans-52"/>
      </g>
     </g>
    </g>
    <g id="ytick_2">
     <g id="line2d_20">
      <path clip-path="url(#p7fe43a0870)" d="M 65.298938 199.481371 
L 422.418938 199.481371 
" style="fill:none;stroke:#ffffff;"/>
     </g>
     <g id="line2d_21">
      <path d="M 65.298938 199.481371 
" style="fill:none;stroke:#333333;stroke-width:1.5;"/>
      <g>
       <use style="fill:#333333;stroke:#000000;" x="65.298938" xlink:href="#mde60518e3f" y="199.481371"/>
      </g>
     </g>
     <g id="text_9">
      <!-- 0.6 -->
      <g style="fill:#4d4d4d;" transform="translate(46.354188 201.909621)scale(0.088 -0.088)">
       <defs>
        <path d="M 33.015625 40.375 
Q 26.375 40.375 22.484375 35.828125 
Q 18.609375 31.296875 18.609375 23.390625 
Q 18.609375 15.53125 22.484375 10.953125 
Q 26.375 6.390625 33.015625 6.390625 
Q 39.65625 6.390625 43.53125 10.953125 
Q 47.40625 15.53125 47.40625 23.390625 
Q 47.40625 31.296875 43.53125 35.828125 
Q 39.65625 40.375 33.015625 40.375 
z
M 52.59375 71.296875 
L 52.59375 62.3125 
Q 48.875 64.0625 45.09375 64.984375 
Q 41.3125 65.921875 37.59375 65.921875 
Q 27.828125 65.921875 22.671875 59.328125 
Q 17.53125 52.734375 16.796875 39.40625 
Q 19.671875 43.65625 24.015625 45.921875 
Q 28.375 48.1875 33.59375 48.1875 
Q 44.578125 48.1875 50.953125 41.515625 
Q 57.328125 34.859375 57.328125 23.390625 
Q 57.328125 12.15625 50.6875 5.359375 
Q 44.046875 -1.421875 33.015625 -1.421875 
Q 20.359375 -1.421875 13.671875 8.265625 
Q 6.984375 17.96875 6.984375 36.375 
Q 6.984375 53.65625 15.1875 63.9375 
Q 23.390625 74.21875 37.203125 74.21875 
Q 40.921875 74.21875 44.703125 73.484375 
Q 48.484375 72.75 52.59375 71.296875 
z
" id="DejaVuSans-54"/>
       </defs>
       <use xlink:href="#DejaVuSans-48"/>
       <use x="63.623047" xlink:href="#DejaVuSans-46"/>
       <use x="95.410156" xlink:href="#DejaVuSans-54"/>
      </g>
     </g>
    </g>
    <g id="ytick_3">
     <g id="line2d_22">
      <path clip-path="url(#p7fe43a0870)" d="M 65.298938 118.841371 
L 422.418938 118.841371 
" style="fill:none;stroke:#ffffff;"/>
     </g>
     <g id="line2d_23">
      <path d="M 65.298938 118.841371 
" style="fill:none;stroke:#333333;stroke-width:1.5;"/>
      <g>
       <use style="fill:#333333;stroke:#000000;" x="65.298938" xlink:href="#mde60518e3f" y="118.841371"/>
      </g>
     </g>
     <g id="text_10">
      <!-- 0.8 -->
      <g style="fill:#4d4d4d;" transform="translate(46.354188 121.269621)scale(0.088 -0.088)">
       <defs>
        <path d="M 31.78125 34.625 
Q 24.75 34.625 20.71875 30.859375 
Q 16.703125 27.09375 16.703125 20.515625 
Q 16.703125 13.921875 20.71875 10.15625 
Q 24.75 6.390625 31.78125 6.390625 
Q 38.8125 6.390625 42.859375 10.171875 
Q 46.921875 13.96875 46.921875 20.515625 
Q 46.921875 27.09375 42.890625 30.859375 
Q 38.875 34.625 31.78125 34.625 
z
M 21.921875 38.8125 
Q 15.578125 40.375 12.03125 44.71875 
Q 8.5 49.078125 8.5 55.328125 
Q 8.5 64.0625 14.71875 69.140625 
Q 20.953125 74.21875 31.78125 74.21875 
Q 42.671875 74.21875 48.875 69.140625 
Q 55.078125 64.0625 55.078125 55.328125 
Q 55.078125 49.078125 51.53125 44.71875 
Q 48 40.375 41.703125 38.8125 
Q 48.828125 37.15625 52.796875 32.3125 
Q 56.78125 27.484375 56.78125 20.515625 
Q 56.78125 9.90625 50.3125 4.234375 
Q 43.84375 -1.421875 31.78125 -1.421875 
Q 19.734375 -1.421875 13.25 4.234375 
Q 6.78125 9.90625 6.78125 20.515625 
Q 6.78125 27.484375 10.78125 32.3125 
Q 14.796875 37.15625 21.921875 38.8125 
z
M 18.3125 54.390625 
Q 18.3125 48.734375 21.84375 45.5625 
Q 25.390625 42.390625 31.78125 42.390625 
Q 38.140625 42.390625 41.71875 45.5625 
Q 45.3125 48.734375 45.3125 54.390625 
Q 45.3125 60.0625 41.71875 63.234375 
Q 38.140625 66.40625 31.78125 66.40625 
Q 25.390625 66.40625 21.84375 63.234375 
Q 18.3125 60.0625 18.3125 54.390625 
z
" id="DejaVuSans-56"/>
       </defs>
       <use xlink:href="#DejaVuSans-48"/>
       <use x="63.623047" xlink:href="#DejaVuSans-46"/>
       <use x="95.410156" xlink:href="#DejaVuSans-56"/>
      </g>
     </g>
    </g>
    <g id="ytick_4">
     <g id="line2d_24">
      <path clip-path="url(#p7fe43a0870)" d="M 65.298938 38.201371 
L 422.418938 38.201371 
" style="fill:none;stroke:#ffffff;"/>
     </g>
     <g id="line2d_25">
      <path d="M 65.298938 38.201371 
" style="fill:none;stroke:#333333;stroke-width:1.5;"/>
      <g>
       <use style="fill:#333333;stroke:#000000;" x="65.298938" xlink:href="#mde60518e3f" y="38.201371"/>
      </g>
     </g>
     <g id="text_11">
      <!-- 1 -->
      <g style="fill:#4d4d4d;" transform="translate(54.749938 40.629621)scale(0.088 -0.088)">
       <use xlink:href="#DejaVuSans-49"/>
      </g>
     </g>
    </g>
    <g id="ytick_5">
     <g id="line2d_26">
      <path clip-path="url(#p7fe43a0870)" d="M 65.298938 239.801371 
L 422.418938 239.801371 
" style="fill:none;stroke:#ffffff;stroke-width:0.5;"/>
     </g>
    </g>
    <g id="ytick_6">
     <g id="line2d_27">
      <path clip-path="url(#p7fe43a0870)" d="M 65.298938 159.161371 
L 422.418938 159.161371 
" style="fill:none;stroke:#ffffff;stroke-width:0.5;"/>
     </g>
    </g>
    <g id="ytick_7">
     <g id="line2d_28">
      <path clip-path="url(#p7fe43a0870)" d="M 65.298938 78.521371 
L 422.418938 78.521371 
" style="fill:none;stroke:#ffffff;stroke-width:0.5;"/>
     </g>
    </g>
    <g id="text_12">
     <!-- Accuracy -->
     <g transform="translate(39.666531 182.544308)rotate(-90)scale(0.11 -0.11)">
      <defs>
       <path d="M 34.1875 63.1875 
L 20.796875 26.90625 
L 47.609375 26.90625 
z
M 28.609375 72.90625 
L 39.796875 72.90625 
L 67.578125 0 
L 57.328125 0 
L 50.6875 18.703125 
L 17.828125 18.703125 
L 11.1875 0 
L 0.78125 0 
z
" id="DejaVuSans-65"/>
       <path d="M 41.109375 46.296875 
Q 39.59375 47.171875 37.8125 47.578125 
Q 36.03125 48 33.890625 48 
Q 26.265625 48 22.1875 43.046875 
Q 18.109375 38.09375 18.109375 28.8125 
L 18.109375 0 
L 9.078125 0 
L 9.078125 54.6875 
L 18.109375 54.6875 
L 18.109375 46.1875 
Q 20.953125 51.171875 25.484375 53.578125 
Q 30.03125 56 36.53125 56 
Q 37.453125 56 38.578125 55.875 
Q 39.703125 55.765625 41.0625 55.515625 
z
" id="DejaVuSans-114"/>
       <path d="M 32.171875 -5.078125 
Q 28.375 -14.84375 24.75 -17.8125 
Q 21.140625 -20.796875 15.09375 -20.796875 
L 7.90625 -20.796875 
L 7.90625 -13.28125 
L 13.1875 -13.28125 
Q 16.890625 -13.28125 18.9375 -11.515625 
Q 21 -9.765625 23.484375 -3.21875 
L 25.09375 0.875 
L 2.984375 54.6875 
L 12.5 54.6875 
L 29.59375 11.921875 
L 46.6875 54.6875 
L 56.203125 54.6875 
z
" id="DejaVuSans-121"/>
      </defs>
      <use xlink:href="#DejaVuSans-65"/>
      <use x="66.658203" xlink:href="#DejaVuSans-99"/>
      <use x="121.638672" xlink:href="#DejaVuSans-99"/>
      <use x="176.619141" xlink:href="#DejaVuSans-117"/>
      <use x="239.998047" xlink:href="#DejaVuSans-114"/>
      <use x="281.111328" xlink:href="#DejaVuSans-97"/>
      <use x="342.390625" xlink:href="#DejaVuSans-99"/>
      <use x="397.371094" xlink:href="#DejaVuSans-121"/>
     </g>
    </g>
   </g>
   <g id="line2d_29">
    <path clip-path="url(#p7fe43a0870)" d="M 81.531665 227.302171 
L 119.678574 203.916571 
L 158.096028 67.836571 
L 196.242938 42.434971 
L 234.660392 38.201371 
L 272.807301 38.201371 
L 311.224756 38.201371 
L 349.371665 38.201371 
L 387.518574 38.201371 
" style="fill:none;stroke:#db5f57;stroke-width:0.886227;"/>
   </g>
   <g id="line2d_30">
    <path clip-path="url(#p7fe43a0870)" d="M 81.531665 217.625371 
L 119.678574 209.561371 
L 158.096028 100.697371 
L 196.242938 45.660571 
L 234.660392 38.604571 
L 272.807301 38.201371 
L 311.224756 38.201371 
L 349.371665 38.201371 
L 387.518574 38.201371 
" style="fill:none;stroke:#91db57;stroke-width:0.886227;"/>
   </g>
   <g id="line2d_31">
    <path clip-path="url(#p7fe43a0870)" d="M 81.531665 220.850971 
L 119.678574 222.060571 
L 158.096028 99.890971 
L 196.242938 46.063771 
L 234.660392 40.822171 
L 272.807301 38.402971 
L 311.224756 38.201371 
L 349.371665 38.201371 
L 387.518574 38.201371 
" style="fill:none;stroke:#57d3db;stroke-width:0.886227;"/>
   </g>
   <g id="line2d_32">
    <path clip-path="url(#p7fe43a0870)" d="M 81.531665 228.108571 
L 119.678574 225.084571 
L 158.096028 197.666971 
L 196.242938 108.761371 
L 234.660392 49.087771 
L 272.807301 41.023771 
L 311.224756 38.402971 
L 349.371665 38.402971 
L 387.518574 38.201371 
" style="fill:none;stroke:#a157db;stroke-width:0.886227;"/>
   </g>
   <g id="PathCollection_1">
    <path clip-path="url(#p7fe43a0870)" d="M 81.531665 229.074625 
C 82.001725 229.074625 82.452596 228.887868 82.784979 228.555485 
C 83.117362 228.223102 83.304119 227.772231 83.304119 227.302171 
C 83.304119 226.83211 83.117362 226.381239 82.784979 226.048857 
C 82.452596 225.716474 82.001725 225.529717 81.531665 225.529717 
C 81.061605 225.529717 80.610733 225.716474 80.278351 226.048857 
C 79.945968 226.381239 79.759211 226.83211 79.759211 227.302171 
C 79.759211 227.772231 79.945968 228.223102 80.278351 228.555485 
C 80.610733 228.887868 81.061605 229.074625 81.531665 229.074625 
z
" style="stroke:#000000;stroke-width:0.886227;"/>
    <path clip-path="url(#p7fe43a0870)" d="M 81.531665 219.397825 
C 82.001725 219.397825 82.452596 219.211068 82.784979 218.878685 
C 83.117362 218.546302 83.304119 218.095431 83.304119 217.625371 
C 83.304119 217.15531 83.117362 216.704439 82.784979 216.372057 
C 82.452596 216.039674 82.001725 215.852917 81.531665 215.852917 
C 81.061605 215.852917 80.610733 216.039674 80.278351 216.372057 
C 79.945968 216.704439 79.759211 217.15531 79.759211 217.625371 
C 79.759211 218.095431 79.945968 218.546302 80.278351 218.878685 
C 80.610733 219.211068 81.061605 219.397825 81.531665 219.397825 
z
" style="stroke:#000000;stroke-width:0.886227;"/>
    <path clip-path="url(#p7fe43a0870)" d="M 81.531665 222.623425 
C 82.001725 222.623425 82.452596 222.436668 82.784979 222.104285 
C 83.117362 221.771902 83.304119 221.321031 83.304119 220.850971 
C 83.304119 220.38091 83.117362 219.930039 82.784979 219.597657 
C 82.452596 219.265274 82.001725 219.078517 81.531665 219.078517 
C 81.061605 219.078517 80.610733 219.265274 80.278351 219.597657 
C 79.945968 219.930039 79.759211 220.38091 79.759211 220.850971 
C 79.759211 221.321031 79.945968 221.771902 80.278351 222.104285 
C 80.610733 222.436668 81.061605 222.623425 81.531665 222.623425 
z
" style="stroke:#000000;stroke-width:0.886227;"/>
    <path clip-path="url(#p7fe43a0870)" d="M 81.531665 229.881025 
C 82.001725 229.881025 82.452596 229.694268 82.784979 229.361885 
C 83.117362 229.029502 83.304119 228.578631 83.304119 228.108571 
C 83.304119 227.63851 83.117362 227.187639 82.784979 226.855257 
C 82.452596 226.522874 82.001725 226.336117 81.531665 226.336117 
C 81.061605 226.336117 80.610733 226.522874 80.278351 226.855257 
C 79.945968 227.187639 79.759211 227.63851 79.759211 228.108571 
C 79.759211 228.578631 79.945968 229.029502 80.278351 229.361885 
C 80.610733 229.694268 81.061605 229.881025 81.531665 229.881025 
z
" style="stroke:#000000;stroke-width:0.886227;"/>
    <path clip-path="url(#p7fe43a0870)" d="M 119.678574 205.689025 
C 120.148634 205.689025 120.599505 205.502268 120.931888 205.169885 
C 121.264271 204.837502 121.451028 204.386631 121.451028 203.916571 
C 121.451028 203.44651 121.264271 202.995639 120.931888 202.663257 
C 120.599505 202.330874 120.148634 202.144117 119.678574 202.144117 
C 119.208514 202.144117 118.757643 202.330874 118.42526 202.663257 
C 118.092877 202.995639 117.90612 203.44651 117.90612 203.916571 
C 117.90612 204.386631 118.092877 204.837502 118.42526 205.169885 
C 118.757643 205.502268 119.208514 205.689025 119.678574 205.689025 
z
" style="stroke:#000000;stroke-width:0.886227;"/>
    <path clip-path="url(#p7fe43a0870)" d="M 119.678574 211.333825 
C 120.148634 211.333825 120.599505 211.147068 120.931888 210.814685 
C 121.264271 210.482302 121.451028 210.031431 121.451028 209.561371 
C 121.451028 209.09131 121.264271 208.640439 120.931888 208.308057 
C 120.599505 207.975674 120.148634 207.788917 119.678574 207.788917 
C 119.208514 207.788917 118.757643 207.975674 118.42526 208.308057 
C 118.092877 208.640439 117.90612 209.09131 117.90612 209.561371 
C 117.90612 210.031431 118.092877 210.482302 118.42526 210.814685 
C 118.757643 211.147068 119.208514 211.333825 119.678574 211.333825 
z
" style="stroke:#000000;stroke-width:0.886227;"/>
    <path clip-path="url(#p7fe43a0870)" d="M 119.678574 223.833025 
C 120.148634 223.833025 120.599505 223.646268 120.931888 223.313885 
C 121.264271 222.981502 121.451028 222.530631 121.451028 222.060571 
C 121.451028 221.59051 121.264271 221.139639 120.931888 220.807257 
C 120.599505 220.474874 120.148634 220.288117 119.678574 220.288117 
C 119.208514 220.288117 118.757643 220.474874 118.42526 220.807257 
C 118.092877 221.139639 117.90612 221.59051 117.90612 222.060571 
C 117.90612 222.530631 118.092877 222.981502 118.42526 223.313885 
C 118.757643 223.646268 119.208514 223.833025 119.678574 223.833025 
z
" style="stroke:#000000;stroke-width:0.886227;"/>
    <path clip-path="url(#p7fe43a0870)" d="M 119.678574 226.857025 
C 120.148634 226.857025 120.599505 226.670268 120.931888 226.337885 
C 121.264271 226.005502 121.451028 225.554631 121.451028 225.084571 
C 121.451028 224.61451 121.264271 224.163639 120.931888 223.831257 
C 120.599505 223.498874 120.148634 223.312117 119.678574 223.312117 
C 119.208514 223.312117 118.757643 223.498874 118.42526 223.831257 
C 118.092877 224.163639 117.90612 224.61451 117.90612 225.084571 
C 117.90612 225.554631 118.092877 226.005502 118.42526 226.337885 
C 118.757643 226.670268 119.208514 226.857025 119.678574 226.857025 
z
" style="stroke:#000000;stroke-width:0.886227;"/>
    <path clip-path="url(#p7fe43a0870)" d="M 158.096028 69.609025 
C 158.566089 69.609025 159.01696 69.422268 159.349343 69.089885 
C 159.681725 68.757502 159.868482 68.306631 159.868482 67.836571 
C 159.868482 67.36651 159.681725 66.915639 159.349343 66.583257 
C 159.01696 66.250874 158.566089 66.064117 158.096028 66.064117 
C 157.625968 66.064117 157.175097 66.250874 156.842714 66.583257 
C 156.510331 66.915639 156.323575 67.36651 156.323575 67.836571 
C 156.323575 68.306631 156.510331 68.757502 156.842714 69.089885 
C 157.175097 69.422268 157.625968 69.609025 158.096028 69.609025 
z
" style="stroke:#000000;stroke-width:0.886227;"/>
    <path clip-path="url(#p7fe43a0870)" d="M 158.096028 102.469825 
C 158.566089 102.469825 159.01696 102.283068 159.349343 101.950685 
C 159.681725 101.618302 159.868482 101.167431 159.868482 100.697371 
C 159.868482 100.22731 159.681725 99.776439 159.349343 99.444057 
C 159.01696 99.111674 158.566089 98.924917 158.096028 98.924917 
C 157.625968 98.924917 157.175097 99.111674 156.842714 99.444057 
C 156.510331 99.776439 156.323575 100.22731 156.323575 100.697371 
C 156.323575 101.167431 156.510331 101.618302 156.842714 101.950685 
C 157.175097 102.283068 157.625968 102.469825 158.096028 102.469825 
z
" style="stroke:#000000;stroke-width:0.886227;"/>
    <path clip-path="url(#p7fe43a0870)" d="M 158.096028 101.663425 
C 158.566089 101.663425 159.01696 101.476668 159.349343 101.144285 
C 159.681725 100.811902 159.868482 100.361031 159.868482 99.890971 
C 159.868482 99.42091 159.681725 98.970039 159.349343 98.637657 
C 159.01696 98.305274 158.566089 98.118517 158.096028 98.118517 
C 157.625968 98.118517 157.175097 98.305274 156.842714 98.637657 
C 156.510331 98.970039 156.323575 99.42091 156.323575 99.890971 
C 156.323575 100.361031 156.510331 100.811902 156.842714 101.144285 
C 157.175097 101.476668 157.625968 101.663425 158.096028 101.663425 
z
" style="stroke:#000000;stroke-width:0.886227;"/>
    <path clip-path="url(#p7fe43a0870)" d="M 158.096028 199.439425 
C 158.566089 199.439425 159.01696 199.252668 159.349343 198.920285 
C 159.681725 198.587902 159.868482 198.137031 159.868482 197.666971 
C 159.868482 197.19691 159.681725 196.746039 159.349343 196.413657 
C 159.01696 196.081274 158.566089 195.894517 158.096028 195.894517 
C 157.625968 195.894517 157.175097 196.081274 156.842714 196.413657 
C 156.510331 196.746039 156.323575 197.19691 156.323575 197.666971 
C 156.323575 198.137031 156.510331 198.587902 156.842714 198.920285 
C 157.175097 199.252668 157.625968 199.439425 158.096028 199.439425 
z
" style="stroke:#000000;stroke-width:0.886227;"/>
    <path clip-path="url(#p7fe43a0870)" d="M 196.242938 44.207425 
C 196.712998 44.207425 197.163869 44.020668 197.496252 43.688285 
C 197.828634 43.355902 198.015391 42.905031 198.015391 42.434971 
C 198.015391 41.96491 197.828634 41.514039 197.496252 41.181657 
C 197.163869 40.849274 196.712998 40.662517 196.242938 40.662517 
C 195.772877 40.662517 195.322006 40.849274 194.989623 41.181657 
C 194.657241 41.514039 194.470484 41.96491 194.470484 42.434971 
C 194.470484 42.905031 194.657241 43.355902 194.989623 43.688285 
C 195.322006 44.020668 195.772877 44.207425 196.242938 44.207425 
z
" style="stroke:#000000;stroke-width:0.886227;"/>
    <path clip-path="url(#p7fe43a0870)" d="M 196.242938 47.433025 
C 196.712998 47.433025 197.163869 47.246268 197.496252 46.913885 
C 197.828634 46.581502 198.015391 46.130631 198.015391 45.660571 
C 198.015391 45.19051 197.828634 44.739639 197.496252 44.407257 
C 197.163869 44.074874 196.712998 43.888117 196.242938 43.888117 
C 195.772877 43.888117 195.322006 44.074874 194.989623 44.407257 
C 194.657241 44.739639 194.470484 45.19051 194.470484 45.660571 
C 194.470484 46.130631 194.657241 46.581502 194.989623 46.913885 
C 195.322006 47.246268 195.772877 47.433025 196.242938 47.433025 
z
" style="stroke:#000000;stroke-width:0.886227;"/>
    <path clip-path="url(#p7fe43a0870)" d="M 196.242938 47.836225 
C 196.712998 47.836225 197.163869 47.649468 197.496252 47.317085 
C 197.828634 46.984702 198.015391 46.533831 198.015391 46.063771 
C 198.015391 45.59371 197.828634 45.142839 197.496252 44.810457 
C 197.163869 44.478074 196.712998 44.291317 196.242938 44.291317 
C 195.772877 44.291317 195.322006 44.478074 194.989623 44.810457 
C 194.657241 45.142839 194.470484 45.59371 194.470484 46.063771 
C 194.470484 46.533831 194.657241 46.984702 194.989623 47.317085 
C 195.322006 47.649468 195.772877 47.836225 196.242938 47.836225 
z
" style="stroke:#000000;stroke-width:0.886227;"/>
    <path clip-path="url(#p7fe43a0870)" d="M 196.242938 110.533825 
C 196.712998 110.533825 197.163869 110.347068 197.496252 110.014685 
C 197.828634 109.682302 198.015391 109.231431 198.015391 108.761371 
C 198.015391 108.29131 197.828634 107.840439 197.496252 107.508057 
C 197.163869 107.175674 196.712998 106.988917 196.242938 106.988917 
C 195.772877 106.988917 195.322006 107.175674 194.989623 107.508057 
C 194.657241 107.840439 194.470484 108.29131 194.470484 108.761371 
C 194.470484 109.231431 194.657241 109.682302 194.989623 110.014685 
C 195.322006 110.347068 195.772877 110.533825 196.242938 110.533825 
z
" style="stroke:#000000;stroke-width:0.886227;"/>
    <path clip-path="url(#p7fe43a0870)" d="M 234.660392 39.973825 
C 235.130452 39.973825 235.581323 39.787068 235.913706 39.454685 
C 236.246089 39.122302 236.432846 38.671431 236.432846 38.201371 
C 236.432846 37.73131 236.246089 37.280439 235.913706 36.948057 
C 235.581323 36.615674 235.130452 36.428917 234.660392 36.428917 
C 234.190332 36.428917 233.739461 36.615674 233.407078 36.948057 
C 233.074695 37.280439 232.887938 37.73131 232.887938 38.201371 
C 232.887938 38.671431 233.074695 39.122302 233.407078 39.454685 
C 233.739461 39.787068 234.190332 39.973825 234.660392 39.973825 
z
" style="stroke:#000000;stroke-width:0.886227;"/>
    <path clip-path="url(#p7fe43a0870)" d="M 234.660392 40.377025 
C 235.130452 40.377025 235.581323 40.190268 235.913706 39.857885 
C 236.246089 39.525502 236.432846 39.074631 236.432846 38.604571 
C 236.432846 38.13451 236.246089 37.683639 235.913706 37.351257 
C 235.581323 37.018874 235.130452 36.832117 234.660392 36.832117 
C 234.190332 36.832117 233.739461 37.018874 233.407078 37.351257 
C 233.074695 37.683639 232.887938 38.13451 232.887938 38.604571 
C 232.887938 39.074631 233.074695 39.525502 233.407078 39.857885 
C 233.739461 40.190268 234.190332 40.377025 234.660392 40.377025 
z
" style="stroke:#000000;stroke-width:0.886227;"/>
    <path clip-path="url(#p7fe43a0870)" d="M 234.660392 42.594625 
C 235.130452 42.594625 235.581323 42.407868 235.913706 42.075485 
C 236.246089 41.743102 236.432846 41.292231 236.432846 40.822171 
C 236.432846 40.35211 236.246089 39.901239 235.913706 39.568857 
C 235.581323 39.236474 235.130452 39.049717 234.660392 39.049717 
C 234.190332 39.049717 233.739461 39.236474 233.407078 39.568857 
C 233.074695 39.901239 232.887938 40.35211 232.887938 40.822171 
C 232.887938 41.292231 233.074695 41.743102 233.407078 42.075485 
C 233.739461 42.407868 234.190332 42.594625 234.660392 42.594625 
z
" style="stroke:#000000;stroke-width:0.886227;"/>
    <path clip-path="url(#p7fe43a0870)" d="M 234.660392 50.860225 
C 235.130452 50.860225 235.581323 50.673468 235.913706 50.341085 
C 236.246089 50.008702 236.432846 49.557831 236.432846 49.087771 
C 236.432846 48.61771 236.246089 48.166839 235.913706 47.834457 
C 235.581323 47.502074 235.130452 47.315317 234.660392 47.315317 
C 234.190332 47.315317 233.739461 47.502074 233.407078 47.834457 
C 233.074695 48.166839 232.887938 48.61771 232.887938 49.087771 
C 232.887938 49.557831 233.074695 50.008702 233.407078 50.341085 
C 233.739461 50.673468 234.190332 50.860225 234.660392 50.860225 
z
" style="stroke:#000000;stroke-width:0.886227;"/>
    <path clip-path="url(#p7fe43a0870)" d="M 272.807301 39.973825 
C 273.277361 39.973825 273.728232 39.787068 274.060615 39.454685 
C 274.392998 39.122302 274.579755 38.671431 274.579755 38.201371 
C 274.579755 37.73131 274.392998 37.280439 274.060615 36.948057 
C 273.728232 36.615674 273.277361 36.428917 272.807301 36.428917 
C 272.337241 36.428917 271.88637 36.615674 271.553987 36.948057 
C 271.221604 37.280439 271.034847 37.73131 271.034847 38.201371 
C 271.034847 38.671431 271.221604 39.122302 271.553987 39.454685 
C 271.88637 39.787068 272.337241 39.973825 272.807301 39.973825 
z
" style="stroke:#000000;stroke-width:0.886227;"/>
    <path clip-path="url(#p7fe43a0870)" d="M 272.807301 39.973825 
C 273.277361 39.973825 273.728232 39.787068 274.060615 39.454685 
C 274.392998 39.122302 274.579755 38.671431 274.579755 38.201371 
C 274.579755 37.73131 274.392998 37.280439 274.060615 36.948057 
C 273.728232 36.615674 273.277361 36.428917 272.807301 36.428917 
C 272.337241 36.428917 271.88637 36.615674 271.553987 36.948057 
C 271.221604 37.280439 271.034847 37.73131 271.034847 38.201371 
C 271.034847 38.671431 271.221604 39.122302 271.553987 39.454685 
C 271.88637 39.787068 272.337241 39.973825 272.807301 39.973825 
z
" style="stroke:#000000;stroke-width:0.886227;"/>
    <path clip-path="url(#p7fe43a0870)" d="M 272.807301 40.175425 
C 273.277361 40.175425 273.728232 39.988668 274.060615 39.656285 
C 274.392998 39.323902 274.579755 38.873031 274.579755 38.402971 
C 274.579755 37.93291 274.392998 37.482039 274.060615 37.149657 
C 273.728232 36.817274 273.277361 36.630517 272.807301 36.630517 
C 272.337241 36.630517 271.88637 36.817274 271.553987 37.149657 
C 271.221604 37.482039 271.034847 37.93291 271.034847 38.402971 
C 271.034847 38.873031 271.221604 39.323902 271.553987 39.656285 
C 271.88637 39.988668 272.337241 40.175425 272.807301 40.175425 
z
" style="stroke:#000000;stroke-width:0.886227;"/>
    <path clip-path="url(#p7fe43a0870)" d="M 272.807301 42.796225 
C 273.277361 42.796225 273.728232 42.609468 274.060615 42.277085 
C 274.392998 41.944702 274.579755 41.493831 274.579755 41.023771 
C 274.579755 40.55371 274.392998 40.102839 274.060615 39.770457 
C 273.728232 39.438074 273.277361 39.251317 272.807301 39.251317 
C 272.337241 39.251317 271.88637 39.438074 271.553987 39.770457 
C 271.221604 40.102839 271.034847 40.55371 271.034847 41.023771 
C 271.034847 41.493831 271.221604 41.944702 271.553987 42.277085 
C 271.88637 42.609468 272.337241 42.796225 272.807301 42.796225 
z
" style="stroke:#000000;stroke-width:0.886227;"/>
    <path clip-path="url(#p7fe43a0870)" d="M 311.224756 39.973825 
C 311.694816 39.973825 312.145687 39.787068 312.47807 39.454685 
C 312.810453 39.122302 312.99721 38.671431 312.99721 38.201371 
C 312.99721 37.73131 312.810453 37.280439 312.47807 36.948057 
C 312.145687 36.615674 311.694816 36.428917 311.224756 36.428917 
C 310.754695 36.428917 310.303824 36.615674 309.971442 36.948057 
C 309.639059 37.280439 309.452302 37.73131 309.452302 38.201371 
C 309.452302 38.671431 309.639059 39.122302 309.971442 39.454685 
C 310.303824 39.787068 310.754695 39.973825 311.224756 39.973825 
z
" style="stroke:#000000;stroke-width:0.886227;"/>
    <path clip-path="url(#p7fe43a0870)" d="M 311.224756 39.973825 
C 311.694816 39.973825 312.145687 39.787068 312.47807 39.454685 
C 312.810453 39.122302 312.99721 38.671431 312.99721 38.201371 
C 312.99721 37.73131 312.810453 37.280439 312.47807 36.948057 
C 312.145687 36.615674 311.694816 36.428917 311.224756 36.428917 
C 310.754695 36.428917 310.303824 36.615674 309.971442 36.948057 
C 309.639059 37.280439 309.452302 37.73131 309.452302 38.201371 
C 309.452302 38.671431 309.639059 39.122302 309.971442 39.454685 
C 310.303824 39.787068 310.754695 39.973825 311.224756 39.973825 
z
" style="stroke:#000000;stroke-width:0.886227;"/>
    <path clip-path="url(#p7fe43a0870)" d="M 311.224756 39.973825 
C 311.694816 39.973825 312.145687 39.787068 312.47807 39.454685 
C 312.810453 39.122302 312.99721 38.671431 312.99721 38.201371 
C 312.99721 37.73131 312.810453 37.280439 312.47807 36.948057 
C 312.145687 36.615674 311.694816 36.428917 311.224756 36.428917 
C 310.754695 36.428917 310.303824 36.615674 309.971442 36.948057 
C 309.639059 37.280439 309.452302 37.73131 309.452302 38.201371 
C 309.452302 38.671431 309.639059 39.122302 309.971442 39.454685 
C 310.303824 39.787068 310.754695 39.973825 311.224756 39.973825 
z
" style="stroke:#000000;stroke-width:0.886227;"/>
    <path clip-path="url(#p7fe43a0870)" d="M 311.224756 40.175425 
C 311.694816 40.175425 312.145687 39.988668 312.47807 39.656285 
C 312.810453 39.323902 312.99721 38.873031 312.99721 38.402971 
C 312.99721 37.93291 312.810453 37.482039 312.47807 37.149657 
C 312.145687 36.817274 311.694816 36.630517 311.224756 36.630517 
C 310.754695 36.630517 310.303824 36.817274 309.971442 37.149657 
C 309.639059 37.482039 309.452302 37.93291 309.452302 38.402971 
C 309.452302 38.873031 309.639059 39.323902 309.971442 39.656285 
C 310.303824 39.988668 310.754695 40.175425 311.224756 40.175425 
z
" style="stroke:#000000;stroke-width:0.886227;"/>
    <path clip-path="url(#p7fe43a0870)" d="M 349.371665 39.973825 
C 349.841725 39.973825 350.292596 39.787068 350.624979 39.454685 
C 350.957362 39.122302 351.144119 38.671431 351.144119 38.201371 
C 351.144119 37.73131 350.957362 37.280439 350.624979 36.948057 
C 350.292596 36.615674 349.841725 36.428917 349.371665 36.428917 
C 348.901605 36.428917 348.450733 36.615674 348.118351 36.948057 
C 347.785968 37.280439 347.599211 37.73131 347.599211 38.201371 
C 347.599211 38.671431 347.785968 39.122302 348.118351 39.454685 
C 348.450733 39.787068 348.901605 39.973825 349.371665 39.973825 
z
" style="stroke:#000000;stroke-width:0.886227;"/>
    <path clip-path="url(#p7fe43a0870)" d="M 349.371665 39.973825 
C 349.841725 39.973825 350.292596 39.787068 350.624979 39.454685 
C 350.957362 39.122302 351.144119 38.671431 351.144119 38.201371 
C 351.144119 37.73131 350.957362 37.280439 350.624979 36.948057 
C 350.292596 36.615674 349.841725 36.428917 349.371665 36.428917 
C 348.901605 36.428917 348.450733 36.615674 348.118351 36.948057 
C 347.785968 37.280439 347.599211 37.73131 347.599211 38.201371 
C 347.599211 38.671431 347.785968 39.122302 348.118351 39.454685 
C 348.450733 39.787068 348.901605 39.973825 349.371665 39.973825 
z
" style="stroke:#000000;stroke-width:0.886227;"/>
    <path clip-path="url(#p7fe43a0870)" d="M 349.371665 39.973825 
C 349.841725 39.973825 350.292596 39.787068 350.624979 39.454685 
C 350.957362 39.122302 351.144119 38.671431 351.144119 38.201371 
C 351.144119 37.73131 350.957362 37.280439 350.624979 36.948057 
C 350.292596 36.615674 349.841725 36.428917 349.371665 36.428917 
C 348.901605 36.428917 348.450733 36.615674 348.118351 36.948057 
C 347.785968 37.280439 347.599211 37.73131 347.599211 38.201371 
C 347.599211 38.671431 347.785968 39.122302 348.118351 39.454685 
C 348.450733 39.787068 348.901605 39.973825 349.371665 39.973825 
z
" style="stroke:#000000;stroke-width:0.886227;"/>
    <path clip-path="url(#p7fe43a0870)" d="M 349.371665 40.175425 
C 349.841725 40.175425 350.292596 39.988668 350.624979 39.656285 
C 350.957362 39.323902 351.144119 38.873031 351.144119 38.402971 
C 351.144119 37.93291 350.957362 37.482039 350.624979 37.149657 
C 350.292596 36.817274 349.841725 36.630517 349.371665 36.630517 
C 348.901605 36.630517 348.450733 36.817274 348.118351 37.149657 
C 347.785968 37.482039 347.599211 37.93291 347.599211 38.402971 
C 347.599211 38.873031 347.785968 39.323902 348.118351 39.656285 
C 348.450733 39.988668 348.901605 40.175425 349.371665 40.175425 
z
" style="stroke:#000000;stroke-width:0.886227;"/>
    <path clip-path="url(#p7fe43a0870)" d="M 387.518574 39.973825 
C 387.988634 39.973825 388.439505 39.787068 388.771888 39.454685 
C 389.104271 39.122302 389.291028 38.671431 389.291028 38.201371 
C 389.291028 37.73131 389.104271 37.280439 388.771888 36.948057 
C 388.439505 36.615674 387.988634 36.428917 387.518574 36.428917 
C 387.048514 36.428917 386.597643 36.615674 386.26526 36.948057 
C 385.932877 37.280439 385.74612 37.73131 385.74612 38.201371 
C 385.74612 38.671431 385.932877 39.122302 386.26526 39.454685 
C 386.597643 39.787068 387.048514 39.973825 387.518574 39.973825 
z
" style="stroke:#000000;stroke-width:0.886227;"/>
    <path clip-path="url(#p7fe43a0870)" d="M 387.518574 39.973825 
C 387.988634 39.973825 388.439505 39.787068 388.771888 39.454685 
C 389.104271 39.122302 389.291028 38.671431 389.291028 38.201371 
C 389.291028 37.73131 389.104271 37.280439 388.771888 36.948057 
C 388.439505 36.615674 387.988634 36.428917 387.518574 36.428917 
C 387.048514 36.428917 386.597643 36.615674 386.26526 36.948057 
C 385.932877 37.280439 385.74612 37.73131 385.74612 38.201371 
C 385.74612 38.671431 385.932877 39.122302 386.26526 39.454685 
C 386.597643 39.787068 387.048514 39.973825 387.518574 39.973825 
z
" style="stroke:#000000;stroke-width:0.886227;"/>
    <path clip-path="url(#p7fe43a0870)" d="M 387.518574 39.973825 
C 387.988634 39.973825 388.439505 39.787068 388.771888 39.454685 
C 389.104271 39.122302 389.291028 38.671431 389.291028 38.201371 
C 389.291028 37.73131 389.104271 37.280439 388.771888 36.948057 
C 388.439505 36.615674 387.988634 36.428917 387.518574 36.428917 
C 387.048514 36.428917 386.597643 36.615674 386.26526 36.948057 
C 385.932877 37.280439 385.74612 37.73131 385.74612 38.201371 
C 385.74612 38.671431 385.932877 39.122302 386.26526 39.454685 
C 386.597643 39.787068 387.048514 39.973825 387.518574 39.973825 
z
" style="stroke:#000000;stroke-width:0.886227;"/>
    <path clip-path="url(#p7fe43a0870)" d="M 387.518574 39.973825 
C 387.988634 39.973825 388.439505 39.787068 388.771888 39.454685 
C 389.104271 39.122302 389.291028 38.671431 389.291028 38.201371 
C 389.291028 37.73131 389.104271 37.280439 388.771888 36.948057 
C 388.439505 36.615674 387.988634 36.428917 387.518574 36.428917 
C 387.048514 36.428917 386.597643 36.615674 386.26526 36.948057 
C 385.932877 37.280439 385.74612 37.73131 385.74612 38.201371 
C 385.74612 38.671431 385.932877 39.122302 386.26526 39.454685 
C 386.597643 39.787068 387.048514 39.973825 387.518574 39.973825 
z
" style="stroke:#000000;stroke-width:0.886227;"/>
   </g>
   <g id="LineCollection_1">
    <path clip-path="url(#p7fe43a0870)" d="M 83.019665 230.930971 
" style="fill:none;stroke:#db5f57;stroke-width:0.886227;"/>
    <path clip-path="url(#p7fe43a0870)" d="M 118.190574 209.45811 
L 121.166574 209.45811 
" style="fill:none;stroke:#db5f57;stroke-width:0.886227;"/>
    <path clip-path="url(#p7fe43a0870)" d="M 156.608028 76.627883 
L 159.584028 76.627883 
" style="fill:none;stroke:#db5f57;stroke-width:0.886227;"/>
    <path clip-path="url(#p7fe43a0870)" d="M 194.754938 43.758567 
L 197.730938 43.758567 
" style="fill:none;stroke:#db5f57;stroke-width:0.886227;"/>
    <path clip-path="url(#p7fe43a0870)" d="M 233.172392 38.201371 
L 236.148392 38.201371 
" style="fill:none;stroke:#db5f57;stroke-width:0.886227;"/>
    <path clip-path="url(#p7fe43a0870)" d="M 271.319301 38.201371 
L 274.295301 38.201371 
" style="fill:none;stroke:#db5f57;stroke-width:0.886227;"/>
    <path clip-path="url(#p7fe43a0870)" d="M 309.736756 38.201371 
L 312.712756 38.201371 
" style="fill:none;stroke:#db5f57;stroke-width:0.886227;"/>
    <path clip-path="url(#p7fe43a0870)" d="M 347.883665 38.201371 
L 350.859665 38.201371 
" style="fill:none;stroke:#db5f57;stroke-width:0.886227;"/>
    <path clip-path="url(#p7fe43a0870)" d="M 386.030574 38.201371 
L 389.006574 38.201371 
" style="fill:none;stroke:#db5f57;stroke-width:0.886227;"/>
    <path clip-path="url(#p7fe43a0870)" d="M 83.019665 223.673371 
" style="fill:none;stroke:#db5f57;stroke-width:0.886227;"/>
    <path clip-path="url(#p7fe43a0870)" d="M 118.190574 198.375031 
L 121.166574 198.375031 
" style="fill:none;stroke:#db5f57;stroke-width:0.886227;"/>
    <path clip-path="url(#p7fe43a0870)" d="M 156.608028 59.045258 
L 159.584028 59.045258 
" style="fill:none;stroke:#db5f57;stroke-width:0.886227;"/>
    <path clip-path="url(#p7fe43a0870)" d="M 194.754938 41.111374 
L 197.730938 41.111374 
" style="fill:none;stroke:#db5f57;stroke-width:0.886227;"/>
    <path clip-path="url(#p7fe43a0870)" d="M 233.172392 38.201371 
L 236.148392 38.201371 
" style="fill:none;stroke:#db5f57;stroke-width:0.886227;"/>
    <path clip-path="url(#p7fe43a0870)" d="M 271.319301 38.201371 
L 274.295301 38.201371 
" style="fill:none;stroke:#db5f57;stroke-width:0.886227;"/>
    <path clip-path="url(#p7fe43a0870)" d="M 309.736756 38.201371 
L 312.712756 38.201371 
" style="fill:none;stroke:#db5f57;stroke-width:0.886227;"/>
    <path clip-path="url(#p7fe43a0870)" d="M 347.883665 38.201371 
L 350.859665 38.201371 
" style="fill:none;stroke:#db5f57;stroke-width:0.886227;"/>
    <path clip-path="url(#p7fe43a0870)" d="M 386.030574 38.201371 
L 389.006574 38.201371 
" style="fill:none;stroke:#db5f57;stroke-width:0.886227;"/>
    <path clip-path="url(#p7fe43a0870)" d="M 81.531665 223.673371 
L 81.531665 230.930971 
" style="fill:none;stroke:#db5f57;stroke-width:0.886227;"/>
    <path clip-path="url(#p7fe43a0870)" d="M 119.678574 198.375031 
L 119.678574 209.45811 
" style="fill:none;stroke:#db5f57;stroke-width:0.886227;"/>
    <path clip-path="url(#p7fe43a0870)" d="M 158.096028 59.045258 
L 158.096028 76.627883 
" style="fill:none;stroke:#db5f57;stroke-width:0.886227;"/>
    <path clip-path="url(#p7fe43a0870)" d="M 196.242938 41.111374 
L 196.242938 43.758567 
" style="fill:none;stroke:#db5f57;stroke-width:0.886227;"/>
    <path clip-path="url(#p7fe43a0870)" d="M 234.660392 38.201371 
L 234.660392 38.201371 
" style="fill:none;stroke:#db5f57;stroke-width:0.886227;"/>
    <path clip-path="url(#p7fe43a0870)" d="M 272.807301 38.201371 
L 272.807301 38.201371 
" style="fill:none;stroke:#db5f57;stroke-width:0.886227;"/>
    <path clip-path="url(#p7fe43a0870)" d="M 311.224756 38.201371 
L 311.224756 38.201371 
" style="fill:none;stroke:#db5f57;stroke-width:0.886227;"/>
    <path clip-path="url(#p7fe43a0870)" d="M 349.371665 38.201371 
L 349.371665 38.201371 
" style="fill:none;stroke:#db5f57;stroke-width:0.886227;"/>
    <path clip-path="url(#p7fe43a0870)" d="M 387.518574 38.201371 
L 387.518574 38.201371 
" style="fill:none;stroke:#db5f57;stroke-width:0.886227;"/>
   </g>
   <g id="LineCollection_2">
    <path clip-path="url(#p7fe43a0870)" d="M 83.019665 222.290813 
" style="fill:none;stroke:#91db57;stroke-width:0.886227;"/>
    <path clip-path="url(#p7fe43a0870)" d="M 118.190574 214.51252 
L 121.166574 214.51252 
" style="fill:none;stroke:#91db57;stroke-width:0.886227;"/>
    <path clip-path="url(#p7fe43a0870)" d="M 156.608028 113.04713 
L 159.584028 113.04713 
" style="fill:none;stroke:#91db57;stroke-width:0.886227;"/>
    <path clip-path="url(#p7fe43a0870)" d="M 194.754938 47.628788 
L 197.730938 47.628788 
" style="fill:none;stroke:#91db57;stroke-width:0.886227;"/>
    <path clip-path="url(#p7fe43a0870)" d="M 233.172392 38.882072 
L 236.148392 38.882072 
" style="fill:none;stroke:#91db57;stroke-width:0.886227;"/>
    <path clip-path="url(#p7fe43a0870)" d="M 271.319301 38.201371 
L 274.295301 38.201371 
" style="fill:none;stroke:#91db57;stroke-width:0.886227;"/>
    <path clip-path="url(#p7fe43a0870)" d="M 309.736756 38.201371 
L 312.712756 38.201371 
" style="fill:none;stroke:#91db57;stroke-width:0.886227;"/>
    <path clip-path="url(#p7fe43a0870)" d="M 347.883665 38.201371 
L 350.859665 38.201371 
" style="fill:none;stroke:#91db57;stroke-width:0.886227;"/>
    <path clip-path="url(#p7fe43a0870)" d="M 386.030574 38.201371 
L 389.006574 38.201371 
" style="fill:none;stroke:#91db57;stroke-width:0.886227;"/>
    <path clip-path="url(#p7fe43a0870)" d="M 83.019665 212.959929 
" style="fill:none;stroke:#91db57;stroke-width:0.886227;"/>
    <path clip-path="url(#p7fe43a0870)" d="M 118.190574 204.610221 
L 121.166574 204.610221 
" style="fill:none;stroke:#91db57;stroke-width:0.886227;"/>
    <path clip-path="url(#p7fe43a0870)" d="M 156.608028 88.347611 
L 159.584028 88.347611 
" style="fill:none;stroke:#91db57;stroke-width:0.886227;"/>
    <path clip-path="url(#p7fe43a0870)" d="M 194.754938 43.692354 
L 197.730938 43.692354 
" style="fill:none;stroke:#91db57;stroke-width:0.886227;"/>
    <path clip-path="url(#p7fe43a0870)" d="M 233.172392 38.327069 
L 236.148392 38.327069 
" style="fill:none;stroke:#91db57;stroke-width:0.886227;"/>
    <path clip-path="url(#p7fe43a0870)" d="M 271.319301 38.201371 
L 274.295301 38.201371 
" style="fill:none;stroke:#91db57;stroke-width:0.886227;"/>
    <path clip-path="url(#p7fe43a0870)" d="M 309.736756 38.201371 
L 312.712756 38.201371 
" style="fill:none;stroke:#91db57;stroke-width:0.886227;"/>
    <path clip-path="url(#p7fe43a0870)" d="M 347.883665 38.201371 
L 350.859665 38.201371 
" style="fill:none;stroke:#91db57;stroke-width:0.886227;"/>
    <path clip-path="url(#p7fe43a0870)" d="M 386.030574 38.201371 
L 389.006574 38.201371 
" style="fill:none;stroke:#91db57;stroke-width:0.886227;"/>
    <path clip-path="url(#p7fe43a0870)" d="M 81.531665 212.959929 
L 81.531665 222.290813 
" style="fill:none;stroke:#91db57;stroke-width:0.886227;"/>
    <path clip-path="url(#p7fe43a0870)" d="M 119.678574 204.610221 
L 119.678574 214.51252 
" style="fill:none;stroke:#91db57;stroke-width:0.886227;"/>
    <path clip-path="url(#p7fe43a0870)" d="M 158.096028 88.347611 
L 158.096028 113.04713 
" style="fill:none;stroke:#91db57;stroke-width:0.886227;"/>
    <path clip-path="url(#p7fe43a0870)" d="M 196.242938 43.692354 
L 196.242938 47.628788 
" style="fill:none;stroke:#91db57;stroke-width:0.886227;"/>
    <path clip-path="url(#p7fe43a0870)" d="M 234.660392 38.327069 
L 234.660392 38.882072 
" style="fill:none;stroke:#91db57;stroke-width:0.886227;"/>
    <path clip-path="url(#p7fe43a0870)" d="M 272.807301 38.201371 
L 272.807301 38.201371 
" style="fill:none;stroke:#91db57;stroke-width:0.886227;"/>
    <path clip-path="url(#p7fe43a0870)" d="M 311.224756 38.201371 
L 311.224756 38.201371 
" style="fill:none;stroke:#91db57;stroke-width:0.886227;"/>
    <path clip-path="url(#p7fe43a0870)" d="M 349.371665 38.201371 
L 349.371665 38.201371 
" style="fill:none;stroke:#91db57;stroke-width:0.886227;"/>
    <path clip-path="url(#p7fe43a0870)" d="M 387.518574 38.201371 
L 387.518574 38.201371 
" style="fill:none;stroke:#91db57;stroke-width:0.886227;"/>
   </g>
   <g id="LineCollection_3">
    <path clip-path="url(#p7fe43a0870)" d="M 83.019665 225.187324 
" style="fill:none;stroke:#57d3db;stroke-width:0.886227;"/>
    <path clip-path="url(#p7fe43a0870)" d="M 118.190574 224.932556 
L 121.166574 224.932556 
" style="fill:none;stroke:#57d3db;stroke-width:0.886227;"/>
    <path clip-path="url(#p7fe43a0870)" d="M 156.608028 112.969562 
L 159.584028 112.969562 
" style="fill:none;stroke:#57d3db;stroke-width:0.886227;"/>
    <path clip-path="url(#p7fe43a0870)" d="M 194.754938 49.405008 
L 197.730938 49.405008 
" style="fill:none;stroke:#57d3db;stroke-width:0.886227;"/>
    <path clip-path="url(#p7fe43a0870)" d="M 233.172392 42.139287 
L 236.148392 42.139287 
" style="fill:none;stroke:#57d3db;stroke-width:0.886227;"/>
    <path clip-path="url(#p7fe43a0870)" d="M 271.319301 38.604571 
L 274.295301 38.604571 
" style="fill:none;stroke:#57d3db;stroke-width:0.886227;"/>
    <path clip-path="url(#p7fe43a0870)" d="M 309.736756 38.201371 
L 312.712756 38.201371 
" style="fill:none;stroke:#57d3db;stroke-width:0.886227;"/>
    <path clip-path="url(#p7fe43a0870)" d="M 347.883665 38.201371 
L 350.859665 38.201371 
" style="fill:none;stroke:#57d3db;stroke-width:0.886227;"/>
    <path clip-path="url(#p7fe43a0870)" d="M 386.030574 38.201371 
L 389.006574 38.201371 
" style="fill:none;stroke:#57d3db;stroke-width:0.886227;"/>
    <path clip-path="url(#p7fe43a0870)" d="M 83.019665 216.514618 
" style="fill:none;stroke:#57d3db;stroke-width:0.886227;"/>
    <path clip-path="url(#p7fe43a0870)" d="M 118.190574 219.188585 
L 121.166574 219.188585 
" style="fill:none;stroke:#57d3db;stroke-width:0.886227;"/>
    <path clip-path="url(#p7fe43a0870)" d="M 156.608028 86.812379 
L 159.584028 86.812379 
" style="fill:none;stroke:#57d3db;stroke-width:0.886227;"/>
    <path clip-path="url(#p7fe43a0870)" d="M 194.754938 42.722533 
L 197.730938 42.722533 
" style="fill:none;stroke:#57d3db;stroke-width:0.886227;"/>
    <path clip-path="url(#p7fe43a0870)" d="M 233.172392 39.505054 
L 236.148392 39.505054 
" style="fill:none;stroke:#57d3db;stroke-width:0.886227;"/>
    <path clip-path="url(#p7fe43a0870)" d="M 271.319301 38.201371 
L 274.295301 38.201371 
" style="fill:none;stroke:#57d3db;stroke-width:0.886227;"/>
    <path clip-path="url(#p7fe43a0870)" d="M 309.736756 38.201371 
L 312.712756 38.201371 
" style="fill:none;stroke:#57d3db;stroke-width:0.886227;"/>
    <path clip-path="url(#p7fe43a0870)" d="M 347.883665 38.201371 
L 350.859665 38.201371 
" style="fill:none;stroke:#57d3db;stroke-width:0.886227;"/>
    <path clip-path="url(#p7fe43a0870)" d="M 386.030574 38.201371 
L 389.006574 38.201371 
" style="fill:none;stroke:#57d3db;stroke-width:0.886227;"/>
    <path clip-path="url(#p7fe43a0870)" d="M 81.531665 216.514618 
L 81.531665 225.187324 
" style="fill:none;stroke:#57d3db;stroke-width:0.886227;"/>
    <path clip-path="url(#p7fe43a0870)" d="M 119.678574 219.188585 
L 119.678574 224.932556 
" style="fill:none;stroke:#57d3db;stroke-width:0.886227;"/>
    <path clip-path="url(#p7fe43a0870)" d="M 158.096028 86.812379 
L 158.096028 112.969562 
" style="fill:none;stroke:#57d3db;stroke-width:0.886227;"/>
    <path clip-path="url(#p7fe43a0870)" d="M 196.242938 42.722533 
L 196.242938 49.405008 
" style="fill:none;stroke:#57d3db;stroke-width:0.886227;"/>
    <path clip-path="url(#p7fe43a0870)" d="M 234.660392 39.505054 
L 234.660392 42.139287 
" style="fill:none;stroke:#57d3db;stroke-width:0.886227;"/>
    <path clip-path="url(#p7fe43a0870)" d="M 272.807301 38.201371 
L 272.807301 38.604571 
" style="fill:none;stroke:#57d3db;stroke-width:0.886227;"/>
    <path clip-path="url(#p7fe43a0870)" d="M 311.224756 38.201371 
L 311.224756 38.201371 
" style="fill:none;stroke:#57d3db;stroke-width:0.886227;"/>
    <path clip-path="url(#p7fe43a0870)" d="M 349.371665 38.201371 
L 349.371665 38.201371 
" style="fill:none;stroke:#57d3db;stroke-width:0.886227;"/>
    <path clip-path="url(#p7fe43a0870)" d="M 387.518574 38.201371 
L 387.518574 38.201371 
" style="fill:none;stroke:#57d3db;stroke-width:0.886227;"/>
   </g>
   <g id="LineCollection_4">
    <path clip-path="url(#p7fe43a0870)" d="M 83.019665 230.826643 
" style="fill:none;stroke:#a157db;stroke-width:0.886227;"/>
    <path clip-path="url(#p7fe43a0870)" d="M 118.190574 228.585868 
L 121.166574 228.585868 
" style="fill:none;stroke:#a157db;stroke-width:0.886227;"/>
    <path clip-path="url(#p7fe43a0870)" d="M 156.608028 205.89626 
L 159.584028 205.89626 
" style="fill:none;stroke:#a157db;stroke-width:0.886227;"/>
    <path clip-path="url(#p7fe43a0870)" d="M 194.754938 121.97793 
L 197.730938 121.97793 
" style="fill:none;stroke:#a157db;stroke-width:0.886227;"/>
    <path clip-path="url(#p7fe43a0870)" d="M 233.172392 53.759729 
L 236.148392 53.759729 
" style="fill:none;stroke:#a157db;stroke-width:0.886227;"/>
    <path clip-path="url(#p7fe43a0870)" d="M 271.319301 42.706668 
L 274.295301 42.706668 
" style="fill:none;stroke:#a157db;stroke-width:0.886227;"/>
    <path clip-path="url(#p7fe43a0870)" d="M 309.736756 38.604571 
L 312.712756 38.604571 
" style="fill:none;stroke:#a157db;stroke-width:0.886227;"/>
    <path clip-path="url(#p7fe43a0870)" d="M 347.883665 38.604571 
L 350.859665 38.604571 
" style="fill:none;stroke:#a157db;stroke-width:0.886227;"/>
    <path clip-path="url(#p7fe43a0870)" d="M 386.030574 38.201371 
L 389.006574 38.201371 
" style="fill:none;stroke:#a157db;stroke-width:0.886227;"/>
    <path clip-path="url(#p7fe43a0870)" d="M 83.019665 225.390499 
" style="fill:none;stroke:#a157db;stroke-width:0.886227;"/>
    <path clip-path="url(#p7fe43a0870)" d="M 118.190574 221.583274 
L 121.166574 221.583274 
" style="fill:none;stroke:#a157db;stroke-width:0.886227;"/>
    <path clip-path="url(#p7fe43a0870)" d="M 156.608028 189.437682 
L 159.584028 189.437682 
" style="fill:none;stroke:#a157db;stroke-width:0.886227;"/>
    <path clip-path="url(#p7fe43a0870)" d="M 194.754938 95.544811 
L 197.730938 95.544811 
" style="fill:none;stroke:#a157db;stroke-width:0.886227;"/>
    <path clip-path="url(#p7fe43a0870)" d="M 233.172392 44.415812 
L 236.148392 44.415812 
" style="fill:none;stroke:#a157db;stroke-width:0.886227;"/>
    <path clip-path="url(#p7fe43a0870)" d="M 271.319301 39.340873 
L 274.295301 39.340873 
" style="fill:none;stroke:#a157db;stroke-width:0.886227;"/>
    <path clip-path="url(#p7fe43a0870)" d="M 309.736756 38.201371 
L 312.712756 38.201371 
" style="fill:none;stroke:#a157db;stroke-width:0.886227;"/>
    <path clip-path="url(#p7fe43a0870)" d="M 347.883665 38.201371 
L 350.859665 38.201371 
" style="fill:none;stroke:#a157db;stroke-width:0.886227;"/>
    <path clip-path="url(#p7fe43a0870)" d="M 386.030574 38.201371 
L 389.006574 38.201371 
" style="fill:none;stroke:#a157db;stroke-width:0.886227;"/>
    <path clip-path="url(#p7fe43a0870)" d="M 81.531665 225.390499 
L 81.531665 230.826643 
" style="fill:none;stroke:#a157db;stroke-width:0.886227;"/>
    <path clip-path="url(#p7fe43a0870)" d="M 119.678574 221.583274 
L 119.678574 228.585868 
" style="fill:none;stroke:#a157db;stroke-width:0.886227;"/>
    <path clip-path="url(#p7fe43a0870)" d="M 158.096028 189.437682 
L 158.096028 205.89626 
" style="fill:none;stroke:#a157db;stroke-width:0.886227;"/>
    <path clip-path="url(#p7fe43a0870)" d="M 196.242938 95.544811 
L 196.242938 121.97793 
" style="fill:none;stroke:#a157db;stroke-width:0.886227;"/>
    <path clip-path="url(#p7fe43a0870)" d="M 234.660392 44.415812 
L 234.660392 53.759729 
" style="fill:none;stroke:#a157db;stroke-width:0.886227;"/>
    <path clip-path="url(#p7fe43a0870)" d="M 272.807301 39.340873 
L 272.807301 42.706668 
" style="fill:none;stroke:#a157db;stroke-width:0.886227;"/>
    <path clip-path="url(#p7fe43a0870)" d="M 311.224756 38.201371 
L 311.224756 38.604571 
" style="fill:none;stroke:#a157db;stroke-width:0.886227;"/>
    <path clip-path="url(#p7fe43a0870)" d="M 349.371665 38.201371 
L 349.371665 38.604571 
" style="fill:none;stroke:#a157db;stroke-width:0.886227;"/>
    <path clip-path="url(#p7fe43a0870)" d="M 387.518574 38.201371 
L 387.518574 38.201371 
" style="fill:none;stroke:#a157db;stroke-width:0.886227;"/>
   </g>
   <g id="patch_3">
    <path d="M 429.618938 211.836339 
L 555.772375 211.836339 
L 555.772375 103.030402 
L 429.618938 103.030402 
z
" style="fill:#ffffff;"/>
   </g>
   <g id="text_13">
    <!-- Std value selected -->
    <g transform="translate(441.818938 126.623996)scale(0.11 -0.11)">
     <defs>
      <path d="M 53.515625 70.515625 
L 53.515625 60.890625 
Q 47.90625 63.578125 42.921875 64.890625 
Q 37.9375 66.21875 33.296875 66.21875 
Q 25.25 66.21875 20.875 63.09375 
Q 16.5 59.96875 16.5 54.203125 
Q 16.5 49.359375 19.40625 46.890625 
Q 22.3125 44.4375 30.421875 42.921875 
L 36.375 41.703125 
Q 47.40625 39.59375 52.65625 34.296875 
Q 57.90625 29 57.90625 20.125 
Q 57.90625 9.515625 50.796875 4.046875 
Q 43.703125 -1.421875 29.984375 -1.421875 
Q 24.8125 -1.421875 18.96875 -0.25 
Q 13.140625 0.921875 6.890625 3.21875 
L 6.890625 13.375 
Q 12.890625 10.015625 18.65625 8.296875 
Q 24.421875 6.59375 29.984375 6.59375 
Q 38.421875 6.59375 43.015625 9.90625 
Q 47.609375 13.234375 47.609375 19.390625 
Q 47.609375 24.75 44.3125 27.78125 
Q 41.015625 30.8125 33.5 32.328125 
L 27.484375 33.5 
Q 16.453125 35.6875 11.515625 40.375 
Q 6.59375 45.0625 6.59375 53.421875 
Q 6.59375 63.09375 13.40625 68.65625 
Q 20.21875 74.21875 32.171875 74.21875 
Q 37.3125 74.21875 42.625 73.28125 
Q 47.953125 72.359375 53.515625 70.515625 
z
" id="DejaVuSans-83"/>
      <path d="M 2.984375 54.6875 
L 12.5 54.6875 
L 29.59375 8.796875 
L 46.6875 54.6875 
L 56.203125 54.6875 
L 35.6875 0 
L 23.484375 0 
z
" id="DejaVuSans-118"/>
     </defs>
     <use xlink:href="#DejaVuSans-83"/>
     <use x="63.476562" xlink:href="#DejaVuSans-116"/>
     <use x="102.685547" xlink:href="#DejaVuSans-100"/>
     <use x="166.162109" xlink:href="#DejaVuSans-32"/>
     <use x="197.949219" xlink:href="#DejaVuSans-118"/>
     <use x="257.128906" xlink:href="#DejaVuSans-97"/>
     <use x="318.408203" xlink:href="#DejaVuSans-108"/>
     <use x="346.191406" xlink:href="#DejaVuSans-117"/>
     <use x="409.570312" xlink:href="#DejaVuSans-101"/>
     <use x="471.09375" xlink:href="#DejaVuSans-32"/>
     <use x="502.880859" xlink:href="#DejaVuSans-115"/>
     <use x="554.980469" xlink:href="#DejaVuSans-101"/>
     <use x="616.503906" xlink:href="#DejaVuSans-108"/>
     <use x="644.287109" xlink:href="#DejaVuSans-101"/>
     <use x="705.810547" xlink:href="#DejaVuSans-99"/>
     <use x="760.791016" xlink:href="#DejaVuSans-116"/>
     <use x="800" xlink:href="#DejaVuSans-101"/>
     <use x="861.523438" xlink:href="#DejaVuSans-100"/>
    </g>
   </g>
   <g id="patch_4">
    <path clip-path="url(#pf2c07b8e2d)" d="M 441.818938 146.116339 
L 457.658937 146.116339 
L 457.658937 130.276339 
L 441.818938 130.276339 
z
" style="fill:#f2f2f2;"/>
   </g>
   <g id="line2d_33">
    <path clip-path="url(#pf2c07b8e2d)" d="M 441.818938 138.196339 
L 457.658937 138.196339 
" style="fill:none;stroke:#db5f57;stroke-width:0.886227;"/>
   </g>
   <g id="line2d_34">
    <path clip-path="url(#pf2c07b8e2d)" d="M 441.818938 138.196339 
L 457.658937 138.196339 
" style="fill:none;stroke:#db5f57;stroke-width:0.886227;"/>
   </g>
   <g id="text_14">
    <!-- std =0.01 -->
    <g transform="translate(460.658937 140.624589)scale(0.088 -0.088)">
     <defs>
      <path d="M 10.59375 45.40625 
L 73.1875 45.40625 
L 73.1875 37.203125 
L 10.59375 37.203125 
z
M 10.59375 25.484375 
L 73.1875 25.484375 
L 73.1875 17.1875 
L 10.59375 17.1875 
z
" id="DejaVuSans-61"/>
     </defs>
     <use xlink:href="#DejaVuSans-115"/>
     <use x="52.099609" xlink:href="#DejaVuSans-116"/>
     <use x="91.308594" xlink:href="#DejaVuSans-100"/>
     <use x="154.785156" xlink:href="#DejaVuSans-32"/>
     <use x="186.572266" xlink:href="#DejaVuSans-61"/>
     <use x="270.361328" xlink:href="#DejaVuSans-48"/>
     <use x="333.984375" xlink:href="#DejaVuSans-46"/>
     <use x="365.771484" xlink:href="#DejaVuSans-48"/>
     <use x="429.394531" xlink:href="#DejaVuSans-49"/>
    </g>
   </g>
   <g id="patch_5">
    <path clip-path="url(#pc6819ab5dc)" d="M 441.818938 163.956339 
L 457.658937 163.956339 
L 457.658937 148.116339 
L 441.818938 148.116339 
z
" style="fill:#f2f2f2;"/>
   </g>
   <g id="line2d_35">
    <path clip-path="url(#pc6819ab5dc)" d="M 441.818938 156.036339 
L 457.658937 156.036339 
" style="fill:none;stroke:#91db57;stroke-width:0.886227;"/>
   </g>
   <g id="line2d_36">
    <path clip-path="url(#pc6819ab5dc)" d="M 441.818938 156.036339 
L 457.658937 156.036339 
" style="fill:none;stroke:#91db57;stroke-width:0.886227;"/>
   </g>
   <g id="text_15">
    <!-- std =0.5 -->
    <g transform="translate(460.658937 158.464589)scale(0.088 -0.088)">
     <use xlink:href="#DejaVuSans-115"/>
     <use x="52.099609" xlink:href="#DejaVuSans-116"/>
     <use x="91.308594" xlink:href="#DejaVuSans-100"/>
     <use x="154.785156" xlink:href="#DejaVuSans-32"/>
     <use x="186.572266" xlink:href="#DejaVuSans-61"/>
     <use x="270.361328" xlink:href="#DejaVuSans-48"/>
     <use x="333.984375" xlink:href="#DejaVuSans-46"/>
     <use x="365.771484" xlink:href="#DejaVuSans-53"/>
    </g>
   </g>
   <g id="patch_6">
    <path clip-path="url(#pe3120e5510)" d="M 441.818938 181.796339 
L 457.658937 181.796339 
L 457.658937 165.956339 
L 441.818938 165.956339 
z
" style="fill:#f2f2f2;"/>
   </g>
   <g id="line2d_37">
    <path clip-path="url(#pe3120e5510)" d="M 441.818938 173.876339 
L 457.658937 173.876339 
" style="fill:none;stroke:#57d3db;stroke-width:0.886227;"/>
   </g>
   <g id="line2d_38">
    <path clip-path="url(#pe3120e5510)" d="M 441.818938 173.876339 
L 457.658937 173.876339 
" style="fill:none;stroke:#57d3db;stroke-width:0.886227;"/>
   </g>
   <g id="text_16">
    <!-- std =1.0 -->
    <g transform="translate(460.658937 176.304589)scale(0.088 -0.088)">
     <use xlink:href="#DejaVuSans-115"/>
     <use x="52.099609" xlink:href="#DejaVuSans-116"/>
     <use x="91.308594" xlink:href="#DejaVuSans-100"/>
     <use x="154.785156" xlink:href="#DejaVuSans-32"/>
     <use x="186.572266" xlink:href="#DejaVuSans-61"/>
     <use x="270.361328" xlink:href="#DejaVuSans-49"/>
     <use x="333.984375" xlink:href="#DejaVuSans-46"/>
     <use x="365.771484" xlink:href="#DejaVuSans-48"/>
    </g>
   </g>
   <g id="patch_7">
    <path clip-path="url(#pf651f66005)" d="M 441.818938 199.636339 
L 457.658937 199.636339 
L 457.658937 183.796339 
L 441.818938 183.796339 
z
" style="fill:#f2f2f2;"/>
   </g>
   <g id="line2d_39">
    <path clip-path="url(#pf651f66005)" d="M 441.818938 191.716339 
L 457.658937 191.716339 
" style="fill:none;stroke:#a157db;stroke-width:0.886227;"/>
   </g>
   <g id="line2d_40">
    <path clip-path="url(#pf651f66005)" d="M 441.818938 191.716339 
L 457.658937 191.716339 
" style="fill:none;stroke:#a157db;stroke-width:0.886227;"/>
   </g>
   <g id="text_17">
    <!-- std =2.0 -->
    <g transform="translate(460.658937 194.144589)scale(0.088 -0.088)">
     <use xlink:href="#DejaVuSans-115"/>
     <use x="52.099609" xlink:href="#DejaVuSans-116"/>
     <use x="91.308594" xlink:href="#DejaVuSans-100"/>
     <use x="154.785156" xlink:href="#DejaVuSans-32"/>
     <use x="186.572266" xlink:href="#DejaVuSans-61"/>
     <use x="270.361328" xlink:href="#DejaVuSans-50"/>
     <use x="333.984375" xlink:href="#DejaVuSans-46"/>
     <use x="365.771484" xlink:href="#DejaVuSans-48"/>
    </g>
   </g>
  </g>
  <g id="text_18">
   <!-- Accuracy plot for multiple Euclidean Distance and different std values -->
   <g transform="translate(7.2 17.229938)scale(0.132 -0.132)">
    <defs>
     <path d="M 18.109375 8.203125 
L 18.109375 -20.796875 
L 9.078125 -20.796875 
L 9.078125 54.6875 
L 18.109375 54.6875 
L 18.109375 46.390625 
Q 20.953125 51.265625 25.265625 53.625 
Q 29.59375 56 35.59375 56 
Q 45.5625 56 51.78125 48.09375 
Q 58.015625 40.1875 58.015625 27.296875 
Q 58.015625 14.40625 51.78125 6.484375 
Q 45.5625 -1.421875 35.59375 -1.421875 
Q 29.59375 -1.421875 25.265625 0.953125 
Q 20.953125 3.328125 18.109375 8.203125 
z
M 48.6875 27.296875 
Q 48.6875 37.203125 44.609375 42.84375 
Q 40.53125 48.484375 33.40625 48.484375 
Q 26.265625 48.484375 22.1875 42.84375 
Q 18.109375 37.203125 18.109375 27.296875 
Q 18.109375 17.390625 22.1875 11.75 
Q 26.265625 6.109375 33.40625 6.109375 
Q 40.53125 6.109375 44.609375 11.75 
Q 48.6875 17.390625 48.6875 27.296875 
z
" id="DejaVuSans-112"/>
     <path d="M 30.609375 48.390625 
Q 23.390625 48.390625 19.1875 42.75 
Q 14.984375 37.109375 14.984375 27.296875 
Q 14.984375 17.484375 19.15625 11.84375 
Q 23.34375 6.203125 30.609375 6.203125 
Q 37.796875 6.203125 41.984375 11.859375 
Q 46.1875 17.53125 46.1875 27.296875 
Q 46.1875 37.015625 41.984375 42.703125 
Q 37.796875 48.390625 30.609375 48.390625 
z
M 30.609375 56 
Q 42.328125 56 49.015625 48.375 
Q 55.71875 40.765625 55.71875 27.296875 
Q 55.71875 13.875 49.015625 6.21875 
Q 42.328125 -1.421875 30.609375 -1.421875 
Q 18.84375 -1.421875 12.171875 6.21875 
Q 5.515625 13.875 5.515625 27.296875 
Q 5.515625 40.765625 12.171875 48.375 
Q 18.84375 56 30.609375 56 
z
" id="DejaVuSans-111"/>
     <path d="M 37.109375 75.984375 
L 37.109375 68.5 
L 28.515625 68.5 
Q 23.6875 68.5 21.796875 66.546875 
Q 19.921875 64.59375 19.921875 59.515625 
L 19.921875 54.6875 
L 34.71875 54.6875 
L 34.71875 47.703125 
L 19.921875 47.703125 
L 19.921875 0 
L 10.890625 0 
L 10.890625 47.703125 
L 2.296875 47.703125 
L 2.296875 54.6875 
L 10.890625 54.6875 
L 10.890625 58.5 
Q 10.890625 67.625 15.140625 71.796875 
Q 19.390625 75.984375 28.609375 75.984375 
z
" id="DejaVuSans-102"/>
     <path d="M 52 44.1875 
Q 55.375 50.25 60.0625 53.125 
Q 64.75 56 71.09375 56 
Q 79.640625 56 84.28125 50.015625 
Q 88.921875 44.046875 88.921875 33.015625 
L 88.921875 0 
L 79.890625 0 
L 79.890625 32.71875 
Q 79.890625 40.578125 77.09375 44.375 
Q 74.3125 48.1875 68.609375 48.1875 
Q 61.625 48.1875 57.5625 43.546875 
Q 53.515625 38.921875 53.515625 30.90625 
L 53.515625 0 
L 44.484375 0 
L 44.484375 32.71875 
Q 44.484375 40.625 41.703125 44.40625 
Q 38.921875 48.1875 33.109375 48.1875 
Q 26.21875 48.1875 22.15625 43.53125 
Q 18.109375 38.875 18.109375 30.90625 
L 18.109375 0 
L 9.078125 0 
L 9.078125 54.6875 
L 18.109375 54.6875 
L 18.109375 46.1875 
Q 21.1875 51.21875 25.484375 53.609375 
Q 29.78125 56 35.6875 56 
Q 41.65625 56 45.828125 52.96875 
Q 50 49.953125 52 44.1875 
z
" id="DejaVuSans-109"/>
    </defs>
    <use xlink:href="#DejaVuSans-65"/>
    <use x="66.658203" xlink:href="#DejaVuSans-99"/>
    <use x="121.638672" xlink:href="#DejaVuSans-99"/>
    <use x="176.619141" xlink:href="#DejaVuSans-117"/>
    <use x="239.998047" xlink:href="#DejaVuSans-114"/>
    <use x="281.111328" xlink:href="#DejaVuSans-97"/>
    <use x="342.390625" xlink:href="#DejaVuSans-99"/>
    <use x="397.371094" xlink:href="#DejaVuSans-121"/>
    <use x="456.550781" xlink:href="#DejaVuSans-32"/>
    <use x="488.337891" xlink:href="#DejaVuSans-112"/>
    <use x="551.814453" xlink:href="#DejaVuSans-108"/>
    <use x="579.597656" xlink:href="#DejaVuSans-111"/>
    <use x="640.779297" xlink:href="#DejaVuSans-116"/>
    <use x="679.988281" xlink:href="#DejaVuSans-32"/>
    <use x="711.775391" xlink:href="#DejaVuSans-102"/>
    <use x="746.980469" xlink:href="#DejaVuSans-111"/>
    <use x="808.162109" xlink:href="#DejaVuSans-114"/>
    <use x="849.275391" xlink:href="#DejaVuSans-32"/>
    <use x="881.0625" xlink:href="#DejaVuSans-109"/>
    <use x="978.474609" xlink:href="#DejaVuSans-117"/>
    <use x="1041.853516" xlink:href="#DejaVuSans-108"/>
    <use x="1069.636719" xlink:href="#DejaVuSans-116"/>
    <use x="1108.845703" xlink:href="#DejaVuSans-105"/>
    <use x="1136.628906" xlink:href="#DejaVuSans-112"/>
    <use x="1200.105469" xlink:href="#DejaVuSans-108"/>
    <use x="1227.888672" xlink:href="#DejaVuSans-101"/>
    <use x="1289.412109" xlink:href="#DejaVuSans-32"/>
    <use x="1321.199219" xlink:href="#DejaVuSans-69"/>
    <use x="1384.382812" xlink:href="#DejaVuSans-117"/>
    <use x="1447.761719" xlink:href="#DejaVuSans-99"/>
    <use x="1502.742188" xlink:href="#DejaVuSans-108"/>
    <use x="1530.525391" xlink:href="#DejaVuSans-105"/>
    <use x="1558.308594" xlink:href="#DejaVuSans-100"/>
    <use x="1621.785156" xlink:href="#DejaVuSans-101"/>
    <use x="1683.308594" xlink:href="#DejaVuSans-97"/>
    <use x="1744.587891" xlink:href="#DejaVuSans-110"/>
    <use x="1807.966797" xlink:href="#DejaVuSans-32"/>
    <use x="1839.753906" xlink:href="#DejaVuSans-68"/>
    <use x="1916.755859" xlink:href="#DejaVuSans-105"/>
    <use x="1944.539062" xlink:href="#DejaVuSans-115"/>
    <use x="1996.638672" xlink:href="#DejaVuSans-116"/>
    <use x="2035.847656" xlink:href="#DejaVuSans-97"/>
    <use x="2097.126953" xlink:href="#DejaVuSans-110"/>
    <use x="2160.505859" xlink:href="#DejaVuSans-99"/>
    <use x="2215.486328" xlink:href="#DejaVuSans-101"/>
    <use x="2277.009766" xlink:href="#DejaVuSans-32"/>
    <use x="2308.796875" xlink:href="#DejaVuSans-97"/>
    <use x="2370.076172" xlink:href="#DejaVuSans-110"/>
    <use x="2433.455078" xlink:href="#DejaVuSans-100"/>
    <use x="2496.931641" xlink:href="#DejaVuSans-32"/>
    <use x="2528.71875" xlink:href="#DejaVuSans-100"/>
    <use x="2592.195312" xlink:href="#DejaVuSans-105"/>
    <use x="2619.978516" xlink:href="#DejaVuSans-102"/>
    <use x="2655.183594" xlink:href="#DejaVuSans-102"/>
    <use x="2690.388672" xlink:href="#DejaVuSans-101"/>
    <use x="2751.912109" xlink:href="#DejaVuSans-114"/>
    <use x="2790.775391" xlink:href="#DejaVuSans-101"/>
    <use x="2852.298828" xlink:href="#DejaVuSans-110"/>
    <use x="2915.677734" xlink:href="#DejaVuSans-116"/>
    <use x="2954.886719" xlink:href="#DejaVuSans-32"/>
    <use x="2986.673828" xlink:href="#DejaVuSans-115"/>
    <use x="3038.773438" xlink:href="#DejaVuSans-116"/>
    <use x="3077.982422" xlink:href="#DejaVuSans-100"/>
    <use x="3141.458984" xlink:href="#DejaVuSans-32"/>
    <use x="3173.246094" xlink:href="#DejaVuSans-118"/>
    <use x="3232.425781" xlink:href="#DejaVuSans-97"/>
    <use x="3293.705078" xlink:href="#DejaVuSans-108"/>
    <use x="3321.488281" xlink:href="#DejaVuSans-117"/>
    <use x="3384.867188" xlink:href="#DejaVuSans-101"/>
    <use x="3446.390625" xlink:href="#DejaVuSans-115"/>
   </g>
  </g>
 </g>
 <defs>
  <clipPath id="p7fe43a0870">
   <rect height="266.112" width="357.12" x="65.298938" y="26.105371"/>
  </clipPath>
  <clipPath id="pf2c07b8e2d">
   <path d="M 441.818938 146.116339 
L 441.818938 130.276339 
L 457.658937 130.276339 
L 457.658937 146.116339 
"/>
  </clipPath>
  <clipPath id="pc6819ab5dc">
   <path d="M 441.818938 163.956339 
L 441.818938 148.116339 
L 457.658937 148.116339 
L 457.658937 163.956339 
"/>
  </clipPath>
  <clipPath id="pe3120e5510">
   <path d="M 441.818938 181.796339 
L 441.818938 165.956339 
L 457.658937 165.956339 
L 457.658937 181.796339 
"/>
  </clipPath>
  <clipPath id="pf651f66005">
   <path d="M 441.818938 199.636339 
L 441.818938 183.796339 
L 457.658937 183.796339 
L 457.658937 199.636339 
"/>
  </clipPath>
 </defs>
</svg>
