<?xml version="1.0" encoding="utf-8" standalone="no"?>
<!DOCTYPE svg PUBLIC "-//W3C//DTD SVG 1.1//EN"
  "http://www.w3.org/Graphics/SVG/1.1/DTD/svg11.dtd">
<!-- Created with matplotlib (https://matplotlib.org/) -->
<svg height="327.930058pt" version="1.1" viewBox="0 0 562.972375 327.930058" width="562.972375pt" xmlns="http://www.w3.org/2000/svg" xmlns:xlink="http://www.w3.org/1999/xlink">
 <metadata>
  <rdf:RDF xmlns:cc="http://creativecommons.org/ns#" xmlns:dc="http://purl.org/dc/elements/1.1/" xmlns:rdf="http://www.w3.org/1999/02/22-rdf-syntax-ns#">
   <cc:Work>
    <dc:type rdf:resource="http://purl.org/dc/dcmitype/StillImage"/>
    <dc:date>2022-01-16T19:52:04.088448</dc:date>
    <dc:format>image/svg+xml</dc:format>
    <dc:creator>
     <cc:Agent>
      <dc:title>Matplotlib v3.3.4, https://matplotlib.org/</dc:title>
     </cc:Agent>
    </dc:creator>
   </cc:Work>
  </rdf:RDF>
 </metadata>
 <defs>
  <style type="text/css">*{stroke-linecap:butt;stroke-linejoin:round;}</style>
 </defs>
 <g id="figure_1">
  <g id="patch_1">
   <path d="M 0 327.930058 
L 562.972375 327.930058 
L 562.972375 0 
L 0 0 
z
" style="fill:#ffffff;stroke:#ffffff;stroke-linejoin:miter;"/>
  </g>
  <g id="axes_1">
   <g id="patch_2">
    <path d="M 65.298938 292.217371 
L 422.418938 292.217371 
L 422.418938 26.105371 
L 65.298938 26.105371 
z
" style="fill:#ebebeb;"/>
   </g>
   <g id="matplotlib.axis_1">
    <g id="xtick_1">
     <g id="line2d_1">
      <path clip-path="url(#p5204bdba6d)" d="M 81.531665 292.217371 
L 81.531665 26.105371 
" style="fill:none;stroke:#ffffff;"/>
     </g>
     <g id="line2d_2">
      <path d="M 81.531665 292.217371 
" style="fill:none;stroke:#333333;stroke-width:1.5;"/>
      <defs>
       <path d="M 0 0 
L 0 2.75 
" id="m4facc040ad" style="stroke:#000000;"/>
      </defs>
      <g>
       <use style="fill:#333333;stroke:#000000;" x="81.531665" xlink:href="#m4facc040ad" y="292.217371"/>
      </g>
     </g>
     <g id="text_1">
      <!-- 0 -->
      <g style="fill:#4d4d4d;" transform="translate(78.732165 303.853996)scale(0.088 -0.088)">
       <defs>
        <path d="M 31.78125 66.40625 
Q 24.171875 66.40625 20.328125 58.90625 
Q 16.5 51.421875 16.5 36.375 
Q 16.5 21.390625 20.328125 13.890625 
Q 24.171875 6.390625 31.78125 6.390625 
Q 39.453125 6.390625 43.28125 13.890625 
Q 47.125 21.390625 47.125 36.375 
Q 47.125 51.421875 43.28125 58.90625 
Q 39.453125 66.40625 31.78125 66.40625 
z
M 31.78125 74.21875 
Q 44.046875 74.21875 50.515625 64.515625 
Q 56.984375 54.828125 56.984375 36.375 
Q 56.984375 17.96875 50.515625 8.265625 
Q 44.046875 -1.421875 31.78125 -1.421875 
Q 19.53125 -1.421875 13.0625 8.265625 
Q 6.59375 17.96875 6.59375 36.375 
Q 6.59375 54.828125 13.0625 64.515625 
Q 19.53125 74.21875 31.78125 74.21875 
z
" id="DejaVuSans-48"/>
       </defs>
       <use xlink:href="#DejaVuSans-48"/>
      </g>
     </g>
    </g>
    <g id="xtick_2">
     <g id="line2d_3">
      <path clip-path="url(#p5204bdba6d)" d="M 149.168028 292.217371 
L 149.168028 26.105371 
" style="fill:none;stroke:#ffffff;"/>
     </g>
     <g id="line2d_4">
      <path d="M 149.168028 292.217371 
" style="fill:none;stroke:#333333;stroke-width:1.5;"/>
      <g>
       <use style="fill:#333333;stroke:#000000;" x="149.168028" xlink:href="#m4facc040ad" y="292.217371"/>
      </g>
     </g>
     <g id="text_2">
      <!-- 0.25 -->
      <g style="fill:#4d4d4d;" transform="translate(139.371153 303.853996)scale(0.088 -0.088)">
       <defs>
        <path d="M 10.6875 12.40625 
L 21 12.40625 
L 21 0 
L 10.6875 0 
z
" id="DejaVuSans-46"/>
        <path d="M 19.1875 8.296875 
L 53.609375 8.296875 
L 53.609375 0 
L 7.328125 0 
L 7.328125 8.296875 
Q 12.9375 14.109375 22.625 23.890625 
Q 32.328125 33.6875 34.8125 36.53125 
Q 39.546875 41.84375 41.421875 45.53125 
Q 43.3125 49.21875 43.3125 52.78125 
Q 43.3125 58.59375 39.234375 62.25 
Q 35.15625 65.921875 28.609375 65.921875 
Q 23.96875 65.921875 18.8125 64.3125 
Q 13.671875 62.703125 7.8125 59.421875 
L 7.8125 69.390625 
Q 13.765625 71.78125 18.9375 73 
Q 24.125 74.21875 28.421875 74.21875 
Q 39.75 74.21875 46.484375 68.546875 
Q 53.21875 62.890625 53.21875 53.421875 
Q 53.21875 48.921875 51.53125 44.890625 
Q 49.859375 40.875 45.40625 35.40625 
Q 44.1875 33.984375 37.640625 27.21875 
Q 31.109375 20.453125 19.1875 8.296875 
z
" id="DejaVuSans-50"/>
        <path d="M 10.796875 72.90625 
L 49.515625 72.90625 
L 49.515625 64.59375 
L 19.828125 64.59375 
L 19.828125 46.734375 
Q 21.96875 47.46875 24.109375 47.828125 
Q 26.265625 48.1875 28.421875 48.1875 
Q 40.625 48.1875 47.75 41.5 
Q 54.890625 34.8125 54.890625 23.390625 
Q 54.890625 11.625 47.5625 5.09375 
Q 40.234375 -1.421875 26.90625 -1.421875 
Q 22.3125 -1.421875 17.546875 -0.640625 
Q 12.796875 0.140625 7.71875 1.703125 
L 7.71875 11.625 
Q 12.109375 9.234375 16.796875 8.0625 
Q 21.484375 6.890625 26.703125 6.890625 
Q 35.15625 6.890625 40.078125 11.328125 
Q 45.015625 15.765625 45.015625 23.390625 
Q 45.015625 31 40.078125 35.4375 
Q 35.15625 39.890625 26.703125 39.890625 
Q 22.75 39.890625 18.8125 39.015625 
Q 14.890625 38.140625 10.796875 36.28125 
z
" id="DejaVuSans-53"/>
       </defs>
       <use xlink:href="#DejaVuSans-48"/>
       <use x="63.623047" xlink:href="#DejaVuSans-46"/>
       <use x="95.410156" xlink:href="#DejaVuSans-50"/>
       <use x="159.033203" xlink:href="#DejaVuSans-53"/>
      </g>
     </g>
    </g>
    <g id="xtick_3">
     <g id="line2d_5">
      <path clip-path="url(#p5204bdba6d)" d="M 216.804392 292.217371 
L 216.804392 26.105371 
" style="fill:none;stroke:#ffffff;"/>
     </g>
     <g id="line2d_6">
      <path d="M 216.804392 292.217371 
" style="fill:none;stroke:#333333;stroke-width:1.5;"/>
      <g>
       <use style="fill:#333333;stroke:#000000;" x="216.804392" xlink:href="#m4facc040ad" y="292.217371"/>
      </g>
     </g>
     <g id="text_3">
      <!-- 0.50 -->
      <g style="fill:#4d4d4d;" transform="translate(207.007517 303.853996)scale(0.088 -0.088)">
       <use xlink:href="#DejaVuSans-48"/>
       <use x="63.623047" xlink:href="#DejaVuSans-46"/>
       <use x="95.410156" xlink:href="#DejaVuSans-53"/>
       <use x="159.033203" xlink:href="#DejaVuSans-48"/>
      </g>
     </g>
    </g>
    <g id="xtick_4">
     <g id="line2d_7">
      <path clip-path="url(#p5204bdba6d)" d="M 284.440756 292.217371 
L 284.440756 26.105371 
" style="fill:none;stroke:#ffffff;"/>
     </g>
     <g id="line2d_8">
      <path d="M 284.440756 292.217371 
" style="fill:none;stroke:#333333;stroke-width:1.5;"/>
      <g>
       <use style="fill:#333333;stroke:#000000;" x="284.440756" xlink:href="#m4facc040ad" y="292.217371"/>
      </g>
     </g>
     <g id="text_4">
      <!-- 0.75 -->
      <g style="fill:#4d4d4d;" transform="translate(274.643881 303.853996)scale(0.088 -0.088)">
       <defs>
        <path d="M 8.203125 72.90625 
L 55.078125 72.90625 
L 55.078125 68.703125 
L 28.609375 0 
L 18.3125 0 
L 43.21875 64.59375 
L 8.203125 64.59375 
z
" id="DejaVuSans-55"/>
       </defs>
       <use xlink:href="#DejaVuSans-48"/>
       <use x="63.623047" xlink:href="#DejaVuSans-46"/>
       <use x="95.410156" xlink:href="#DejaVuSans-55"/>
       <use x="159.033203" xlink:href="#DejaVuSans-53"/>
      </g>
     </g>
    </g>
    <g id="xtick_5">
     <g id="line2d_9">
      <path clip-path="url(#p5204bdba6d)" d="M 352.077119 292.217371 
L 352.077119 26.105371 
" style="fill:none;stroke:#ffffff;"/>
     </g>
     <g id="line2d_10">
      <path d="M 352.077119 292.217371 
" style="fill:none;stroke:#333333;stroke-width:1.5;"/>
      <g>
       <use style="fill:#333333;stroke:#000000;" x="352.077119" xlink:href="#m4facc040ad" y="292.217371"/>
      </g>
     </g>
     <g id="text_5">
      <!-- 1 -->
      <g style="fill:#4d4d4d;" transform="translate(349.277619 303.853996)scale(0.088 -0.088)">
       <defs>
        <path d="M 12.40625 8.296875 
L 28.515625 8.296875 
L 28.515625 63.921875 
L 10.984375 60.40625 
L 10.984375 69.390625 
L 28.421875 72.90625 
L 38.28125 72.90625 
L 38.28125 8.296875 
L 54.390625 8.296875 
L 54.390625 0 
L 12.40625 0 
z
" id="DejaVuSans-49"/>
       </defs>
       <use xlink:href="#DejaVuSans-49"/>
      </g>
     </g>
    </g>
    <g id="xtick_6">
     <g id="line2d_11">
      <path clip-path="url(#p5204bdba6d)" d="M 419.713483 292.217371 
L 419.713483 26.105371 
" style="fill:none;stroke:#ffffff;"/>
     </g>
     <g id="line2d_12">
      <path d="M 419.713483 292.217371 
" style="fill:none;stroke:#333333;stroke-width:1.5;"/>
      <g>
       <use style="fill:#333333;stroke:#000000;" x="419.713483" xlink:href="#m4facc040ad" y="292.217371"/>
      </g>
     </g>
     <g id="text_6">
      <!-- 1.25 -->
      <g style="fill:#4d4d4d;" transform="translate(409.916608 303.853996)scale(0.088 -0.088)">
       <use xlink:href="#DejaVuSans-49"/>
       <use x="63.623047" xlink:href="#DejaVuSans-46"/>
       <use x="95.410156" xlink:href="#DejaVuSans-50"/>
       <use x="159.033203" xlink:href="#DejaVuSans-53"/>
      </g>
     </g>
    </g>
    <g id="xtick_7">
     <g id="line2d_13">
      <path clip-path="url(#p5204bdba6d)" d="M 115.349847 292.217371 
L 115.349847 26.105371 
" style="fill:none;stroke:#ffffff;stroke-width:0.5;"/>
     </g>
    </g>
    <g id="xtick_8">
     <g id="line2d_14">
      <path clip-path="url(#p5204bdba6d)" d="M 182.98621 292.217371 
L 182.98621 26.105371 
" style="fill:none;stroke:#ffffff;stroke-width:0.5;"/>
     </g>
    </g>
    <g id="xtick_9">
     <g id="line2d_15">
      <path clip-path="url(#p5204bdba6d)" d="M 250.622574 292.217371 
L 250.622574 26.105371 
" style="fill:none;stroke:#ffffff;stroke-width:0.5;"/>
     </g>
    </g>
    <g id="xtick_10">
     <g id="line2d_16">
      <path clip-path="url(#p5204bdba6d)" d="M 318.258938 292.217371 
L 318.258938 26.105371 
" style="fill:none;stroke:#ffffff;stroke-width:0.5;"/>
     </g>
    </g>
    <g id="xtick_11">
     <g id="line2d_17">
      <path clip-path="url(#p5204bdba6d)" d="M 385.895301 292.217371 
L 385.895301 26.105371 
" style="fill:none;stroke:#ffffff;stroke-width:0.5;"/>
     </g>
    </g>
    <g id="text_7">
     <!-- Euclidean Distance -->
     <g transform="translate(185.52925 318.442402)scale(0.11 -0.11)">
      <defs>
       <path d="M 9.8125 72.90625 
L 55.90625 72.90625 
L 55.90625 64.59375 
L 19.671875 64.59375 
L 19.671875 43.015625 
L 54.390625 43.015625 
L 54.390625 34.71875 
L 19.671875 34.71875 
L 19.671875 8.296875 
L 56.78125 8.296875 
L 56.78125 0 
L 9.8125 0 
z
" id="DejaVuSans-69"/>
       <path d="M 8.5 21.578125 
L 8.5 54.6875 
L 17.484375 54.6875 
L 17.484375 21.921875 
Q 17.484375 14.15625 20.5 10.265625 
Q 23.53125 6.390625 29.59375 6.390625 
Q 36.859375 6.390625 41.078125 11.03125 
Q 45.3125 15.671875 45.3125 23.6875 
L 45.3125 54.6875 
L 54.296875 54.6875 
L 54.296875 0 
L 45.3125 0 
L 45.3125 8.40625 
Q 42.046875 3.421875 37.71875 1 
Q 33.40625 -1.421875 27.6875 -1.421875 
Q 18.265625 -1.421875 13.375 4.4375 
Q 8.5 10.296875 8.5 21.578125 
z
M 31.109375 56 
z
" id="DejaVuSans-117"/>
       <path d="M 48.78125 52.59375 
L 48.78125 44.1875 
Q 44.96875 46.296875 41.140625 47.34375 
Q 37.3125 48.390625 33.40625 48.390625 
Q 24.65625 48.390625 19.8125 42.84375 
Q 14.984375 37.3125 14.984375 27.296875 
Q 14.984375 17.28125 19.8125 11.734375 
Q 24.65625 6.203125 33.40625 6.203125 
Q 37.3125 6.203125 41.140625 7.25 
Q 44.96875 8.296875 48.78125 10.40625 
L 48.78125 2.09375 
Q 45.015625 0.34375 40.984375 -0.53125 
Q 36.96875 -1.421875 32.421875 -1.421875 
Q 20.0625 -1.421875 12.78125 6.34375 
Q 5.515625 14.109375 5.515625 27.296875 
Q 5.515625 40.671875 12.859375 48.328125 
Q 20.21875 56 33.015625 56 
Q 37.15625 56 41.109375 55.140625 
Q 45.0625 54.296875 48.78125 52.59375 
z
" id="DejaVuSans-99"/>
       <path d="M 9.421875 75.984375 
L 18.40625 75.984375 
L 18.40625 0 
L 9.421875 0 
z
" id="DejaVuSans-108"/>
       <path d="M 9.421875 54.6875 
L 18.40625 54.6875 
L 18.40625 0 
L 9.421875 0 
z
M 9.421875 75.984375 
L 18.40625 75.984375 
L 18.40625 64.59375 
L 9.421875 64.59375 
z
" id="DejaVuSans-105"/>
       <path d="M 45.40625 46.390625 
L 45.40625 75.984375 
L 54.390625 75.984375 
L 54.390625 0 
L 45.40625 0 
L 45.40625 8.203125 
Q 42.578125 3.328125 38.25 0.953125 
Q 33.9375 -1.421875 27.875 -1.421875 
Q 17.96875 -1.421875 11.734375 6.484375 
Q 5.515625 14.40625 5.515625 27.296875 
Q 5.515625 40.1875 11.734375 48.09375 
Q 17.96875 56 27.875 56 
Q 33.9375 56 38.25 53.625 
Q 42.578125 51.265625 45.40625 46.390625 
z
M 14.796875 27.296875 
Q 14.796875 17.390625 18.875 11.75 
Q 22.953125 6.109375 30.078125 6.109375 
Q 37.203125 6.109375 41.296875 11.75 
Q 45.40625 17.390625 45.40625 27.296875 
Q 45.40625 37.203125 41.296875 42.84375 
Q 37.203125 48.484375 30.078125 48.484375 
Q 22.953125 48.484375 18.875 42.84375 
Q 14.796875 37.203125 14.796875 27.296875 
z
" id="DejaVuSans-100"/>
       <path d="M 56.203125 29.59375 
L 56.203125 25.203125 
L 14.890625 25.203125 
Q 15.484375 15.921875 20.484375 11.0625 
Q 25.484375 6.203125 34.421875 6.203125 
Q 39.59375 6.203125 44.453125 7.46875 
Q 49.3125 8.734375 54.109375 11.28125 
L 54.109375 2.78125 
Q 49.265625 0.734375 44.1875 -0.34375 
Q 39.109375 -1.421875 33.890625 -1.421875 
Q 20.796875 -1.421875 13.15625 6.1875 
Q 5.515625 13.8125 5.515625 26.8125 
Q 5.515625 40.234375 12.765625 48.109375 
Q 20.015625 56 32.328125 56 
Q 43.359375 56 49.78125 48.890625 
Q 56.203125 41.796875 56.203125 29.59375 
z
M 47.21875 32.234375 
Q 47.125 39.59375 43.09375 43.984375 
Q 39.0625 48.390625 32.421875 48.390625 
Q 24.90625 48.390625 20.390625 44.140625 
Q 15.875 39.890625 15.1875 32.171875 
z
" id="DejaVuSans-101"/>
       <path d="M 34.28125 27.484375 
Q 23.390625 27.484375 19.1875 25 
Q 14.984375 22.515625 14.984375 16.5 
Q 14.984375 11.71875 18.140625 8.90625 
Q 21.296875 6.109375 26.703125 6.109375 
Q 34.1875 6.109375 38.703125 11.40625 
Q 43.21875 16.703125 43.21875 25.484375 
L 43.21875 27.484375 
z
M 52.203125 31.203125 
L 52.203125 0 
L 43.21875 0 
L 43.21875 8.296875 
Q 40.140625 3.328125 35.546875 0.953125 
Q 30.953125 -1.421875 24.3125 -1.421875 
Q 15.921875 -1.421875 10.953125 3.296875 
Q 6 8.015625 6 15.921875 
Q 6 25.140625 12.171875 29.828125 
Q 18.359375 34.515625 30.609375 34.515625 
L 43.21875 34.515625 
L 43.21875 35.40625 
Q 43.21875 41.609375 39.140625 45 
Q 35.0625 48.390625 27.6875 48.390625 
Q 23 48.390625 18.546875 47.265625 
Q 14.109375 46.140625 10.015625 43.890625 
L 10.015625 52.203125 
Q 14.9375 54.109375 19.578125 55.046875 
Q 24.21875 56 28.609375 56 
Q 40.484375 56 46.34375 49.84375 
Q 52.203125 43.703125 52.203125 31.203125 
z
" id="DejaVuSans-97"/>
       <path d="M 54.890625 33.015625 
L 54.890625 0 
L 45.90625 0 
L 45.90625 32.71875 
Q 45.90625 40.484375 42.875 44.328125 
Q 39.84375 48.1875 33.796875 48.1875 
Q 26.515625 48.1875 22.3125 43.546875 
Q 18.109375 38.921875 18.109375 30.90625 
L 18.109375 0 
L 9.078125 0 
L 9.078125 54.6875 
L 18.109375 54.6875 
L 18.109375 46.1875 
Q 21.34375 51.125 25.703125 53.5625 
Q 30.078125 56 35.796875 56 
Q 45.21875 56 50.046875 50.171875 
Q 54.890625 44.34375 54.890625 33.015625 
z
" id="DejaVuSans-110"/>
       <path id="DejaVuSans-32"/>
       <path d="M 19.671875 64.796875 
L 19.671875 8.109375 
L 31.59375 8.109375 
Q 46.6875 8.109375 53.6875 14.9375 
Q 60.6875 21.78125 60.6875 36.53125 
Q 60.6875 51.171875 53.6875 57.984375 
Q 46.6875 64.796875 31.59375 64.796875 
z
M 9.8125 72.90625 
L 30.078125 72.90625 
Q 51.265625 72.90625 61.171875 64.09375 
Q 71.09375 55.28125 71.09375 36.53125 
Q 71.09375 17.671875 61.125 8.828125 
Q 51.171875 0 30.078125 0 
L 9.8125 0 
z
" id="DejaVuSans-68"/>
       <path d="M 44.28125 53.078125 
L 44.28125 44.578125 
Q 40.484375 46.53125 36.375 47.5 
Q 32.28125 48.484375 27.875 48.484375 
Q 21.1875 48.484375 17.84375 46.4375 
Q 14.5 44.390625 14.5 40.28125 
Q 14.5 37.15625 16.890625 35.375 
Q 19.28125 33.59375 26.515625 31.984375 
L 29.59375 31.296875 
Q 39.15625 29.25 43.1875 25.515625 
Q 47.21875 21.78125 47.21875 15.09375 
Q 47.21875 7.46875 41.1875 3.015625 
Q 35.15625 -1.421875 24.609375 -1.421875 
Q 20.21875 -1.421875 15.453125 -0.5625 
Q 10.6875 0.296875 5.421875 2 
L 5.421875 11.28125 
Q 10.40625 8.6875 15.234375 7.390625 
Q 20.0625 6.109375 24.8125 6.109375 
Q 31.15625 6.109375 34.5625 8.28125 
Q 37.984375 10.453125 37.984375 14.40625 
Q 37.984375 18.0625 35.515625 20.015625 
Q 33.0625 21.96875 24.703125 23.78125 
L 21.578125 24.515625 
Q 13.234375 26.265625 9.515625 29.90625 
Q 5.8125 33.546875 5.8125 39.890625 
Q 5.8125 47.609375 11.28125 51.796875 
Q 16.75 56 26.8125 56 
Q 31.78125 56 36.171875 55.265625 
Q 40.578125 54.546875 44.28125 53.078125 
z
" id="DejaVuSans-115"/>
       <path d="M 18.3125 70.21875 
L 18.3125 54.6875 
L 36.8125 54.6875 
L 36.8125 47.703125 
L 18.3125 47.703125 
L 18.3125 18.015625 
Q 18.3125 11.328125 20.140625 9.421875 
Q 21.96875 7.515625 27.59375 7.515625 
L 36.8125 7.515625 
L 36.8125 0 
L 27.59375 0 
Q 17.1875 0 13.234375 3.875 
Q 9.28125 7.765625 9.28125 18.015625 
L 9.28125 47.703125 
L 2.6875 47.703125 
L 2.6875 54.6875 
L 9.28125 54.6875 
L 9.28125 70.21875 
z
" id="DejaVuSans-116"/>
      </defs>
      <use xlink:href="#DejaVuSans-69"/>
      <use x="63.183594" xlink:href="#DejaVuSans-117"/>
      <use x="126.5625" xlink:href="#DejaVuSans-99"/>
      <use x="181.542969" xlink:href="#DejaVuSans-108"/>
      <use x="209.326172" xlink:href="#DejaVuSans-105"/>
      <use x="237.109375" xlink:href="#DejaVuSans-100"/>
      <use x="300.585938" xlink:href="#DejaVuSans-101"/>
      <use x="362.109375" xlink:href="#DejaVuSans-97"/>
      <use x="423.388672" xlink:href="#DejaVuSans-110"/>
      <use x="486.767578" xlink:href="#DejaVuSans-32"/>
      <use x="518.554688" xlink:href="#DejaVuSans-68"/>
      <use x="595.556641" xlink:href="#DejaVuSans-105"/>
      <use x="623.339844" xlink:href="#DejaVuSans-115"/>
      <use x="675.439453" xlink:href="#DejaVuSans-116"/>
      <use x="714.648438" xlink:href="#DejaVuSans-97"/>
      <use x="775.927734" xlink:href="#DejaVuSans-110"/>
      <use x="839.306641" xlink:href="#DejaVuSans-99"/>
      <use x="894.287109" xlink:href="#DejaVuSans-101"/>
     </g>
    </g>
   </g>
   <g id="matplotlib.axis_2">
    <g id="ytick_1">
     <g id="line2d_18">
      <path clip-path="url(#p5204bdba6d)" d="M 65.298938 280.121371 
L 422.418938 280.121371 
" style="fill:none;stroke:#ffffff;"/>
     </g>
     <g id="line2d_19">
      <path d="M 65.298938 280.121371 
" style="fill:none;stroke:#333333;stroke-width:1.5;"/>
      <defs>
       <path d="M 0 0 
L -2.75 0 
" id="mcc711c1a8a" style="stroke:#000000;"/>
      </defs>
      <g>
       <use style="fill:#333333;stroke:#000000;" x="65.298938" xlink:href="#mcc711c1a8a" y="280.121371"/>
      </g>
     </g>
     <g id="text_8">
      <!-- 0.4 -->
      <g style="fill:#4d4d4d;" transform="translate(46.354188 282.549621)scale(0.088 -0.088)">
       <defs>
        <path d="M 37.796875 64.3125 
L 12.890625 25.390625 
L 37.796875 25.390625 
z
M 35.203125 72.90625 
L 47.609375 72.90625 
L 47.609375 25.390625 
L 58.015625 25.390625 
L 58.015625 17.1875 
L 47.609375 17.1875 
L 47.609375 0 
L 37.796875 0 
L 37.796875 17.1875 
L 4.890625 17.1875 
L 4.890625 26.703125 
z
" id="DejaVuSans-52"/>
       </defs>
       <use xlink:href="#DejaVuSans-48"/>
       <use x="63.623047" xlink:href="#DejaVuSans-46"/>
       <use x="95.410156" xlink:href="#DejaVuSans-52"/>
      </g>
     </g>
    </g>
    <g id="ytick_2">
     <g id="line2d_20">
      <path clip-path="url(#p5204bdba6d)" d="M 65.298938 199.481371 
L 422.418938 199.481371 
" style="fill:none;stroke:#ffffff;"/>
     </g>
     <g id="line2d_21">
      <path d="M 65.298938 199.481371 
" style="fill:none;stroke:#333333;stroke-width:1.5;"/>
      <g>
       <use style="fill:#333333;stroke:#000000;" x="65.298938" xlink:href="#mcc711c1a8a" y="199.481371"/>
      </g>
     </g>
     <g id="text_9">
      <!-- 0.6 -->
      <g style="fill:#4d4d4d;" transform="translate(46.354188 201.909621)scale(0.088 -0.088)">
       <defs>
        <path d="M 33.015625 40.375 
Q 26.375 40.375 22.484375 35.828125 
Q 18.609375 31.296875 18.609375 23.390625 
Q 18.609375 15.53125 22.484375 10.953125 
Q 26.375 6.390625 33.015625 6.390625 
Q 39.65625 6.390625 43.53125 10.953125 
Q 47.40625 15.53125 47.40625 23.390625 
Q 47.40625 31.296875 43.53125 35.828125 
Q 39.65625 40.375 33.015625 40.375 
z
M 52.59375 71.296875 
L 52.59375 62.3125 
Q 48.875 64.0625 45.09375 64.984375 
Q 41.3125 65.921875 37.59375 65.921875 
Q 27.828125 65.921875 22.671875 59.328125 
Q 17.53125 52.734375 16.796875 39.40625 
Q 19.671875 43.65625 24.015625 45.921875 
Q 28.375 48.1875 33.59375 48.1875 
Q 44.578125 48.1875 50.953125 41.515625 
Q 57.328125 34.859375 57.328125 23.390625 
Q 57.328125 12.15625 50.6875 5.359375 
Q 44.046875 -1.421875 33.015625 -1.421875 
Q 20.359375 -1.421875 13.671875 8.265625 
Q 6.984375 17.96875 6.984375 36.375 
Q 6.984375 53.65625 15.1875 63.9375 
Q 23.390625 74.21875 37.203125 74.21875 
Q 40.921875 74.21875 44.703125 73.484375 
Q 48.484375 72.75 52.59375 71.296875 
z
" id="DejaVuSans-54"/>
       </defs>
       <use xlink:href="#DejaVuSans-48"/>
       <use x="63.623047" xlink:href="#DejaVuSans-46"/>
       <use x="95.410156" xlink:href="#DejaVuSans-54"/>
      </g>
     </g>
    </g>
    <g id="ytick_3">
     <g id="line2d_22">
      <path clip-path="url(#p5204bdba6d)" d="M 65.298938 118.841371 
L 422.418938 118.841371 
" style="fill:none;stroke:#ffffff;"/>
     </g>
     <g id="line2d_23">
      <path d="M 65.298938 118.841371 
" style="fill:none;stroke:#333333;stroke-width:1.5;"/>
      <g>
       <use style="fill:#333333;stroke:#000000;" x="65.298938" xlink:href="#mcc711c1a8a" y="118.841371"/>
      </g>
     </g>
     <g id="text_10">
      <!-- 0.8 -->
      <g style="fill:#4d4d4d;" transform="translate(46.354188 121.269621)scale(0.088 -0.088)">
       <defs>
        <path d="M 31.78125 34.625 
Q 24.75 34.625 20.71875 30.859375 
Q 16.703125 27.09375 16.703125 20.515625 
Q 16.703125 13.921875 20.71875 10.15625 
Q 24.75 6.390625 31.78125 6.390625 
Q 38.8125 6.390625 42.859375 10.171875 
Q 46.921875 13.96875 46.921875 20.515625 
Q 46.921875 27.09375 42.890625 30.859375 
Q 38.875 34.625 31.78125 34.625 
z
M 21.921875 38.8125 
Q 15.578125 40.375 12.03125 44.71875 
Q 8.5 49.078125 8.5 55.328125 
Q 8.5 64.0625 14.71875 69.140625 
Q 20.953125 74.21875 31.78125 74.21875 
Q 42.671875 74.21875 48.875 69.140625 
Q 55.078125 64.0625 55.078125 55.328125 
Q 55.078125 49.078125 51.53125 44.71875 
Q 48 40.375 41.703125 38.8125 
Q 48.828125 37.15625 52.796875 32.3125 
Q 56.78125 27.484375 56.78125 20.515625 
Q 56.78125 9.90625 50.3125 4.234375 
Q 43.84375 -1.421875 31.78125 -1.421875 
Q 19.734375 -1.421875 13.25 4.234375 
Q 6.78125 9.90625 6.78125 20.515625 
Q 6.78125 27.484375 10.78125 32.3125 
Q 14.796875 37.15625 21.921875 38.8125 
z
M 18.3125 54.390625 
Q 18.3125 48.734375 21.84375 45.5625 
Q 25.390625 42.390625 31.78125 42.390625 
Q 38.140625 42.390625 41.71875 45.5625 
Q 45.3125 48.734375 45.3125 54.390625 
Q 45.3125 60.0625 41.71875 63.234375 
Q 38.140625 66.40625 31.78125 66.40625 
Q 25.390625 66.40625 21.84375 63.234375 
Q 18.3125 60.0625 18.3125 54.390625 
z
" id="DejaVuSans-56"/>
       </defs>
       <use xlink:href="#DejaVuSans-48"/>
       <use x="63.623047" xlink:href="#DejaVuSans-46"/>
       <use x="95.410156" xlink:href="#DejaVuSans-56"/>
      </g>
     </g>
    </g>
    <g id="ytick_4">
     <g id="line2d_24">
      <path clip-path="url(#p5204bdba6d)" d="M 65.298938 38.201371 
L 422.418938 38.201371 
" style="fill:none;stroke:#ffffff;"/>
     </g>
     <g id="line2d_25">
      <path d="M 65.298938 38.201371 
" style="fill:none;stroke:#333333;stroke-width:1.5;"/>
      <g>
       <use style="fill:#333333;stroke:#000000;" x="65.298938" xlink:href="#mcc711c1a8a" y="38.201371"/>
      </g>
     </g>
     <g id="text_11">
      <!-- 1 -->
      <g style="fill:#4d4d4d;" transform="translate(54.749938 40.629621)scale(0.088 -0.088)">
       <use xlink:href="#DejaVuSans-49"/>
      </g>
     </g>
    </g>
    <g id="ytick_5">
     <g id="line2d_26">
      <path clip-path="url(#p5204bdba6d)" d="M 65.298938 239.801371 
L 422.418938 239.801371 
" style="fill:none;stroke:#ffffff;stroke-width:0.5;"/>
     </g>
    </g>
    <g id="ytick_6">
     <g id="line2d_27">
      <path clip-path="url(#p5204bdba6d)" d="M 65.298938 159.161371 
L 422.418938 159.161371 
" style="fill:none;stroke:#ffffff;stroke-width:0.5;"/>
     </g>
    </g>
    <g id="ytick_7">
     <g id="line2d_28">
      <path clip-path="url(#p5204bdba6d)" d="M 65.298938 78.521371 
L 422.418938 78.521371 
" style="fill:none;stroke:#ffffff;stroke-width:0.5;"/>
     </g>
    </g>
    <g id="text_12">
     <!-- Accuracy -->
     <g transform="translate(39.666531 182.544308)rotate(-90)scale(0.11 -0.11)">
      <defs>
       <path d="M 34.1875 63.1875 
L 20.796875 26.90625 
L 47.609375 26.90625 
z
M 28.609375 72.90625 
L 39.796875 72.90625 
L 67.578125 0 
L 57.328125 0 
L 50.6875 18.703125 
L 17.828125 18.703125 
L 11.1875 0 
L 0.78125 0 
z
" id="DejaVuSans-65"/>
       <path d="M 41.109375 46.296875 
Q 39.59375 47.171875 37.8125 47.578125 
Q 36.03125 48 33.890625 48 
Q 26.265625 48 22.1875 43.046875 
Q 18.109375 38.09375 18.109375 28.8125 
L 18.109375 0 
L 9.078125 0 
L 9.078125 54.6875 
L 18.109375 54.6875 
L 18.109375 46.1875 
Q 20.953125 51.171875 25.484375 53.578125 
Q 30.03125 56 36.53125 56 
Q 37.453125 56 38.578125 55.875 
Q 39.703125 55.765625 41.0625 55.515625 
z
" id="DejaVuSans-114"/>
       <path d="M 32.171875 -5.078125 
Q 28.375 -14.84375 24.75 -17.8125 
Q 21.140625 -20.796875 15.09375 -20.796875 
L 7.90625 -20.796875 
L 7.90625 -13.28125 
L 13.1875 -13.28125 
Q 16.890625 -13.28125 18.9375 -11.515625 
Q 21 -9.765625 23.484375 -3.21875 
L 25.09375 0.875 
L 2.984375 54.6875 
L 12.5 54.6875 
L 29.59375 11.921875 
L 46.6875 54.6875 
L 56.203125 54.6875 
z
" id="DejaVuSans-121"/>
      </defs>
      <use xlink:href="#DejaVuSans-65"/>
      <use x="66.658203" xlink:href="#DejaVuSans-99"/>
      <use x="121.638672" xlink:href="#DejaVuSans-99"/>
      <use x="176.619141" xlink:href="#DejaVuSans-117"/>
      <use x="239.998047" xlink:href="#DejaVuSans-114"/>
      <use x="281.111328" xlink:href="#DejaVuSans-97"/>
      <use x="342.390625" xlink:href="#DejaVuSans-99"/>
      <use x="397.371094" xlink:href="#DejaVuSans-121"/>
     </g>
    </g>
   </g>
   <g id="line2d_29">
    <path clip-path="url(#p5204bdba6d)" d="M 81.531665 224.479771 
L 119.678574 198.473371 
L 158.096028 76.908571 
L 196.242938 41.628571 
L 234.660392 39.209371 
L 272.807301 38.201371 
L 311.224756 38.201371 
L 349.371665 38.201371 
L 387.518574 38.201371 
" style="fill:none;stroke:#db5f57;stroke-width:0.886227;"/>
   </g>
   <g id="line2d_30">
    <path clip-path="url(#p5204bdba6d)" d="M 81.531665 216.415771 
L 119.678574 208.754971 
L 158.096028 84.770971 
L 196.242938 42.031771 
L 234.660392 40.418971 
L 272.807301 38.201371 
L 311.224756 38.201371 
L 349.371665 38.201371 
L 387.518574 38.201371 
" style="fill:none;stroke:#91db57;stroke-width:0.886227;"/>
   </g>
   <g id="line2d_31">
    <path clip-path="url(#p5204bdba6d)" d="M 81.531665 223.270171 
L 119.678574 216.415771 
L 158.096028 180.329371 
L 196.242938 54.934171 
L 234.660392 45.458971 
L 272.807301 39.410971 
L 311.224756 38.806171 
L 349.371665 38.402971 
L 387.518574 38.201371 
" style="fill:none;stroke:#57d3db;stroke-width:0.886227;"/>
   </g>
   <g id="line2d_32">
    <path clip-path="url(#p5204bdba6d)" d="M 81.531665 218.028571 
L 119.678574 223.673371 
L 158.096028 209.158171 
L 196.242938 141.823771 
L 234.660392 90.012571 
L 272.807301 52.514971 
L 311.224756 42.031771 
L 349.371665 42.434971 
L 387.518574 39.007771 
" style="fill:none;stroke:#a157db;stroke-width:0.886227;"/>
   </g>
   <g id="PathCollection_1">
    <path clip-path="url(#p5204bdba6d)" d="M 81.531665 226.252225 
C 82.001725 226.252225 82.452596 226.065468 82.784979 225.733085 
C 83.117362 225.400702 83.304119 224.949831 83.304119 224.479771 
C 83.304119 224.00971 83.117362 223.558839 82.784979 223.226457 
C 82.452596 222.894074 82.001725 222.707317 81.531665 222.707317 
C 81.061605 222.707317 80.610733 222.894074 80.278351 223.226457 
C 79.945968 223.558839 79.759211 224.00971 79.759211 224.479771 
C 79.759211 224.949831 79.945968 225.400702 80.278351 225.733085 
C 80.610733 226.065468 81.061605 226.252225 81.531665 226.252225 
z
" style="stroke:#000000;stroke-width:0.886227;"/>
    <path clip-path="url(#p5204bdba6d)" d="M 81.531665 218.188225 
C 82.001725 218.188225 82.452596 218.001468 82.784979 217.669085 
C 83.117362 217.336702 83.304119 216.885831 83.304119 216.415771 
C 83.304119 215.94571 83.117362 215.494839 82.784979 215.162457 
C 82.452596 214.830074 82.001725 214.643317 81.531665 214.643317 
C 81.061605 214.643317 80.610733 214.830074 80.278351 215.162457 
C 79.945968 215.494839 79.759211 215.94571 79.759211 216.415771 
C 79.759211 216.885831 79.945968 217.336702 80.278351 217.669085 
C 80.610733 218.001468 81.061605 218.188225 81.531665 218.188225 
z
" style="stroke:#000000;stroke-width:0.886227;"/>
    <path clip-path="url(#p5204bdba6d)" d="M 81.531665 225.042625 
C 82.001725 225.042625 82.452596 224.855868 82.784979 224.523485 
C 83.117362 224.191102 83.304119 223.740231 83.304119 223.270171 
C 83.304119 222.80011 83.117362 222.349239 82.784979 222.016857 
C 82.452596 221.684474 82.001725 221.497717 81.531665 221.497717 
C 81.061605 221.497717 80.610733 221.684474 80.278351 222.016857 
C 79.945968 222.349239 79.759211 222.80011 79.759211 223.270171 
C 79.759211 223.740231 79.945968 224.191102 80.278351 224.523485 
C 80.610733 224.855868 81.061605 225.042625 81.531665 225.042625 
z
" style="stroke:#000000;stroke-width:0.886227;"/>
    <path clip-path="url(#p5204bdba6d)" d="M 81.531665 219.801025 
C 82.001725 219.801025 82.452596 219.614268 82.784979 219.281885 
C 83.117362 218.949502 83.304119 218.498631 83.304119 218.028571 
C 83.304119 217.55851 83.117362 217.107639 82.784979 216.775257 
C 82.452596 216.442874 82.001725 216.256117 81.531665 216.256117 
C 81.061605 216.256117 80.610733 216.442874 80.278351 216.775257 
C 79.945968 217.107639 79.759211 217.55851 79.759211 218.028571 
C 79.759211 218.498631 79.945968 218.949502 80.278351 219.281885 
C 80.610733 219.614268 81.061605 219.801025 81.531665 219.801025 
z
" style="stroke:#000000;stroke-width:0.886227;"/>
    <path clip-path="url(#p5204bdba6d)" d="M 119.678574 200.245825 
C 120.148634 200.245825 120.599505 200.059068 120.931888 199.726685 
C 121.264271 199.394302 121.451028 198.943431 121.451028 198.473371 
C 121.451028 198.00331 121.264271 197.552439 120.931888 197.220057 
C 120.599505 196.887674 120.148634 196.700917 119.678574 196.700917 
C 119.208514 196.700917 118.757643 196.887674 118.42526 197.220057 
C 118.092877 197.552439 117.90612 198.00331 117.90612 198.473371 
C 117.90612 198.943431 118.092877 199.394302 118.42526 199.726685 
C 118.757643 200.059068 119.208514 200.245825 119.678574 200.245825 
z
" style="stroke:#000000;stroke-width:0.886227;"/>
    <path clip-path="url(#p5204bdba6d)" d="M 119.678574 210.527425 
C 120.148634 210.527425 120.599505 210.340668 120.931888 210.008285 
C 121.264271 209.675902 121.451028 209.225031 121.451028 208.754971 
C 121.451028 208.28491 121.264271 207.834039 120.931888 207.501657 
C 120.599505 207.169274 120.148634 206.982517 119.678574 206.982517 
C 119.208514 206.982517 118.757643 207.169274 118.42526 207.501657 
C 118.092877 207.834039 117.90612 208.28491 117.90612 208.754971 
C 117.90612 209.225031 118.092877 209.675902 118.42526 210.008285 
C 118.757643 210.340668 119.208514 210.527425 119.678574 210.527425 
z
" style="stroke:#000000;stroke-width:0.886227;"/>
    <path clip-path="url(#p5204bdba6d)" d="M 119.678574 218.188225 
C 120.148634 218.188225 120.599505 218.001468 120.931888 217.669085 
C 121.264271 217.336702 121.451028 216.885831 121.451028 216.415771 
C 121.451028 215.94571 121.264271 215.494839 120.931888 215.162457 
C 120.599505 214.830074 120.148634 214.643317 119.678574 214.643317 
C 119.208514 214.643317 118.757643 214.830074 118.42526 215.162457 
C 118.092877 215.494839 117.90612 215.94571 117.90612 216.415771 
C 117.90612 216.885831 118.092877 217.336702 118.42526 217.669085 
C 118.757643 218.001468 119.208514 218.188225 119.678574 218.188225 
z
" style="stroke:#000000;stroke-width:0.886227;"/>
    <path clip-path="url(#p5204bdba6d)" d="M 119.678574 225.445825 
C 120.148634 225.445825 120.599505 225.259068 120.931888 224.926685 
C 121.264271 224.594302 121.451028 224.143431 121.451028 223.673371 
C 121.451028 223.20331 121.264271 222.752439 120.931888 222.420057 
C 120.599505 222.087674 120.148634 221.900917 119.678574 221.900917 
C 119.208514 221.900917 118.757643 222.087674 118.42526 222.420057 
C 118.092877 222.752439 117.90612 223.20331 117.90612 223.673371 
C 117.90612 224.143431 118.092877 224.594302 118.42526 224.926685 
C 118.757643 225.259068 119.208514 225.445825 119.678574 225.445825 
z
" style="stroke:#000000;stroke-width:0.886227;"/>
    <path clip-path="url(#p5204bdba6d)" d="M 158.096028 78.681025 
C 158.566089 78.681025 159.01696 78.494268 159.349343 78.161885 
C 159.681725 77.829502 159.868482 77.378631 159.868482 76.908571 
C 159.868482 76.43851 159.681725 75.987639 159.349343 75.655257 
C 159.01696 75.322874 158.566089 75.136117 158.096028 75.136117 
C 157.625968 75.136117 157.175097 75.322874 156.842714 75.655257 
C 156.510331 75.987639 156.323575 76.43851 156.323575 76.908571 
C 156.323575 77.378631 156.510331 77.829502 156.842714 78.161885 
C 157.175097 78.494268 157.625968 78.681025 158.096028 78.681025 
z
" style="stroke:#000000;stroke-width:0.886227;"/>
    <path clip-path="url(#p5204bdba6d)" d="M 158.096028 86.543425 
C 158.566089 86.543425 159.01696 86.356668 159.349343 86.024285 
C 159.681725 85.691902 159.868482 85.241031 159.868482 84.770971 
C 159.868482 84.30091 159.681725 83.850039 159.349343 83.517657 
C 159.01696 83.185274 158.566089 82.998517 158.096028 82.998517 
C 157.625968 82.998517 157.175097 83.185274 156.842714 83.517657 
C 156.510331 83.850039 156.323575 84.30091 156.323575 84.770971 
C 156.323575 85.241031 156.510331 85.691902 156.842714 86.024285 
C 157.175097 86.356668 157.625968 86.543425 158.096028 86.543425 
z
" style="stroke:#000000;stroke-width:0.886227;"/>
    <path clip-path="url(#p5204bdba6d)" d="M 158.096028 182.101825 
C 158.566089 182.101825 159.01696 181.915068 159.349343 181.582685 
C 159.681725 181.250302 159.868482 180.799431 159.868482 180.329371 
C 159.868482 179.85931 159.681725 179.408439 159.349343 179.076057 
C 159.01696 178.743674 158.566089 178.556917 158.096028 178.556917 
C 157.625968 178.556917 157.175097 178.743674 156.842714 179.076057 
C 156.510331 179.408439 156.323575 179.85931 156.323575 180.329371 
C 156.323575 180.799431 156.510331 181.250302 156.842714 181.582685 
C 157.175097 181.915068 157.625968 182.101825 158.096028 182.101825 
z
" style="stroke:#000000;stroke-width:0.886227;"/>
    <path clip-path="url(#p5204bdba6d)" d="M 158.096028 210.930625 
C 158.566089 210.930625 159.01696 210.743868 159.349343 210.411485 
C 159.681725 210.079102 159.868482 209.628231 159.868482 209.158171 
C 159.868482 208.68811 159.681725 208.237239 159.349343 207.904857 
C 159.01696 207.572474 158.566089 207.385717 158.096028 207.385717 
C 157.625968 207.385717 157.175097 207.572474 156.842714 207.904857 
C 156.510331 208.237239 156.323575 208.68811 156.323575 209.158171 
C 156.323575 209.628231 156.510331 210.079102 156.842714 210.411485 
C 157.175097 210.743868 157.625968 210.930625 158.096028 210.930625 
z
" style="stroke:#000000;stroke-width:0.886227;"/>
    <path clip-path="url(#p5204bdba6d)" d="M 196.242938 43.401025 
C 196.712998 43.401025 197.163869 43.214268 197.496252 42.881885 
C 197.828634 42.549502 198.015391 42.098631 198.015391 41.628571 
C 198.015391 41.15851 197.828634 40.707639 197.496252 40.375257 
C 197.163869 40.042874 196.712998 39.856117 196.242938 39.856117 
C 195.772877 39.856117 195.322006 40.042874 194.989623 40.375257 
C 194.657241 40.707639 194.470484 41.15851 194.470484 41.628571 
C 194.470484 42.098631 194.657241 42.549502 194.989623 42.881885 
C 195.322006 43.214268 195.772877 43.401025 196.242938 43.401025 
z
" style="stroke:#000000;stroke-width:0.886227;"/>
    <path clip-path="url(#p5204bdba6d)" d="M 196.242938 43.804225 
C 196.712998 43.804225 197.163869 43.617468 197.496252 43.285085 
C 197.828634 42.952702 198.015391 42.501831 198.015391 42.031771 
C 198.015391 41.56171 197.828634 41.110839 197.496252 40.778457 
C 197.163869 40.446074 196.712998 40.259317 196.242938 40.259317 
C 195.772877 40.259317 195.322006 40.446074 194.989623 40.778457 
C 194.657241 41.110839 194.470484 41.56171 194.470484 42.031771 
C 194.470484 42.501831 194.657241 42.952702 194.989623 43.285085 
C 195.322006 43.617468 195.772877 43.804225 196.242938 43.804225 
z
" style="stroke:#000000;stroke-width:0.886227;"/>
    <path clip-path="url(#p5204bdba6d)" d="M 196.242938 56.706625 
C 196.712998 56.706625 197.163869 56.519868 197.496252 56.187485 
C 197.828634 55.855102 198.015391 55.404231 198.015391 54.934171 
C 198.015391 54.46411 197.828634 54.013239 197.496252 53.680857 
C 197.163869 53.348474 196.712998 53.161717 196.242938 53.161717 
C 195.772877 53.161717 195.322006 53.348474 194.989623 53.680857 
C 194.657241 54.013239 194.470484 54.46411 194.470484 54.934171 
C 194.470484 55.404231 194.657241 55.855102 194.989623 56.187485 
C 195.322006 56.519868 195.772877 56.706625 196.242938 56.706625 
z
" style="stroke:#000000;stroke-width:0.886227;"/>
    <path clip-path="url(#p5204bdba6d)" d="M 196.242938 143.596225 
C 196.712998 143.596225 197.163869 143.409468 197.496252 143.077085 
C 197.828634 142.744702 198.015391 142.293831 198.015391 141.823771 
C 198.015391 141.35371 197.828634 140.902839 197.496252 140.570457 
C 197.163869 140.238074 196.712998 140.051317 196.242938 140.051317 
C 195.772877 140.051317 195.322006 140.238074 194.989623 140.570457 
C 194.657241 140.902839 194.470484 141.35371 194.470484 141.823771 
C 194.470484 142.293831 194.657241 142.744702 194.989623 143.077085 
C 195.322006 143.409468 195.772877 143.596225 196.242938 143.596225 
z
" style="stroke:#000000;stroke-width:0.886227;"/>
    <path clip-path="url(#p5204bdba6d)" d="M 234.660392 40.981825 
C 235.130452 40.981825 235.581323 40.795068 235.913706 40.462685 
C 236.246089 40.130302 236.432846 39.679431 236.432846 39.209371 
C 236.432846 38.73931 236.246089 38.288439 235.913706 37.956057 
C 235.581323 37.623674 235.130452 37.436917 234.660392 37.436917 
C 234.190332 37.436917 233.739461 37.623674 233.407078 37.956057 
C 233.074695 38.288439 232.887938 38.73931 232.887938 39.209371 
C 232.887938 39.679431 233.074695 40.130302 233.407078 40.462685 
C 233.739461 40.795068 234.190332 40.981825 234.660392 40.981825 
z
" style="stroke:#000000;stroke-width:0.886227;"/>
    <path clip-path="url(#p5204bdba6d)" d="M 234.660392 42.191425 
C 235.130452 42.191425 235.581323 42.004668 235.913706 41.672285 
C 236.246089 41.339902 236.432846 40.889031 236.432846 40.418971 
C 236.432846 39.94891 236.246089 39.498039 235.913706 39.165657 
C 235.581323 38.833274 235.130452 38.646517 234.660392 38.646517 
C 234.190332 38.646517 233.739461 38.833274 233.407078 39.165657 
C 233.074695 39.498039 232.887938 39.94891 232.887938 40.418971 
C 232.887938 40.889031 233.074695 41.339902 233.407078 41.672285 
C 233.739461 42.004668 234.190332 42.191425 234.660392 42.191425 
z
" style="stroke:#000000;stroke-width:0.886227;"/>
    <path clip-path="url(#p5204bdba6d)" d="M 234.660392 47.231425 
C 235.130452 47.231425 235.581323 47.044668 235.913706 46.712285 
C 236.246089 46.379902 236.432846 45.929031 236.432846 45.458971 
C 236.432846 44.98891 236.246089 44.538039 235.913706 44.205657 
C 235.581323 43.873274 235.130452 43.686517 234.660392 43.686517 
C 234.190332 43.686517 233.739461 43.873274 233.407078 44.205657 
C 233.074695 44.538039 232.887938 44.98891 232.887938 45.458971 
C 232.887938 45.929031 233.074695 46.379902 233.407078 46.712285 
C 233.739461 47.044668 234.190332 47.231425 234.660392 47.231425 
z
" style="stroke:#000000;stroke-width:0.886227;"/>
    <path clip-path="url(#p5204bdba6d)" d="M 234.660392 91.785025 
C 235.130452 91.785025 235.581323 91.598268 235.913706 91.265885 
C 236.246089 90.933502 236.432846 90.482631 236.432846 90.012571 
C 236.432846 89.54251 236.246089 89.091639 235.913706 88.759257 
C 235.581323 88.426874 235.130452 88.240117 234.660392 88.240117 
C 234.190332 88.240117 233.739461 88.426874 233.407078 88.759257 
C 233.074695 89.091639 232.887938 89.54251 232.887938 90.012571 
C 232.887938 90.482631 233.074695 90.933502 233.407078 91.265885 
C 233.739461 91.598268 234.190332 91.785025 234.660392 91.785025 
z
" style="stroke:#000000;stroke-width:0.886227;"/>
    <path clip-path="url(#p5204bdba6d)" d="M 272.807301 39.973825 
C 273.277361 39.973825 273.728232 39.787068 274.060615 39.454685 
C 274.392998 39.122302 274.579755 38.671431 274.579755 38.201371 
C 274.579755 37.73131 274.392998 37.280439 274.060615 36.948057 
C 273.728232 36.615674 273.277361 36.428917 272.807301 36.428917 
C 272.337241 36.428917 271.88637 36.615674 271.553987 36.948057 
C 271.221604 37.280439 271.034847 37.73131 271.034847 38.201371 
C 271.034847 38.671431 271.221604 39.122302 271.553987 39.454685 
C 271.88637 39.787068 272.337241 39.973825 272.807301 39.973825 
z
" style="stroke:#000000;stroke-width:0.886227;"/>
    <path clip-path="url(#p5204bdba6d)" d="M 272.807301 39.973825 
C 273.277361 39.973825 273.728232 39.787068 274.060615 39.454685 
C 274.392998 39.122302 274.579755 38.671431 274.579755 38.201371 
C 274.579755 37.73131 274.392998 37.280439 274.060615 36.948057 
C 273.728232 36.615674 273.277361 36.428917 272.807301 36.428917 
C 272.337241 36.428917 271.88637 36.615674 271.553987 36.948057 
C 271.221604 37.280439 271.034847 37.73131 271.034847 38.201371 
C 271.034847 38.671431 271.221604 39.122302 271.553987 39.454685 
C 271.88637 39.787068 272.337241 39.973825 272.807301 39.973825 
z
" style="stroke:#000000;stroke-width:0.886227;"/>
    <path clip-path="url(#p5204bdba6d)" d="M 272.807301 41.183425 
C 273.277361 41.183425 273.728232 40.996668 274.060615 40.664285 
C 274.392998 40.331902 274.579755 39.881031 274.579755 39.410971 
C 274.579755 38.94091 274.392998 38.490039 274.060615 38.157657 
C 273.728232 37.825274 273.277361 37.638517 272.807301 37.638517 
C 272.337241 37.638517 271.88637 37.825274 271.553987 38.157657 
C 271.221604 38.490039 271.034847 38.94091 271.034847 39.410971 
C 271.034847 39.881031 271.221604 40.331902 271.553987 40.664285 
C 271.88637 40.996668 272.337241 41.183425 272.807301 41.183425 
z
" style="stroke:#000000;stroke-width:0.886227;"/>
    <path clip-path="url(#p5204bdba6d)" d="M 272.807301 54.287425 
C 273.277361 54.287425 273.728232 54.100668 274.060615 53.768285 
C 274.392998 53.435902 274.579755 52.985031 274.579755 52.514971 
C 274.579755 52.04491 274.392998 51.594039 274.060615 51.261657 
C 273.728232 50.929274 273.277361 50.742517 272.807301 50.742517 
C 272.337241 50.742517 271.88637 50.929274 271.553987 51.261657 
C 271.221604 51.594039 271.034847 52.04491 271.034847 52.514971 
C 271.034847 52.985031 271.221604 53.435902 271.553987 53.768285 
C 271.88637 54.100668 272.337241 54.287425 272.807301 54.287425 
z
" style="stroke:#000000;stroke-width:0.886227;"/>
    <path clip-path="url(#p5204bdba6d)" d="M 311.224756 39.973825 
C 311.694816 39.973825 312.145687 39.787068 312.47807 39.454685 
C 312.810453 39.122302 312.99721 38.671431 312.99721 38.201371 
C 312.99721 37.73131 312.810453 37.280439 312.47807 36.948057 
C 312.145687 36.615674 311.694816 36.428917 311.224756 36.428917 
C 310.754695 36.428917 310.303824 36.615674 309.971442 36.948057 
C 309.639059 37.280439 309.452302 37.73131 309.452302 38.201371 
C 309.452302 38.671431 309.639059 39.122302 309.971442 39.454685 
C 310.303824 39.787068 310.754695 39.973825 311.224756 39.973825 
z
" style="stroke:#000000;stroke-width:0.886227;"/>
    <path clip-path="url(#p5204bdba6d)" d="M 311.224756 39.973825 
C 311.694816 39.973825 312.145687 39.787068 312.47807 39.454685 
C 312.810453 39.122302 312.99721 38.671431 312.99721 38.201371 
C 312.99721 37.73131 312.810453 37.280439 312.47807 36.948057 
C 312.145687 36.615674 311.694816 36.428917 311.224756 36.428917 
C 310.754695 36.428917 310.303824 36.615674 309.971442 36.948057 
C 309.639059 37.280439 309.452302 37.73131 309.452302 38.201371 
C 309.452302 38.671431 309.639059 39.122302 309.971442 39.454685 
C 310.303824 39.787068 310.754695 39.973825 311.224756 39.973825 
z
" style="stroke:#000000;stroke-width:0.886227;"/>
    <path clip-path="url(#p5204bdba6d)" d="M 311.224756 40.578625 
C 311.694816 40.578625 312.145687 40.391868 312.47807 40.059485 
C 312.810453 39.727102 312.99721 39.276231 312.99721 38.806171 
C 312.99721 38.33611 312.810453 37.885239 312.47807 37.552857 
C 312.145687 37.220474 311.694816 37.033717 311.224756 37.033717 
C 310.754695 37.033717 310.303824 37.220474 309.971442 37.552857 
C 309.639059 37.885239 309.452302 38.33611 309.452302 38.806171 
C 309.452302 39.276231 309.639059 39.727102 309.971442 40.059485 
C 310.303824 40.391868 310.754695 40.578625 311.224756 40.578625 
z
" style="stroke:#000000;stroke-width:0.886227;"/>
    <path clip-path="url(#p5204bdba6d)" d="M 311.224756 43.804225 
C 311.694816 43.804225 312.145687 43.617468 312.47807 43.285085 
C 312.810453 42.952702 312.99721 42.501831 312.99721 42.031771 
C 312.99721 41.56171 312.810453 41.110839 312.47807 40.778457 
C 312.145687 40.446074 311.694816 40.259317 311.224756 40.259317 
C 310.754695 40.259317 310.303824 40.446074 309.971442 40.778457 
C 309.639059 41.110839 309.452302 41.56171 309.452302 42.031771 
C 309.452302 42.501831 309.639059 42.952702 309.971442 43.285085 
C 310.303824 43.617468 310.754695 43.804225 311.224756 43.804225 
z
" style="stroke:#000000;stroke-width:0.886227;"/>
    <path clip-path="url(#p5204bdba6d)" d="M 349.371665 39.973825 
C 349.841725 39.973825 350.292596 39.787068 350.624979 39.454685 
C 350.957362 39.122302 351.144119 38.671431 351.144119 38.201371 
C 351.144119 37.73131 350.957362 37.280439 350.624979 36.948057 
C 350.292596 36.615674 349.841725 36.428917 349.371665 36.428917 
C 348.901605 36.428917 348.450733 36.615674 348.118351 36.948057 
C 347.785968 37.280439 347.599211 37.73131 347.599211 38.201371 
C 347.599211 38.671431 347.785968 39.122302 348.118351 39.454685 
C 348.450733 39.787068 348.901605 39.973825 349.371665 39.973825 
z
" style="stroke:#000000;stroke-width:0.886227;"/>
    <path clip-path="url(#p5204bdba6d)" d="M 349.371665 39.973825 
C 349.841725 39.973825 350.292596 39.787068 350.624979 39.454685 
C 350.957362 39.122302 351.144119 38.671431 351.144119 38.201371 
C 351.144119 37.73131 350.957362 37.280439 350.624979 36.948057 
C 350.292596 36.615674 349.841725 36.428917 349.371665 36.428917 
C 348.901605 36.428917 348.450733 36.615674 348.118351 36.948057 
C 347.785968 37.280439 347.599211 37.73131 347.599211 38.201371 
C 347.599211 38.671431 347.785968 39.122302 348.118351 39.454685 
C 348.450733 39.787068 348.901605 39.973825 349.371665 39.973825 
z
" style="stroke:#000000;stroke-width:0.886227;"/>
    <path clip-path="url(#p5204bdba6d)" d="M 349.371665 40.175425 
C 349.841725 40.175425 350.292596 39.988668 350.624979 39.656285 
C 350.957362 39.323902 351.144119 38.873031 351.144119 38.402971 
C 351.144119 37.93291 350.957362 37.482039 350.624979 37.149657 
C 350.292596 36.817274 349.841725 36.630517 349.371665 36.630517 
C 348.901605 36.630517 348.450733 36.817274 348.118351 37.149657 
C 347.785968 37.482039 347.599211 37.93291 347.599211 38.402971 
C 347.599211 38.873031 347.785968 39.323902 348.118351 39.656285 
C 348.450733 39.988668 348.901605 40.175425 349.371665 40.175425 
z
" style="stroke:#000000;stroke-width:0.886227;"/>
    <path clip-path="url(#p5204bdba6d)" d="M 349.371665 44.207425 
C 349.841725 44.207425 350.292596 44.020668 350.624979 43.688285 
C 350.957362 43.355902 351.144119 42.905031 351.144119 42.434971 
C 351.144119 41.96491 350.957362 41.514039 350.624979 41.181657 
C 350.292596 40.849274 349.841725 40.662517 349.371665 40.662517 
C 348.901605 40.662517 348.450733 40.849274 348.118351 41.181657 
C 347.785968 41.514039 347.599211 41.96491 347.599211 42.434971 
C 347.599211 42.905031 347.785968 43.355902 348.118351 43.688285 
C 348.450733 44.020668 348.901605 44.207425 349.371665 44.207425 
z
" style="stroke:#000000;stroke-width:0.886227;"/>
    <path clip-path="url(#p5204bdba6d)" d="M 387.518574 39.973825 
C 387.988634 39.973825 388.439505 39.787068 388.771888 39.454685 
C 389.104271 39.122302 389.291028 38.671431 389.291028 38.201371 
C 389.291028 37.73131 389.104271 37.280439 388.771888 36.948057 
C 388.439505 36.615674 387.988634 36.428917 387.518574 36.428917 
C 387.048514 36.428917 386.597643 36.615674 386.26526 36.948057 
C 385.932877 37.280439 385.74612 37.73131 385.74612 38.201371 
C 385.74612 38.671431 385.932877 39.122302 386.26526 39.454685 
C 386.597643 39.787068 387.048514 39.973825 387.518574 39.973825 
z
" style="stroke:#000000;stroke-width:0.886227;"/>
    <path clip-path="url(#p5204bdba6d)" d="M 387.518574 39.973825 
C 387.988634 39.973825 388.439505 39.787068 388.771888 39.454685 
C 389.104271 39.122302 389.291028 38.671431 389.291028 38.201371 
C 389.291028 37.73131 389.104271 37.280439 388.771888 36.948057 
C 388.439505 36.615674 387.988634 36.428917 387.518574 36.428917 
C 387.048514 36.428917 386.597643 36.615674 386.26526 36.948057 
C 385.932877 37.280439 385.74612 37.73131 385.74612 38.201371 
C 385.74612 38.671431 385.932877 39.122302 386.26526 39.454685 
C 386.597643 39.787068 387.048514 39.973825 387.518574 39.973825 
z
" style="stroke:#000000;stroke-width:0.886227;"/>
    <path clip-path="url(#p5204bdba6d)" d="M 387.518574 39.973825 
C 387.988634 39.973825 388.439505 39.787068 388.771888 39.454685 
C 389.104271 39.122302 389.291028 38.671431 389.291028 38.201371 
C 389.291028 37.73131 389.104271 37.280439 388.771888 36.948057 
C 388.439505 36.615674 387.988634 36.428917 387.518574 36.428917 
C 387.048514 36.428917 386.597643 36.615674 386.26526 36.948057 
C 385.932877 37.280439 385.74612 37.73131 385.74612 38.201371 
C 385.74612 38.671431 385.932877 39.122302 386.26526 39.454685 
C 386.597643 39.787068 387.048514 39.973825 387.518574 39.973825 
z
" style="stroke:#000000;stroke-width:0.886227;"/>
    <path clip-path="url(#p5204bdba6d)" d="M 387.518574 40.780225 
C 387.988634 40.780225 388.439505 40.593468 388.771888 40.261085 
C 389.104271 39.928702 389.291028 39.477831 389.291028 39.007771 
C 389.291028 38.53771 389.104271 38.086839 388.771888 37.754457 
C 388.439505 37.422074 387.988634 37.235317 387.518574 37.235317 
C 387.048514 37.235317 386.597643 37.422074 386.26526 37.754457 
C 385.932877 38.086839 385.74612 38.53771 385.74612 39.007771 
C 385.74612 39.477831 385.932877 39.928702 386.26526 40.261085 
C 386.597643 40.593468 387.048514 40.780225 387.518574 40.780225 
z
" style="stroke:#000000;stroke-width:0.886227;"/>
   </g>
   <g id="LineCollection_1">
    <path clip-path="url(#p5204bdba6d)" d="M 83.019665 226.630171 
" style="fill:none;stroke:#db5f57;stroke-width:0.886227;"/>
    <path clip-path="url(#p5204bdba6d)" d="M 118.190574 203.410459 
L 121.166574 203.410459 
" style="fill:none;stroke:#db5f57;stroke-width:0.886227;"/>
    <path clip-path="url(#p5204bdba6d)" d="M 156.608028 84.046104 
L 159.584028 84.046104 
" style="fill:none;stroke:#db5f57;stroke-width:0.886227;"/>
    <path clip-path="url(#p5204bdba6d)" d="M 194.754938 43.156229 
L 197.730938 43.156229 
" style="fill:none;stroke:#db5f57;stroke-width:0.886227;"/>
    <path clip-path="url(#p5204bdba6d)" d="M 233.172392 39.85522 
L 236.148392 39.85522 
" style="fill:none;stroke:#db5f57;stroke-width:0.886227;"/>
    <path clip-path="url(#p5204bdba6d)" d="M 271.319301 38.201371 
L 274.295301 38.201371 
" style="fill:none;stroke:#db5f57;stroke-width:0.886227;"/>
    <path clip-path="url(#p5204bdba6d)" d="M 309.736756 38.201371 
L 312.712756 38.201371 
" style="fill:none;stroke:#db5f57;stroke-width:0.886227;"/>
    <path clip-path="url(#p5204bdba6d)" d="M 347.883665 38.201371 
L 350.859665 38.201371 
" style="fill:none;stroke:#db5f57;stroke-width:0.886227;"/>
    <path clip-path="url(#p5204bdba6d)" d="M 386.030574 38.201371 
L 389.006574 38.201371 
" style="fill:none;stroke:#db5f57;stroke-width:0.886227;"/>
    <path clip-path="url(#p5204bdba6d)" d="M 83.019665 222.329371 
" style="fill:none;stroke:#db5f57;stroke-width:0.886227;"/>
    <path clip-path="url(#p5204bdba6d)" d="M 118.190574 193.536282 
L 121.166574 193.536282 
" style="fill:none;stroke:#db5f57;stroke-width:0.886227;"/>
    <path clip-path="url(#p5204bdba6d)" d="M 156.608028 69.771038 
L 159.584028 69.771038 
" style="fill:none;stroke:#db5f57;stroke-width:0.886227;"/>
    <path clip-path="url(#p5204bdba6d)" d="M 194.754938 40.100913 
L 197.730938 40.100913 
" style="fill:none;stroke:#db5f57;stroke-width:0.886227;"/>
    <path clip-path="url(#p5204bdba6d)" d="M 233.172392 38.563522 
L 236.148392 38.563522 
" style="fill:none;stroke:#db5f57;stroke-width:0.886227;"/>
    <path clip-path="url(#p5204bdba6d)" d="M 271.319301 38.201371 
L 274.295301 38.201371 
" style="fill:none;stroke:#db5f57;stroke-width:0.886227;"/>
    <path clip-path="url(#p5204bdba6d)" d="M 309.736756 38.201371 
L 312.712756 38.201371 
" style="fill:none;stroke:#db5f57;stroke-width:0.886227;"/>
    <path clip-path="url(#p5204bdba6d)" d="M 347.883665 38.201371 
L 350.859665 38.201371 
" style="fill:none;stroke:#db5f57;stroke-width:0.886227;"/>
    <path clip-path="url(#p5204bdba6d)" d="M 386.030574 38.201371 
L 389.006574 38.201371 
" style="fill:none;stroke:#db5f57;stroke-width:0.886227;"/>
    <path clip-path="url(#p5204bdba6d)" d="M 81.531665 222.329371 
L 81.531665 226.630171 
" style="fill:none;stroke:#db5f57;stroke-width:0.886227;"/>
    <path clip-path="url(#p5204bdba6d)" d="M 119.678574 193.536282 
L 119.678574 203.410459 
" style="fill:none;stroke:#db5f57;stroke-width:0.886227;"/>
    <path clip-path="url(#p5204bdba6d)" d="M 158.096028 69.771038 
L 158.096028 84.046104 
" style="fill:none;stroke:#db5f57;stroke-width:0.886227;"/>
    <path clip-path="url(#p5204bdba6d)" d="M 196.242938 40.100913 
L 196.242938 43.156229 
" style="fill:none;stroke:#db5f57;stroke-width:0.886227;"/>
    <path clip-path="url(#p5204bdba6d)" d="M 234.660392 38.563522 
L 234.660392 39.85522 
" style="fill:none;stroke:#db5f57;stroke-width:0.886227;"/>
    <path clip-path="url(#p5204bdba6d)" d="M 272.807301 38.201371 
L 272.807301 38.201371 
" style="fill:none;stroke:#db5f57;stroke-width:0.886227;"/>
    <path clip-path="url(#p5204bdba6d)" d="M 311.224756 38.201371 
L 311.224756 38.201371 
" style="fill:none;stroke:#db5f57;stroke-width:0.886227;"/>
    <path clip-path="url(#p5204bdba6d)" d="M 349.371665 38.201371 
L 349.371665 38.201371 
" style="fill:none;stroke:#db5f57;stroke-width:0.886227;"/>
    <path clip-path="url(#p5204bdba6d)" d="M 387.518574 38.201371 
L 387.518574 38.201371 
" style="fill:none;stroke:#db5f57;stroke-width:0.886227;"/>
   </g>
   <g id="LineCollection_2">
    <path clip-path="url(#p5204bdba6d)" d="M 83.019665 219.222125 
" style="fill:none;stroke:#91db57;stroke-width:0.886227;"/>
    <path clip-path="url(#p5204bdba6d)" d="M 118.190574 214.053396 
L 121.166574 214.053396 
" style="fill:none;stroke:#91db57;stroke-width:0.886227;"/>
    <path clip-path="url(#p5204bdba6d)" d="M 156.608028 97.217263 
L 159.584028 97.217263 
" style="fill:none;stroke:#91db57;stroke-width:0.886227;"/>
    <path clip-path="url(#p5204bdba6d)" d="M 194.754938 43.449021 
L 197.730938 43.449021 
" style="fill:none;stroke:#91db57;stroke-width:0.886227;"/>
    <path clip-path="url(#p5204bdba6d)" d="M 233.172392 41.319366 
L 236.148392 41.319366 
" style="fill:none;stroke:#91db57;stroke-width:0.886227;"/>
    <path clip-path="url(#p5204bdba6d)" d="M 271.319301 38.201371 
L 274.295301 38.201371 
" style="fill:none;stroke:#91db57;stroke-width:0.886227;"/>
    <path clip-path="url(#p5204bdba6d)" d="M 309.736756 38.201371 
L 312.712756 38.201371 
" style="fill:none;stroke:#91db57;stroke-width:0.886227;"/>
    <path clip-path="url(#p5204bdba6d)" d="M 347.883665 38.201371 
L 350.859665 38.201371 
" style="fill:none;stroke:#91db57;stroke-width:0.886227;"/>
    <path clip-path="url(#p5204bdba6d)" d="M 386.030574 38.201371 
L 389.006574 38.201371 
" style="fill:none;stroke:#91db57;stroke-width:0.886227;"/>
    <path clip-path="url(#p5204bdba6d)" d="M 83.019665 213.609416 
" style="fill:none;stroke:#91db57;stroke-width:0.886227;"/>
    <path clip-path="url(#p5204bdba6d)" d="M 118.190574 203.456545 
L 121.166574 203.456545 
" style="fill:none;stroke:#91db57;stroke-width:0.886227;"/>
    <path clip-path="url(#p5204bdba6d)" d="M 156.608028 72.324679 
L 159.584028 72.324679 
" style="fill:none;stroke:#91db57;stroke-width:0.886227;"/>
    <path clip-path="url(#p5204bdba6d)" d="M 194.754938 40.614521 
L 197.730938 40.614521 
" style="fill:none;stroke:#91db57;stroke-width:0.886227;"/>
    <path clip-path="url(#p5204bdba6d)" d="M 233.172392 39.518575 
L 236.148392 39.518575 
" style="fill:none;stroke:#91db57;stroke-width:0.886227;"/>
    <path clip-path="url(#p5204bdba6d)" d="M 271.319301 38.201371 
L 274.295301 38.201371 
" style="fill:none;stroke:#91db57;stroke-width:0.886227;"/>
    <path clip-path="url(#p5204bdba6d)" d="M 309.736756 38.201371 
L 312.712756 38.201371 
" style="fill:none;stroke:#91db57;stroke-width:0.886227;"/>
    <path clip-path="url(#p5204bdba6d)" d="M 347.883665 38.201371 
L 350.859665 38.201371 
" style="fill:none;stroke:#91db57;stroke-width:0.886227;"/>
    <path clip-path="url(#p5204bdba6d)" d="M 386.030574 38.201371 
L 389.006574 38.201371 
" style="fill:none;stroke:#91db57;stroke-width:0.886227;"/>
    <path clip-path="url(#p5204bdba6d)" d="M 81.531665 213.609416 
L 81.531665 219.222125 
" style="fill:none;stroke:#91db57;stroke-width:0.886227;"/>
    <path clip-path="url(#p5204bdba6d)" d="M 119.678574 203.456545 
L 119.678574 214.053396 
" style="fill:none;stroke:#91db57;stroke-width:0.886227;"/>
    <path clip-path="url(#p5204bdba6d)" d="M 158.096028 72.324679 
L 158.096028 97.217263 
" style="fill:none;stroke:#91db57;stroke-width:0.886227;"/>
    <path clip-path="url(#p5204bdba6d)" d="M 196.242938 40.614521 
L 196.242938 43.449021 
" style="fill:none;stroke:#91db57;stroke-width:0.886227;"/>
    <path clip-path="url(#p5204bdba6d)" d="M 234.660392 39.518575 
L 234.660392 41.319366 
" style="fill:none;stroke:#91db57;stroke-width:0.886227;"/>
    <path clip-path="url(#p5204bdba6d)" d="M 272.807301 38.201371 
L 272.807301 38.201371 
" style="fill:none;stroke:#91db57;stroke-width:0.886227;"/>
    <path clip-path="url(#p5204bdba6d)" d="M 311.224756 38.201371 
L 311.224756 38.201371 
" style="fill:none;stroke:#91db57;stroke-width:0.886227;"/>
    <path clip-path="url(#p5204bdba6d)" d="M 349.371665 38.201371 
L 349.371665 38.201371 
" style="fill:none;stroke:#91db57;stroke-width:0.886227;"/>
    <path clip-path="url(#p5204bdba6d)" d="M 387.518574 38.201371 
L 387.518574 38.201371 
" style="fill:none;stroke:#91db57;stroke-width:0.886227;"/>
   </g>
   <g id="LineCollection_3">
    <path clip-path="url(#p5204bdba6d)" d="M 83.019665 227.322281 
" style="fill:none;stroke:#57d3db;stroke-width:0.886227;"/>
    <path clip-path="url(#p5204bdba6d)" d="M 118.190574 219.547153 
L 121.166574 219.547153 
" style="fill:none;stroke:#57d3db;stroke-width:0.886227;"/>
    <path clip-path="url(#p5204bdba6d)" d="M 156.608028 190.342835 
L 159.584028 190.342835 
" style="fill:none;stroke:#57d3db;stroke-width:0.886227;"/>
    <path clip-path="url(#p5204bdba6d)" d="M 194.754938 58.637366 
L 197.730938 58.637366 
" style="fill:none;stroke:#57d3db;stroke-width:0.886227;"/>
    <path clip-path="url(#p5204bdba6d)" d="M 233.172392 50.990465 
L 236.148392 50.990465 
" style="fill:none;stroke:#57d3db;stroke-width:0.886227;"/>
    <path clip-path="url(#p5204bdba6d)" d="M 271.319301 39.925991 
L 274.295301 39.925991 
" style="fill:none;stroke:#57d3db;stroke-width:0.886227;"/>
    <path clip-path="url(#p5204bdba6d)" d="M 309.736756 39.24737 
L 312.712756 39.24737 
" style="fill:none;stroke:#57d3db;stroke-width:0.886227;"/>
    <path clip-path="url(#p5204bdba6d)" d="M 347.883665 38.604571 
L 350.859665 38.604571 
" style="fill:none;stroke:#57d3db;stroke-width:0.886227;"/>
    <path clip-path="url(#p5204bdba6d)" d="M 386.030574 38.201371 
L 389.006574 38.201371 
" style="fill:none;stroke:#57d3db;stroke-width:0.886227;"/>
    <path clip-path="url(#p5204bdba6d)" d="M 83.019665 219.218061 
" style="fill:none;stroke:#57d3db;stroke-width:0.886227;"/>
    <path clip-path="url(#p5204bdba6d)" d="M 118.190574 213.284389 
L 121.166574 213.284389 
" style="fill:none;stroke:#57d3db;stroke-width:0.886227;"/>
    <path clip-path="url(#p5204bdba6d)" d="M 156.608028 170.315906 
L 159.584028 170.315906 
" style="fill:none;stroke:#57d3db;stroke-width:0.886227;"/>
    <path clip-path="url(#p5204bdba6d)" d="M 194.754938 51.230975 
L 197.730938 51.230975 
" style="fill:none;stroke:#57d3db;stroke-width:0.886227;"/>
    <path clip-path="url(#p5204bdba6d)" d="M 233.172392 39.927476 
L 236.148392 39.927476 
" style="fill:none;stroke:#57d3db;stroke-width:0.886227;"/>
    <path clip-path="url(#p5204bdba6d)" d="M 271.319301 38.89595 
L 274.295301 38.89595 
" style="fill:none;stroke:#57d3db;stroke-width:0.886227;"/>
    <path clip-path="url(#p5204bdba6d)" d="M 309.736756 38.364972 
L 312.712756 38.364972 
" style="fill:none;stroke:#57d3db;stroke-width:0.886227;"/>
    <path clip-path="url(#p5204bdba6d)" d="M 347.883665 38.201371 
L 350.859665 38.201371 
" style="fill:none;stroke:#57d3db;stroke-width:0.886227;"/>
    <path clip-path="url(#p5204bdba6d)" d="M 386.030574 38.201371 
L 389.006574 38.201371 
" style="fill:none;stroke:#57d3db;stroke-width:0.886227;"/>
    <path clip-path="url(#p5204bdba6d)" d="M 81.531665 219.218061 
L 81.531665 227.322281 
" style="fill:none;stroke:#57d3db;stroke-width:0.886227;"/>
    <path clip-path="url(#p5204bdba6d)" d="M 119.678574 213.284389 
L 119.678574 219.547153 
" style="fill:none;stroke:#57d3db;stroke-width:0.886227;"/>
    <path clip-path="url(#p5204bdba6d)" d="M 158.096028 170.315906 
L 158.096028 190.342835 
" style="fill:none;stroke:#57d3db;stroke-width:0.886227;"/>
    <path clip-path="url(#p5204bdba6d)" d="M 196.242938 51.230975 
L 196.242938 58.637366 
" style="fill:none;stroke:#57d3db;stroke-width:0.886227;"/>
    <path clip-path="url(#p5204bdba6d)" d="M 234.660392 39.927476 
L 234.660392 50.990465 
" style="fill:none;stroke:#57d3db;stroke-width:0.886227;"/>
    <path clip-path="url(#p5204bdba6d)" d="M 272.807301 38.89595 
L 272.807301 39.925991 
" style="fill:none;stroke:#57d3db;stroke-width:0.886227;"/>
    <path clip-path="url(#p5204bdba6d)" d="M 311.224756 38.364972 
L 311.224756 39.24737 
" style="fill:none;stroke:#57d3db;stroke-width:0.886227;"/>
    <path clip-path="url(#p5204bdba6d)" d="M 349.371665 38.201371 
L 349.371665 38.604571 
" style="fill:none;stroke:#57d3db;stroke-width:0.886227;"/>
    <path clip-path="url(#p5204bdba6d)" d="M 387.518574 38.201371 
L 387.518574 38.201371 
" style="fill:none;stroke:#57d3db;stroke-width:0.886227;"/>
   </g>
   <g id="LineCollection_4">
    <path clip-path="url(#p5204bdba6d)" d="M 83.019665 222.992281 
" style="fill:none;stroke:#a157db;stroke-width:0.886227;"/>
    <path clip-path="url(#p5204bdba6d)" d="M 118.190574 226.305979 
L 121.166574 226.305979 
" style="fill:none;stroke:#a157db;stroke-width:0.886227;"/>
    <path clip-path="url(#p5204bdba6d)" d="M 156.608028 213.914528 
L 159.584028 213.914528 
" style="fill:none;stroke:#a157db;stroke-width:0.886227;"/>
    <path clip-path="url(#p5204bdba6d)" d="M 194.754938 151.574123 
L 197.730938 151.574123 
" style="fill:none;stroke:#a157db;stroke-width:0.886227;"/>
    <path clip-path="url(#p5204bdba6d)" d="M 233.172392 102.447859 
L 236.148392 102.447859 
" style="fill:none;stroke:#a157db;stroke-width:0.886227;"/>
    <path clip-path="url(#p5204bdba6d)" d="M 271.319301 57.060451 
L 274.295301 57.060451 
" style="fill:none;stroke:#a157db;stroke-width:0.886227;"/>
    <path clip-path="url(#p5204bdba6d)" d="M 309.736756 43.355367 
L 312.712756 43.355367 
" style="fill:none;stroke:#a157db;stroke-width:0.886227;"/>
    <path clip-path="url(#p5204bdba6d)" d="M 347.883665 46.254185 
L 350.859665 46.254185 
" style="fill:none;stroke:#a157db;stroke-width:0.886227;"/>
    <path clip-path="url(#p5204bdba6d)" d="M 386.030574 39.545371 
L 389.006574 39.545371 
" style="fill:none;stroke:#a157db;stroke-width:0.886227;"/>
    <path clip-path="url(#p5204bdba6d)" d="M 83.019665 213.06486 
" style="fill:none;stroke:#a157db;stroke-width:0.886227;"/>
    <path clip-path="url(#p5204bdba6d)" d="M 118.190574 221.040763 
L 121.166574 221.040763 
" style="fill:none;stroke:#a157db;stroke-width:0.886227;"/>
    <path clip-path="url(#p5204bdba6d)" d="M 156.608028 204.401814 
L 159.584028 204.401814 
" style="fill:none;stroke:#a157db;stroke-width:0.886227;"/>
    <path clip-path="url(#p5204bdba6d)" d="M 194.754938 132.073419 
L 197.730938 132.073419 
" style="fill:none;stroke:#a157db;stroke-width:0.886227;"/>
    <path clip-path="url(#p5204bdba6d)" d="M 233.172392 77.577283 
L 236.148392 77.577283 
" style="fill:none;stroke:#a157db;stroke-width:0.886227;"/>
    <path clip-path="url(#p5204bdba6d)" d="M 271.319301 47.96949 
L 274.295301 47.96949 
" style="fill:none;stroke:#a157db;stroke-width:0.886227;"/>
    <path clip-path="url(#p5204bdba6d)" d="M 309.736756 40.708174 
L 312.712756 40.708174 
" style="fill:none;stroke:#a157db;stroke-width:0.886227;"/>
    <path clip-path="url(#p5204bdba6d)" d="M 347.883665 38.615756 
L 350.859665 38.615756 
" style="fill:none;stroke:#a157db;stroke-width:0.886227;"/>
    <path clip-path="url(#p5204bdba6d)" d="M 386.030574 38.470171 
L 389.006574 38.470171 
" style="fill:none;stroke:#a157db;stroke-width:0.886227;"/>
    <path clip-path="url(#p5204bdba6d)" d="M 81.531665 213.06486 
L 81.531665 222.992281 
" style="fill:none;stroke:#a157db;stroke-width:0.886227;"/>
    <path clip-path="url(#p5204bdba6d)" d="M 119.678574 221.040763 
L 119.678574 226.305979 
" style="fill:none;stroke:#a157db;stroke-width:0.886227;"/>
    <path clip-path="url(#p5204bdba6d)" d="M 158.096028 204.401814 
L 158.096028 213.914528 
" style="fill:none;stroke:#a157db;stroke-width:0.886227;"/>
    <path clip-path="url(#p5204bdba6d)" d="M 196.242938 132.073419 
L 196.242938 151.574123 
" style="fill:none;stroke:#a157db;stroke-width:0.886227;"/>
    <path clip-path="url(#p5204bdba6d)" d="M 234.660392 77.577283 
L 234.660392 102.447859 
" style="fill:none;stroke:#a157db;stroke-width:0.886227;"/>
    <path clip-path="url(#p5204bdba6d)" d="M 272.807301 47.96949 
L 272.807301 57.060451 
" style="fill:none;stroke:#a157db;stroke-width:0.886227;"/>
    <path clip-path="url(#p5204bdba6d)" d="M 311.224756 40.708174 
L 311.224756 43.355367 
" style="fill:none;stroke:#a157db;stroke-width:0.886227;"/>
    <path clip-path="url(#p5204bdba6d)" d="M 349.371665 38.615756 
L 349.371665 46.254185 
" style="fill:none;stroke:#a157db;stroke-width:0.886227;"/>
    <path clip-path="url(#p5204bdba6d)" d="M 387.518574 38.470171 
L 387.518574 39.545371 
" style="fill:none;stroke:#a157db;stroke-width:0.886227;"/>
   </g>
   <g id="patch_3">
    <path d="M 429.618938 211.836339 
L 555.772375 211.836339 
L 555.772375 103.030402 
L 429.618938 103.030402 
z
" style="fill:#ffffff;"/>
   </g>
   <g id="text_13">
    <!-- Std value selected -->
    <g transform="translate(441.818938 126.623996)scale(0.11 -0.11)">
     <defs>
      <path d="M 53.515625 70.515625 
L 53.515625 60.890625 
Q 47.90625 63.578125 42.921875 64.890625 
Q 37.9375 66.21875 33.296875 66.21875 
Q 25.25 66.21875 20.875 63.09375 
Q 16.5 59.96875 16.5 54.203125 
Q 16.5 49.359375 19.40625 46.890625 
Q 22.3125 44.4375 30.421875 42.921875 
L 36.375 41.703125 
Q 47.40625 39.59375 52.65625 34.296875 
Q 57.90625 29 57.90625 20.125 
Q 57.90625 9.515625 50.796875 4.046875 
Q 43.703125 -1.421875 29.984375 -1.421875 
Q 24.8125 -1.421875 18.96875 -0.25 
Q 13.140625 0.921875 6.890625 3.21875 
L 6.890625 13.375 
Q 12.890625 10.015625 18.65625 8.296875 
Q 24.421875 6.59375 29.984375 6.59375 
Q 38.421875 6.59375 43.015625 9.90625 
Q 47.609375 13.234375 47.609375 19.390625 
Q 47.609375 24.75 44.3125 27.78125 
Q 41.015625 30.8125 33.5 32.328125 
L 27.484375 33.5 
Q 16.453125 35.6875 11.515625 40.375 
Q 6.59375 45.0625 6.59375 53.421875 
Q 6.59375 63.09375 13.40625 68.65625 
Q 20.21875 74.21875 32.171875 74.21875 
Q 37.3125 74.21875 42.625 73.28125 
Q 47.953125 72.359375 53.515625 70.515625 
z
" id="DejaVuSans-83"/>
      <path d="M 2.984375 54.6875 
L 12.5 54.6875 
L 29.59375 8.796875 
L 46.6875 54.6875 
L 56.203125 54.6875 
L 35.6875 0 
L 23.484375 0 
z
" id="DejaVuSans-118"/>
     </defs>
     <use xlink:href="#DejaVuSans-83"/>
     <use x="63.476562" xlink:href="#DejaVuSans-116"/>
     <use x="102.685547" xlink:href="#DejaVuSans-100"/>
     <use x="166.162109" xlink:href="#DejaVuSans-32"/>
     <use x="197.949219" xlink:href="#DejaVuSans-118"/>
     <use x="257.128906" xlink:href="#DejaVuSans-97"/>
     <use x="318.408203" xlink:href="#DejaVuSans-108"/>
     <use x="346.191406" xlink:href="#DejaVuSans-117"/>
     <use x="409.570312" xlink:href="#DejaVuSans-101"/>
     <use x="471.09375" xlink:href="#DejaVuSans-32"/>
     <use x="502.880859" xlink:href="#DejaVuSans-115"/>
     <use x="554.980469" xlink:href="#DejaVuSans-101"/>
     <use x="616.503906" xlink:href="#DejaVuSans-108"/>
     <use x="644.287109" xlink:href="#DejaVuSans-101"/>
     <use x="705.810547" xlink:href="#DejaVuSans-99"/>
     <use x="760.791016" xlink:href="#DejaVuSans-116"/>
     <use x="800" xlink:href="#DejaVuSans-101"/>
     <use x="861.523438" xlink:href="#DejaVuSans-100"/>
    </g>
   </g>
   <g id="patch_4">
    <path clip-path="url(#pb34e8f0d1e)" d="M 441.818938 146.116339 
L 457.658937 146.116339 
L 457.658937 130.276339 
L 441.818938 130.276339 
z
" style="fill:#f2f2f2;"/>
   </g>
   <g id="line2d_33">
    <path clip-path="url(#pb34e8f0d1e)" d="M 441.818938 138.196339 
L 457.658937 138.196339 
" style="fill:none;stroke:#db5f57;stroke-width:0.886227;"/>
   </g>
   <g id="line2d_34">
    <path clip-path="url(#pb34e8f0d1e)" d="M 441.818938 138.196339 
L 457.658937 138.196339 
" style="fill:none;stroke:#db5f57;stroke-width:0.886227;"/>
   </g>
   <g id="text_14">
    <!-- std =0.01 -->
    <g transform="translate(460.658937 140.624589)scale(0.088 -0.088)">
     <defs>
      <path d="M 10.59375 45.40625 
L 73.1875 45.40625 
L 73.1875 37.203125 
L 10.59375 37.203125 
z
M 10.59375 25.484375 
L 73.1875 25.484375 
L 73.1875 17.1875 
L 10.59375 17.1875 
z
" id="DejaVuSans-61"/>
     </defs>
     <use xlink:href="#DejaVuSans-115"/>
     <use x="52.099609" xlink:href="#DejaVuSans-116"/>
     <use x="91.308594" xlink:href="#DejaVuSans-100"/>
     <use x="154.785156" xlink:href="#DejaVuSans-32"/>
     <use x="186.572266" xlink:href="#DejaVuSans-61"/>
     <use x="270.361328" xlink:href="#DejaVuSans-48"/>
     <use x="333.984375" xlink:href="#DejaVuSans-46"/>
     <use x="365.771484" xlink:href="#DejaVuSans-48"/>
     <use x="429.394531" xlink:href="#DejaVuSans-49"/>
    </g>
   </g>
   <g id="patch_5">
    <path clip-path="url(#p92cad3d49d)" d="M 441.818938 163.956339 
L 457.658937 163.956339 
L 457.658937 148.116339 
L 441.818938 148.116339 
z
" style="fill:#f2f2f2;"/>
   </g>
   <g id="line2d_35">
    <path clip-path="url(#p92cad3d49d)" d="M 441.818938 156.036339 
L 457.658937 156.036339 
" style="fill:none;stroke:#91db57;stroke-width:0.886227;"/>
   </g>
   <g id="line2d_36">
    <path clip-path="url(#p92cad3d49d)" d="M 441.818938 156.036339 
L 457.658937 156.036339 
" style="fill:none;stroke:#91db57;stroke-width:0.886227;"/>
   </g>
   <g id="text_15">
    <!-- std =0.5 -->
    <g transform="translate(460.658937 158.464589)scale(0.088 -0.088)">
     <use xlink:href="#DejaVuSans-115"/>
     <use x="52.099609" xlink:href="#DejaVuSans-116"/>
     <use x="91.308594" xlink:href="#DejaVuSans-100"/>
     <use x="154.785156" xlink:href="#DejaVuSans-32"/>
     <use x="186.572266" xlink:href="#DejaVuSans-61"/>
     <use x="270.361328" xlink:href="#DejaVuSans-48"/>
     <use x="333.984375" xlink:href="#DejaVuSans-46"/>
     <use x="365.771484" xlink:href="#DejaVuSans-53"/>
    </g>
   </g>
   <g id="patch_6">
    <path clip-path="url(#p1080f0d7f6)" d="M 441.818938 181.796339 
L 457.658937 181.796339 
L 457.658937 165.956339 
L 441.818938 165.956339 
z
" style="fill:#f2f2f2;"/>
   </g>
   <g id="line2d_37">
    <path clip-path="url(#p1080f0d7f6)" d="M 441.818938 173.876339 
L 457.658937 173.876339 
" style="fill:none;stroke:#57d3db;stroke-width:0.886227;"/>
   </g>
   <g id="line2d_38">
    <path clip-path="url(#p1080f0d7f6)" d="M 441.818938 173.876339 
L 457.658937 173.876339 
" style="fill:none;stroke:#57d3db;stroke-width:0.886227;"/>
   </g>
   <g id="text_16">
    <!-- std =1.0 -->
    <g transform="translate(460.658937 176.304589)scale(0.088 -0.088)">
     <use xlink:href="#DejaVuSans-115"/>
     <use x="52.099609" xlink:href="#DejaVuSans-116"/>
     <use x="91.308594" xlink:href="#DejaVuSans-100"/>
     <use x="154.785156" xlink:href="#DejaVuSans-32"/>
     <use x="186.572266" xlink:href="#DejaVuSans-61"/>
     <use x="270.361328" xlink:href="#DejaVuSans-49"/>
     <use x="333.984375" xlink:href="#DejaVuSans-46"/>
     <use x="365.771484" xlink:href="#DejaVuSans-48"/>
    </g>
   </g>
   <g id="patch_7">
    <path clip-path="url(#p866c999ff8)" d="M 441.818938 199.636339 
L 457.658937 199.636339 
L 457.658937 183.796339 
L 441.818938 183.796339 
z
" style="fill:#f2f2f2;"/>
   </g>
   <g id="line2d_39">
    <path clip-path="url(#p866c999ff8)" d="M 441.818938 191.716339 
L 457.658937 191.716339 
" style="fill:none;stroke:#a157db;stroke-width:0.886227;"/>
   </g>
   <g id="line2d_40">
    <path clip-path="url(#p866c999ff8)" d="M 441.818938 191.716339 
L 457.658937 191.716339 
" style="fill:none;stroke:#a157db;stroke-width:0.886227;"/>
   </g>
   <g id="text_17">
    <!-- std =2.0 -->
    <g transform="translate(460.658937 194.144589)scale(0.088 -0.088)">
     <use xlink:href="#DejaVuSans-115"/>
     <use x="52.099609" xlink:href="#DejaVuSans-116"/>
     <use x="91.308594" xlink:href="#DejaVuSans-100"/>
     <use x="154.785156" xlink:href="#DejaVuSans-32"/>
     <use x="186.572266" xlink:href="#DejaVuSans-61"/>
     <use x="270.361328" xlink:href="#DejaVuSans-50"/>
     <use x="333.984375" xlink:href="#DejaVuSans-46"/>
     <use x="365.771484" xlink:href="#DejaVuSans-48"/>
    </g>
   </g>
  </g>
  <g id="text_18">
   <!-- Accuracy plot for multiple Euclidean Distance and different std values -->
   <g transform="translate(7.2 17.229938)scale(0.132 -0.132)">
    <defs>
     <path d="M 18.109375 8.203125 
L 18.109375 -20.796875 
L 9.078125 -20.796875 
L 9.078125 54.6875 
L 18.109375 54.6875 
L 18.109375 46.390625 
Q 20.953125 51.265625 25.265625 53.625 
Q 29.59375 56 35.59375 56 
Q 45.5625 56 51.78125 48.09375 
Q 58.015625 40.1875 58.015625 27.296875 
Q 58.015625 14.40625 51.78125 6.484375 
Q 45.5625 -1.421875 35.59375 -1.421875 
Q 29.59375 -1.421875 25.265625 0.953125 
Q 20.953125 3.328125 18.109375 8.203125 
z
M 48.6875 27.296875 
Q 48.6875 37.203125 44.609375 42.84375 
Q 40.53125 48.484375 33.40625 48.484375 
Q 26.265625 48.484375 22.1875 42.84375 
Q 18.109375 37.203125 18.109375 27.296875 
Q 18.109375 17.390625 22.1875 11.75 
Q 26.265625 6.109375 33.40625 6.109375 
Q 40.53125 6.109375 44.609375 11.75 
Q 48.6875 17.390625 48.6875 27.296875 
z
" id="DejaVuSans-112"/>
     <path d="M 30.609375 48.390625 
Q 23.390625 48.390625 19.1875 42.75 
Q 14.984375 37.109375 14.984375 27.296875 
Q 14.984375 17.484375 19.15625 11.84375 
Q 23.34375 6.203125 30.609375 6.203125 
Q 37.796875 6.203125 41.984375 11.859375 
Q 46.1875 17.53125 46.1875 27.296875 
Q 46.1875 37.015625 41.984375 42.703125 
Q 37.796875 48.390625 30.609375 48.390625 
z
M 30.609375 56 
Q 42.328125 56 49.015625 48.375 
Q 55.71875 40.765625 55.71875 27.296875 
Q 55.71875 13.875 49.015625 6.21875 
Q 42.328125 -1.421875 30.609375 -1.421875 
Q 18.84375 -1.421875 12.171875 6.21875 
Q 5.515625 13.875 5.515625 27.296875 
Q 5.515625 40.765625 12.171875 48.375 
Q 18.84375 56 30.609375 56 
z
" id="DejaVuSans-111"/>
     <path d="M 37.109375 75.984375 
L 37.109375 68.5 
L 28.515625 68.5 
Q 23.6875 68.5 21.796875 66.546875 
Q 19.921875 64.59375 19.921875 59.515625 
L 19.921875 54.6875 
L 34.71875 54.6875 
L 34.71875 47.703125 
L 19.921875 47.703125 
L 19.921875 0 
L 10.890625 0 
L 10.890625 47.703125 
L 2.296875 47.703125 
L 2.296875 54.6875 
L 10.890625 54.6875 
L 10.890625 58.5 
Q 10.890625 67.625 15.140625 71.796875 
Q 19.390625 75.984375 28.609375 75.984375 
z
" id="DejaVuSans-102"/>
     <path d="M 52 44.1875 
Q 55.375 50.25 60.0625 53.125 
Q 64.75 56 71.09375 56 
Q 79.640625 56 84.28125 50.015625 
Q 88.921875 44.046875 88.921875 33.015625 
L 88.921875 0 
L 79.890625 0 
L 79.890625 32.71875 
Q 79.890625 40.578125 77.09375 44.375 
Q 74.3125 48.1875 68.609375 48.1875 
Q 61.625 48.1875 57.5625 43.546875 
Q 53.515625 38.921875 53.515625 30.90625 
L 53.515625 0 
L 44.484375 0 
L 44.484375 32.71875 
Q 44.484375 40.625 41.703125 44.40625 
Q 38.921875 48.1875 33.109375 48.1875 
Q 26.21875 48.1875 22.15625 43.53125 
Q 18.109375 38.875 18.109375 30.90625 
L 18.109375 0 
L 9.078125 0 
L 9.078125 54.6875 
L 18.109375 54.6875 
L 18.109375 46.1875 
Q 21.1875 51.21875 25.484375 53.609375 
Q 29.78125 56 35.6875 56 
Q 41.65625 56 45.828125 52.96875 
Q 50 49.953125 52 44.1875 
z
" id="DejaVuSans-109"/>
    </defs>
    <use xlink:href="#DejaVuSans-65"/>
    <use x="66.658203" xlink:href="#DejaVuSans-99"/>
    <use x="121.638672" xlink:href="#DejaVuSans-99"/>
    <use x="176.619141" xlink:href="#DejaVuSans-117"/>
    <use x="239.998047" xlink:href="#DejaVuSans-114"/>
    <use x="281.111328" xlink:href="#DejaVuSans-97"/>
    <use x="342.390625" xlink:href="#DejaVuSans-99"/>
    <use x="397.371094" xlink:href="#DejaVuSans-121"/>
    <use x="456.550781" xlink:href="#DejaVuSans-32"/>
    <use x="488.337891" xlink:href="#DejaVuSans-112"/>
    <use x="551.814453" xlink:href="#DejaVuSans-108"/>
    <use x="579.597656" xlink:href="#DejaVuSans-111"/>
    <use x="640.779297" xlink:href="#DejaVuSans-116"/>
    <use x="679.988281" xlink:href="#DejaVuSans-32"/>
    <use x="711.775391" xlink:href="#DejaVuSans-102"/>
    <use x="746.980469" xlink:href="#DejaVuSans-111"/>
    <use x="808.162109" xlink:href="#DejaVuSans-114"/>
    <use x="849.275391" xlink:href="#DejaVuSans-32"/>
    <use x="881.0625" xlink:href="#DejaVuSans-109"/>
    <use x="978.474609" xlink:href="#DejaVuSans-117"/>
    <use x="1041.853516" xlink:href="#DejaVuSans-108"/>
    <use x="1069.636719" xlink:href="#DejaVuSans-116"/>
    <use x="1108.845703" xlink:href="#DejaVuSans-105"/>
    <use x="1136.628906" xlink:href="#DejaVuSans-112"/>
    <use x="1200.105469" xlink:href="#DejaVuSans-108"/>
    <use x="1227.888672" xlink:href="#DejaVuSans-101"/>
    <use x="1289.412109" xlink:href="#DejaVuSans-32"/>
    <use x="1321.199219" xlink:href="#DejaVuSans-69"/>
    <use x="1384.382812" xlink:href="#DejaVuSans-117"/>
    <use x="1447.761719" xlink:href="#DejaVuSans-99"/>
    <use x="1502.742188" xlink:href="#DejaVuSans-108"/>
    <use x="1530.525391" xlink:href="#DejaVuSans-105"/>
    <use x="1558.308594" xlink:href="#DejaVuSans-100"/>
    <use x="1621.785156" xlink:href="#DejaVuSans-101"/>
    <use x="1683.308594" xlink:href="#DejaVuSans-97"/>
    <use x="1744.587891" xlink:href="#DejaVuSans-110"/>
    <use x="1807.966797" xlink:href="#DejaVuSans-32"/>
    <use x="1839.753906" xlink:href="#DejaVuSans-68"/>
    <use x="1916.755859" xlink:href="#DejaVuSans-105"/>
    <use x="1944.539062" xlink:href="#DejaVuSans-115"/>
    <use x="1996.638672" xlink:href="#DejaVuSans-116"/>
    <use x="2035.847656" xlink:href="#DejaVuSans-97"/>
    <use x="2097.126953" xlink:href="#DejaVuSans-110"/>
    <use x="2160.505859" xlink:href="#DejaVuSans-99"/>
    <use x="2215.486328" xlink:href="#DejaVuSans-101"/>
    <use x="2277.009766" xlink:href="#DejaVuSans-32"/>
    <use x="2308.796875" xlink:href="#DejaVuSans-97"/>
    <use x="2370.076172" xlink:href="#DejaVuSans-110"/>
    <use x="2433.455078" xlink:href="#DejaVuSans-100"/>
    <use x="2496.931641" xlink:href="#DejaVuSans-32"/>
    <use x="2528.71875" xlink:href="#DejaVuSans-100"/>
    <use x="2592.195312" xlink:href="#DejaVuSans-105"/>
    <use x="2619.978516" xlink:href="#DejaVuSans-102"/>
    <use x="2655.183594" xlink:href="#DejaVuSans-102"/>
    <use x="2690.388672" xlink:href="#DejaVuSans-101"/>
    <use x="2751.912109" xlink:href="#DejaVuSans-114"/>
    <use x="2790.775391" xlink:href="#DejaVuSans-101"/>
    <use x="2852.298828" xlink:href="#DejaVuSans-110"/>
    <use x="2915.677734" xlink:href="#DejaVuSans-116"/>
    <use x="2954.886719" xlink:href="#DejaVuSans-32"/>
    <use x="2986.673828" xlink:href="#DejaVuSans-115"/>
    <use x="3038.773438" xlink:href="#DejaVuSans-116"/>
    <use x="3077.982422" xlink:href="#DejaVuSans-100"/>
    <use x="3141.458984" xlink:href="#DejaVuSans-32"/>
    <use x="3173.246094" xlink:href="#DejaVuSans-118"/>
    <use x="3232.425781" xlink:href="#DejaVuSans-97"/>
    <use x="3293.705078" xlink:href="#DejaVuSans-108"/>
    <use x="3321.488281" xlink:href="#DejaVuSans-117"/>
    <use x="3384.867188" xlink:href="#DejaVuSans-101"/>
    <use x="3446.390625" xlink:href="#DejaVuSans-115"/>
   </g>
  </g>
 </g>
 <defs>
  <clipPath id="p5204bdba6d">
   <rect height="266.112" width="357.12" x="65.298938" y="26.105371"/>
  </clipPath>
  <clipPath id="pb34e8f0d1e">
   <path d="M 441.818938 146.116339 
L 441.818938 130.276339 
L 457.658937 130.276339 
L 457.658937 146.116339 
"/>
  </clipPath>
  <clipPath id="p92cad3d49d">
   <path d="M 441.818938 163.956339 
L 441.818938 148.116339 
L 457.658937 148.116339 
L 457.658937 163.956339 
"/>
  </clipPath>
  <clipPath id="p1080f0d7f6">
   <path d="M 441.818938 181.796339 
L 441.818938 165.956339 
L 457.658937 165.956339 
L 457.658937 181.796339 
"/>
  </clipPath>
  <clipPath id="p866c999ff8">
   <path d="M 441.818938 199.636339 
L 441.818938 183.796339 
L 457.658937 183.796339 
L 457.658937 199.636339 
"/>
  </clipPath>
 </defs>
</svg>
